<svg width="1400" height="465" viewBox="0 0 1400 465" fill="none" xmlns="http://www.w3.org/2000/svg">
<style>
    #cloud1 {
        animation: moveClouds 30s linear infinite;
        opacity: 0.5;
        -webkit-animation: moveClouds 30s linear infinite;
        -moz-animation: moveClouds 30s linear infinite;
        -o-animation: moveClouds 30s linear infinite;
    }

    #cloud1-1 {
        animation: moveClouds-1 30s linear infinite;
        opacity: 0.5;
        -webkit-animation: moveClouds-1 30s linear infinite;
        -moz-animation: moveClouds-1 30s linear infinite;
        -o-animation: moveClouds-1 30s linear infinite;
    }

    #cloud2 {
        animation: moveClouds 25s linear infinite;
        opacity: 0.5;
        -webkit-animation: moveClouds 25s linear infinite;
        -moz-animation: moveClouds 25s linear infinite;
        -o-animation: moveClouds 25s linear infinite;
    }

    #cloud2-1 {
        animation: moveClouds-1 25s linear infinite;
        opacity: 0.5;
        -webkit-animation: moveClouds-1 25s linear infinite;
        -moz-animation: moveClouds-1 25s linear infinite;
        -o-animation: moveClouds-1 25s linear infinite;
    }

    #cloud3 {
        animation: moveClouds 20s linear infinite;
        opacity: 0.5;
        -webkit-animation: moveClouds 20s linear infinite;
        -moz-animation: moveClouds 20s linear infinite;
        -o-animation: moveClouds 20s linear infinite;
    }

    #cloud3-1 {
        animation: moveClouds-1 20s linear infinite;
        opacity: 0.5;
        -webkit-animation: moveClouds-1 20s linear infinite;
        -moz-animation: moveClouds-1 20s linear infinite;
        -o-animation: moveClouds-1 20s linear infinite;
    }

    #cloud4 {
        animation: moveClouds 35s linear infinite;
        opacity: 0.5;
        -webkit-animation: moveClouds 35s linear infinite;
        -moz-animation: moveClouds 35s linear infinite;
        -o-animation: moveClouds 35s linear infinite;
    }

    #cloud4-1 {
        animation: moveClouds-1 35s linear infinite;
        opacity: 0.5;
        -webkit-animation: moveClouds-1 35s linear infinite;
        -moz-animation: moveClouds-1 35s linear infinite;
        -o-animation: moveClouds-1 35s linear infinite;
    }

    #blink {
        animation: blink 5s linear infinite;
        /* -webkit-animation: blink 1s linear infinite;
    -moz-animation: blink 1s linear infinite;
    -o-animation: blink 1s linear infinite; */
    }

    #room-light {
        animation: room-light 12s linear infinite;
        /* -webkit-animation: blink 1s linear infinite;
    -moz-animation: blink 1s linear infinite;
    -o-animation: blink 1s linear infinite; */
    }

    #building-blink {
        animation: buildings-blink 2s linear infinite;
    }

    .UFO {
        animation: UFO-move 30s ease infinite;
    }

    .UFO .hull {
        animation: UFO-hull 1s ease infinite;
    }

    .UFO .beam {
        animation: UFO-beam 30s ease infinite;
    }

    .UFO .light {
        animation: UFO-hull 1s ease infinite;
    }

    .UFO .light > * {
        animation: UFO-beam 30s ease infinite;
    }

    #UFO-front {
        animation: UFO-front 30s linear infinite;
    }

    @keyframes moveClouds {
        0% {
            transform: translateX(0px);
        }

        100% {
            transform: translateX(2000px);
        }
    }

    @keyframes moveClouds-1 {
        0% {
            transform: translateX(-2000px);
        }

        100% {
            transform: translateX(0px);
        }
    }

    @keyframes blink {

        0%,
        4%,
        8% {
            opacity: 0;
        }

        2%,
        6%,
        10%,
        100% {
            opacity: 1;
        }
    }

    @keyframes room-light {
        0%, 29%, 31%, 33% {
            opacity: 0;
        }

        30%, 32%, 34%, 100% {
            opacity: 1;
        }
    }

    @keyframes buildings-blink {
        0%, 100% {
            opacity: 0;
        }

        50% {
            opacity: 1;
        }
    }

    @keyframes UFO-move {
        0% {
            filter: blur(10px);
            transform: translate(-100px, 100px) scale(0.25) rotate(15deg);
        }

        12% {
            transform: translate(1450px, 80px) scale(0.25) rotate(15deg);
        }

        13% {
            filter: blur(5px);
            transform: translate(1450px, 80px) scale(0.5) rotate(-15deg);
        }

        19% {
            filter: blur(0px);
            transform: translate(450px, 120px) scale(0.5) rotate(-15deg);
        }

        24% {
            transform: translate(350px, 120px) scale(0.75) rotate(15deg);
        }

        27% {
            transform: translate(700px, 80px) scale(1) rotate(-10deg);
        }

        30% {
            transform: translate(650px, 50px) scale(1.25) rotate(0deg);
        }

        39% {
            transform: translate(100px, 50px) scale(1.25) rotate(0deg);
        }

        42%, 100% {
            transform: translate(-300px, 0px) scale(1.25) rotate(5deg);
        }
    }

    @keyframes UFO-hull {
        0% {
            transform: translateY(0px);
        }

        50% {
            transform: translateY(10px);
        }

        100% {
            transform: translateY(0px);
        }
    }

    @keyframes UFO-front {
        0%, 13% {
            opacity: 0;
        }

        14%, 100% {
            opacity: 1;
        }
    }

    @keyframes UFO-beam {
        0%, 30%, 40%, 100% {
            opacity: 0;
        }

        31%, 39% {
            opacity: 1;
        }
    }
</style>
<rect width="1400" height="465" />
<g id="banner">
<g id="bg">
<mask id="mask0_0_1" style="mask-type:alpha" maskUnits="userSpaceOnUse" x="0" y="71" width="1400" height="307">
<rect id="mask" y="71" width="1400" height="307" rx="39" fill="#D9D9D9"/>
</mask>


<g mask="url(#mask0_0_1)">
<rect id="skybg" y="71" width="1400" height="307" fill="#322F34"/>
<g id="UFO-back">
<g class="UFO">
<g class="beam" filter="url(#filter6_d_0_1)">
<path d="M230 400H0L89.1337 145H140.866L230 400Z" fill="#FFF28F" fill-opacity="0.37" shape-rendering="crispEdges"/>
</g>
<g class="hull">
<path id="Ellipse 31" d="M183 132C183 148.569 152.555 162 115 162C99.1483 162 84.5634 159.607 73 155.595C57.1679 150.103 47 141.575 47 132C47 115.431 77.4446 102 115 102C152.555 102 183 115.431 183 132Z" fill="#333333"/>
<ellipse id="Ellipse 30" cx="115" cy="122" rx="102" ry="31" fill="#424242"/>
<ellipse id="Ellipse 30_2" cx="115" cy="110.5" rx="62" ry="19.5" fill="#A4A4A4"/>
<path id="Vector_2" d="M176.998 110.664C176.718 121.358 149.068 130 115 130C80.9322 130 53.282 121.358 53.0021 110.664C53.282 88.7272 80.9322 71 115 71C149.068 71 176.718 88.7272 176.998 110.664Z" fill="#86ACA9" fill-opacity="0.78"/>
</g>
<g class="light" filter="url(#filter7_d_0_1)">
<mask id="mask1_0_1" style="mask-type:alpha" maskUnits="userSpaceOnUse" x="13" y="91" width="204" height="62">
<ellipse id="Ellipse 30_3" cx="115" cy="122" rx="102" ry="31" fill="#424242"/>
</mask>
<g mask="url(#mask1_0_1)">
<ellipse id="Ellipse 32" cx="115" cy="143" rx="8" ry="6" fill="#FFEE81"/>
<ellipse id="Ellipse 33" cx="143.62" cy="141.856" rx="8" ry="6" transform="rotate(-6.40916 143.62 141.856)" fill="#FFEE81"/>
<ellipse id="Ellipse 34" cx="170.62" cy="137.856" rx="8" ry="6" transform="rotate(-11.5912 170.62 137.856)" fill="#FFEE81"/>
<ellipse id="Ellipse 35" cx="195.585" cy="130.54" rx="7.15519" ry="5.36639" transform="rotate(-20.5928 195.585 130.54)" fill="#FFEE81"/>
<ellipse id="Ellipse 36" cx="211.883" cy="119.023" rx="6.43927" ry="4.82945" transform="rotate(-48.5418 211.883 119.023)" fill="#FFEE81"/>
<ellipse id="Ellipse 38" cx="8" cy="6" rx="8" ry="6" transform="matrix(-0.99375 -0.111628 -0.111628 0.99375 94.7653 136.786)" fill="#FFEE81"/>
<ellipse id="Ellipse 39" cx="8" cy="6" rx="8" ry="6" transform="matrix(-0.979606 -0.200927 -0.200927 0.979606 68.188 133.585)" fill="#FFEE81"/>
<ellipse id="Ellipse 40" cx="7.15519" cy="5.36639" rx="7.15519" ry="5.36639" transform="matrix(-0.936104 -0.351724 -0.351724 0.936104 42.7653 128.033)" fill="#FFEE81"/>
<ellipse id="Ellipse 41" cx="6.43927" cy="4.82945" rx="6.43927" ry="4.82945" transform="matrix(-0.662074 -0.749439 -0.749439 0.662074 25.7653 120.652)" fill="#FFEE81"/>
</g>
</g>
</g>
</g>
<path id="cloud4-1" d="M554 319.645H378C369.163 319.645 362 312.482 362 303.645C362 294.809 369.163 287.645 378 287.645H396.084C396.028 287.104 396 286.555 396 286C396 277.163 403.163 270 412 270H436.709C439.443 258.53 449.757 250 462.065 250C463.875 250 465.642 250.185 467.349 250.536C473.352 242.33 483.054 237 494 237C512.225 237 527 251.775 527 270V270.031C535.371 270.547 542 277.499 542 286C542 286.555 541.972 287.104 541.916 287.645H554C562.837 287.645 570 294.809 570 303.645C570 312.482 562.837 319.645 554 319.645Z" fill="#515151"/>
<path id="cloud3-1" d="M165.337 277H-113.639C-127.645 277 -139 265.645 -139 251.639C-139 237.632 -127.645 226.277 -113.639 226.277H-84.9745C-85.0621 225.42 -85.1069 224.55 -85.1069 223.669C-85.1069 209.663 -73.7522 198.308 -59.7455 198.308H-20.5792C-16.2466 180.127 0.103409 166.606 19.6113 166.606C22.4809 166.606 25.2822 166.899 27.9869 167.456C37.5027 154.448 52.8807 146 70.2319 146C99.1207 146 122.54 169.419 122.54 198.308L122.54 198.357C135.808 199.175 146.316 210.195 146.316 223.669C146.316 224.55 146.271 225.42 146.184 226.277H165.337C179.344 226.277 190.699 237.632 190.699 251.639C190.699 265.645 179.344 277 165.337 277Z" fill="#515151"/>
<path id="cloud4" d="M554 319.645H378C369.163 319.645 362 312.482 362 303.645C362 294.809 369.163 287.645 378 287.645H396.084C396.028 287.104 396 286.555 396 286C396 277.163 403.163 270 412 270H436.709C439.443 258.53 449.757 250 462.065 250C463.875 250 465.642 250.185 467.349 250.536C473.352 242.33 483.054 237 494 237C512.225 237 527 251.775 527 270V270.031C535.371 270.547 542 277.499 542 286C542 286.555 541.972 287.104 541.916 287.645H554C562.837 287.645 570 294.809 570 303.645C570 312.482 562.837 319.645 554 319.645Z" fill="#515151"/>
<path id="cloud3" d="M165.337 277H-113.639C-127.645 277 -139 265.645 -139 251.639C-139 237.632 -127.645 226.277 -113.639 226.277H-84.9745C-85.0621 225.42 -85.1069 224.55 -85.1069 223.669C-85.1069 209.663 -73.7522 198.308 -59.7455 198.308H-20.5792C-16.2466 180.127 0.103409 166.606 19.6113 166.606C22.4809 166.606 25.2822 166.899 27.9869 167.456C37.5027 154.448 52.8807 146 70.2319 146C99.1207 146 122.54 169.419 122.54 198.308L122.54 198.357C135.808 199.175 146.316 210.195 146.316 223.669C146.316 224.55 146.271 225.42 146.184 226.277H165.337C179.344 226.277 190.699 237.632 190.699 251.639C190.699 265.645 179.344 277 165.337 277Z" fill="#515151"/>
<g id="city">
<g id="Group 29">
<rect id="Rectangle 43" x="49" y="189" width="353" height="680" fill="#242026"/>
<rect id="Rectangle 44" x="86" y="-25" width="233" height="214" fill="#242026"/>
<rect id="Rectangle 45" x="180" y="99" width="162" height="90" fill="#242026"/>
<g id="Group 20">
<rect id="Rectangle 53" x="166" y="58" width="22" height="41" fill="#242424"/>
<g id="Rectangle 52" filter="url(#filter0_d_0_1)">
<rect x="113" y="58" width="22" height="41" fill="#FFE1A8"/>
</g>
<g id="Rectangle 54" filter="url(#filter1_d_0_1)">
<rect x="218" y="58" width="22" height="41" fill="#FFE1A8"/>
</g>
<g id="Rectangle 55" filter="url(#filter2_d_0_1)">
<rect x="271" y="58" width="22" height="41" fill="#FFE1A8"/>
</g>
<g id="Rectangle 56" filter="url(#filter3_d_0_1)">
<rect x="113" y="117" width="22" height="41" fill="#FFE1A8"/>
</g>
<rect id="room" x="166" y="117" width="22" height="41" fill="#242424"/>
<g id="room-light" filter="url(#filter4_d_0_1)">
<rect x="166" y="117" width="22" height="41" fill="#FFE1A8"/>
</g>
</g>
</g>
<g id="Group 38">
<g id="Vector">
<path d="M585.5 215.757L607.901 188.236H597.352L570.5 215.757H585.5Z" fill="#242026"/>
<path d="M600.5 215.757L618.451 188.236H607.901L585.5 215.757H600.5Z" fill="#242026"/>
<path d="M619.5 215.757L631.813 188.236H618.451L600.5 215.757H619.5Z" fill="#242026"/>
<path d="M702.5 215.757L690.187 188.236H631.813L619.5 215.757H702.5Z" fill="#242026"/>
<path d="M721.5 215.757L703.549 188.236H690.187L702.5 215.757H721.5Z" fill="#242026"/>
<path d="M736.5 215.757L714.099 188.236H703.549L721.5 215.757H736.5Z" fill="#242026"/>
<path d="M736.5 215.757C736.5 215.757 745.642 215.757 751.5 215.757C741.014 205.009 724.648 188.236 724.648 188.236H714.099L736.5 215.757Z" fill="#242026"/>
<path d="M570.5 232.066H554.5L532 255H553.558L563.099 243.278L572.225 232.066H570.5Z" fill="#242026"/>
<path d="M572.225 232.066L563.099 243.278L553.558 255H574.904L582.549 243.278L589.863 232.066H585.5H572.225Z" fill="#242026"/>
<path d="M589.863 232.066L582.549 243.278L574.904 255H601.942L612.203 232.066H600.5H589.863Z" fill="#242026"/>
<path d="M702.5 232.066H619.5H612.203L601.942 255H720.058L709.797 232.066H702.5Z" fill="#242026"/>
<path d="M721.5 232.066H709.797L720.058 255H747.096L732.137 232.066H721.5Z" fill="#242026"/>
<path d="M767.5 232.066H751.5H749.775H736.5H732.137L747.096 255H768.548H790L767.5 232.066Z" fill="#242026"/>
<path d="M656.302 133.5H665.698L661 123L656.302 133.5Z" fill="#242026"/>
<path d="M656.302 133.5L661 123L654.151 133.5H656.302Z" fill="#242026"/>
<path d="M570.5 215.757C570.5 215.757 680.815 215.757 751.5 215.757M570.5 215.757V232.066M570.5 215.757L597.352 188.236M570.5 215.757H585.5M751.5 215.757C751.5 222.126 751.5 232.066 751.5 232.066M751.5 215.757C741.014 205.009 724.648 188.236 724.648 188.236M751.5 215.757C745.642 215.757 736.5 215.757 736.5 215.757M751.5 232.066H767.5L790 255M751.5 232.066H749.775M570.5 232.066H554.5L532 255M570.5 232.066H572.225M661 123L607.901 188.236M661 123L703.549 188.236M661 123L714.099 188.236M661 123V37M661 123L650.755 133.5M661 123L671.245 133.5M661 123L656.302 133.5M661 123L665.698 133.5M661 123L654.151 133.5M702.5 215.757H619.5M702.5 215.757L690.187 188.236M702.5 215.757H721.5M702.5 215.757V232.066M619.5 215.757L631.813 188.236M619.5 215.757H600.5M619.5 215.757V232.066M721.5 215.757H600.5M721.5 215.757L703.549 188.236M721.5 215.757H736.5M721.5 215.757V232.066M600.5 215.757L618.451 188.236M600.5 215.757H585.5M600.5 215.757V232.066M736.5 215.757H585.5M736.5 215.757L714.099 188.236M736.5 215.757V232.066M585.5 215.757L607.901 188.236M585.5 215.757V232.066M597.352 188.236H607.901M597.352 188.236L650.755 133.5M724.648 188.236H714.099M724.648 188.236L671.245 133.5M607.901 188.236H618.451M618.451 188.236H631.813M618.451 188.236L654.151 133.5M631.813 188.236H690.187M631.813 188.236L656.302 133.5M690.187 188.236H703.549M690.187 188.236L665.698 133.5M703.549 188.236H714.099M585.5 232.066H572.225M585.5 232.066H589.863M600.5 232.066H589.863M600.5 232.066H612.203M619.5 232.066H702.5M619.5 232.066H612.203M702.5 232.066H709.797M721.5 232.066H709.797M721.5 232.066H732.137M736.5 232.066H732.137M736.5 232.066H749.775M532 255H553.558M532 255V274H553.558M790 255H768.548M790 255V274H768.548M572.225 232.066L563.099 243.278L553.558 255M589.863 232.066L582.549 243.278L574.904 255M612.203 232.066L601.942 255M709.797 232.066L720.058 255M732.137 232.066L747.096 255M749.775 232.066L768.548 255M553.558 255H574.904M553.558 255V274M574.904 255H601.942M574.904 255V274M601.942 255H720.058M601.942 255V274M720.058 255H747.096M720.058 255V274M747.096 255H768.548M747.096 255V274M768.548 255V274M720.058 274H747.096M720.058 274H601.942M747.096 274H768.548M574.904 274H601.942M574.904 274H553.558M650.755 133.5H654.151M671.245 133.5H665.698M665.698 133.5H656.302M656.302 133.5H654.151" stroke="#242026" stroke-width="5"/>
</g>
<rect id="Rectangle 209" x="527" y="274" width="273" height="168" fill="#242026"/>
</g>
<g id="Group 31">
<rect id="Rectangle 59" x="874.656" y="309.134" width="209.713" height="169.12" fill="#1D1A1E"/>
<rect id="Rectangle 60" x="935.131" y="254.144" width="88.7623" height="54.99" fill="#1D1A1E"/>
<rect id="Rectangle 61" x="968.295" y="215.755" width="22.4344" height="38.3892" fill="#1D1A1E"/>
<rect id="Rectangle 46" width="4.87705" height="103.755" transform="matrix(-1 0 0 1 981.951 112)" fill="#1D1A1E"/>
<g id="building-blink" filter="url(#filter5_d_0_1)">
<rect x="977" y="112" width="5" height="5" fill="#FF0000"/>
</g>
</g>
<g id="Group 32">
<rect id="Rectangle 66" width="332" height="31" transform="matrix(1 0 0 -1 218 387)" fill="#1D1A1E"/>
</g>
</g>


<path id="cloud2-1" d="M995.308 249.28H789.692C779.369 249.28 771 240.912 771 230.588C771 220.265 779.369 211.896 789.692 211.896H803.384C802.716 209.873 802.355 207.711 802.355 205.464C802.355 194.141 811.534 184.963 822.856 184.963H829.058C828.944 183.906 828.886 182.833 828.886 181.747C828.886 165.318 842.204 152 858.633 152C870.014 152 879.902 158.391 884.904 167.781C888.852 165.91 893.267 164.864 897.927 164.864C911.11 164.864 922.336 173.241 926.573 184.963H939.432C950.754 184.963 959.933 194.141 959.933 205.464C959.933 207.711 959.572 209.873 958.904 211.896H995.308C1005.63 211.896 1014 220.265 1014 230.588C1014 240.912 1005.63 249.28 995.308 249.28Z" fill="#515151"/>
<path id="cloud1-1" d="M525 144H269.25C256.409 144 246 133.591 246 120.75C246 107.909 256.409 97.5 269.25 97.5H287.357C287.286 96.7596 287.249 96.009 287.249 95.25C287.249 82.4094 297.659 72 310.499 72H329.486C333.39 55.2379 348.424 42.75 366.375 42.75C370.304 42.75 374.094 43.3484 377.658 44.459C388.023 30.2402 404.807 21 423.75 21C453.204 21 477.44 43.34 480.438 72H483.749C496.59 72 506.999 82.4094 506.999 95.25C506.999 96.009 506.963 96.7596 506.892 97.5H525C537.841 97.5 548.25 107.909 548.25 120.75C548.25 133.591 537.841 144 525 144Z" fill="#515151"/>
<path id="cloud2" d="M995.308 249.28H789.692C779.369 249.28 771 240.912 771 230.588C771 220.265 779.369 211.896 789.692 211.896H803.384C802.716 209.873 802.355 207.711 802.355 205.464C802.355 194.141 811.534 184.963 822.856 184.963H829.058C828.944 183.906 828.886 182.833 828.886 181.747C828.886 165.318 842.204 152 858.633 152C870.014 152 879.902 158.391 884.904 167.781C888.852 165.91 893.267 164.864 897.927 164.864C911.11 164.864 922.336 173.241 926.573 184.963H939.432C950.754 184.963 959.933 194.141 959.933 205.464C959.933 207.711 959.572 209.873 958.904 211.896H995.308C1005.63 211.896 1014 220.265 1014 230.588C1014 240.912 1005.63 249.28 995.308 249.28Z" fill="#515151"/>
<path id="cloud1" d="M525 144H269.25C256.409 144 246 133.591 246 120.75C246 107.909 256.409 97.5 269.25 97.5H287.357C287.286 96.7596 287.249 96.009 287.249 95.25C287.249 82.4094 297.659 72 310.499 72H329.486C333.39 55.2379 348.424 42.75 366.375 42.75C370.304 42.75 374.094 43.3484 377.658 44.459C388.023 30.2402 404.807 21 423.75 21C453.204 21 477.44 43.34 480.438 72H483.749C496.59 72 506.999 82.4094 506.999 95.25C506.999 96.009 506.963 96.7596 506.892 97.5H525C537.841 97.5 548.25 107.909 548.25 120.75C548.25 133.591 537.841 144 525 144Z" fill="#515151"/>
<g id="UFO-front">
<g class="UFO">
<g class="beam" filter="url(#filter6_d_0_1)">
<path d="M230 400H0L89.1337 145H140.866L230 400Z" fill="#FFF28F" fill-opacity="0.37" shape-rendering="crispEdges"/>
</g>
<g class="hull">
<path id="Ellipse 31" d="M183 132C183 148.569 152.555 162 115 162C99.1483 162 84.5634 159.607 73 155.595C57.1679 150.103 47 141.575 47 132C47 115.431 77.4446 102 115 102C152.555 102 183 115.431 183 132Z" fill="#333333"/>
<ellipse id="Ellipse 30" cx="115" cy="122" rx="102" ry="31" fill="#424242"/>
<ellipse id="Ellipse 30_2" cx="115" cy="110.5" rx="62" ry="19.5" fill="#A4A4A4"/>
<path id="Vector_2" d="M176.998 110.664C176.718 121.358 149.068 130 115 130C80.9322 130 53.282 121.358 53.0021 110.664C53.282 88.7272 80.9322 71 115 71C149.068 71 176.718 88.7272 176.998 110.664Z" fill="#86ACA9" fill-opacity="0.78"/>
</g>
<g class="light" filter="url(#filter7_d_0_1)">
<mask id="mask1_0_1" style="mask-type:alpha" maskUnits="userSpaceOnUse" x="13" y="91" width="204" height="62">
<ellipse id="Ellipse 30_3" cx="115" cy="122" rx="102" ry="31" fill="#424242"/>
</mask>
<g mask="url(#mask1_0_1)">
<ellipse id="Ellipse 32" cx="115" cy="143" rx="8" ry="6" fill="#FFEE81"/>
<ellipse id="Ellipse 33" cx="143.62" cy="141.856" rx="8" ry="6" transform="rotate(-6.40916 143.62 141.856)" fill="#FFEE81"/>
<ellipse id="Ellipse 34" cx="170.62" cy="137.856" rx="8" ry="6" transform="rotate(-11.5912 170.62 137.856)" fill="#FFEE81"/>
<ellipse id="Ellipse 35" cx="195.585" cy="130.54" rx="7.15519" ry="5.36639" transform="rotate(-20.5928 195.585 130.54)" fill="#FFEE81"/>
<ellipse id="Ellipse 36" cx="211.883" cy="119.023" rx="6.43927" ry="4.82945" transform="rotate(-48.5418 211.883 119.023)" fill="#FFEE81"/>
<ellipse id="Ellipse 38" cx="8" cy="6" rx="8" ry="6" transform="matrix(-0.99375 -0.111628 -0.111628 0.99375 94.7653 136.786)" fill="#FFEE81"/>
<ellipse id="Ellipse 39" cx="8" cy="6" rx="8" ry="6" transform="matrix(-0.979606 -0.200927 -0.200927 0.979606 68.188 133.585)" fill="#FFEE81"/>
<ellipse id="Ellipse 40" cx="7.15519" cy="5.36639" rx="7.15519" ry="5.36639" transform="matrix(-0.936104 -0.351724 -0.351724 0.936104 42.7653 128.033)" fill="#FFEE81"/>
<ellipse id="Ellipse 41" cx="6.43927" cy="4.82945" rx="6.43927" ry="4.82945" transform="matrix(-0.662074 -0.749439 -0.749439 0.662074 25.7653 120.652)" fill="#FFEE81"/>
</g>
</g>
</g>
</g>
<g id="Rectangle 229">
<path d="M1016.5 71H988L766 378H794.5L1016.5 71Z" fill="#5E5E5E" fill-opacity="0.48"/>
<path d="M1400 71H1016.5L794.5 378H1400V71Z" fill="#424242" fill-opacity="0.73"/>
</g>
<text id="SITTHA&#226;&#128;&#168;MANITTAYAKUL" transform="translate(61 109)" fill="#D7D7D7" xml:space="preserve" style="white-space: pre" font-family="Cascadia Code" font-size="98" font-weight="bold" letter-spacing="0.07em"><tspan x="0" y="90.9746">SITTHA&#x2028;</tspan><tspan x="0" y="204.975">MANITTAYAKUL</tspan></text>
</g>
</g>
<g id="mink">
<g id="Group 9" filter="url(#filter8_d_0_1)">
<path id="Vector 20" d="M1305.47 143.961L1302.89 141.282L1299.46 140.287L1296.64 140.397L1296.16 145.976L1296.68 148.128L1301.04 146.393L1305.47 143.961Z" fill="#E1E1E1"/>
<path id="Vector 19" d="M870.202 307.059C866.636 306.126 864.477 305.844 860.498 305.528C856.816 309.156 854.685 310.749 852.554 324.519C851.262 330.607 851.024 330.65 850.964 334.92C849.173 339.872 848.579 342.56 847.8 347.295C845.736 352.485 845.59 353.191 845.275 360.426C844.748 366.309 843.965 371.194 846.236 373.855C848.652 379.523 853.166 380.847 863.832 381.679C876.013 382.746 883.469 383.755 891.208 381.909C893.226 380.868 896.068 379.263 897.085 378.898C898.103 378.533 903.356 378.203 906.211 378.975L919.189 342.149C917.626 341.499 915.283 339.299 913.907 338.186C913.305 338.047 913.006 337.858 912.572 337.37C911.365 334.046 911.535 333.066 906.194 329.801C900.853 326.535 885.586 317.581 885.527 316.797C885.282 313.531 883.052 310.927 879.667 311.379C874.646 309.462 871.733 308.37 870.202 307.059Z" fill="#303030"/>
<path id="Vector 17" d="M962.146 340.899L943.138 341.384L936.675 375.956L965.446 376.304C969.281 373.185 969.346 369.921 969.307 363.989C967.5 350.784 965.526 347.449 962.146 340.899Z" fill="#F5DBD5"/>
<path id="Vector 18" d="M919.486 338.662C917.566 338.011 916.382 337.84 913.907 338.186C914.579 339.718 914.95 340.716 915.583 343.247C915.909 347.982 915.478 349.149 914.868 351.615C912.345 356.247 911.048 358.63 909.034 362.357C905.173 369.685 903.203 374.002 897.085 378.898C899.628 378.612 900.457 378.861 901.902 379.296L901.967 379.315C906.884 380.892 907.65 381.003 910.335 380.029C914.056 378.791 915.429 378.067 925.338 377.095C926.765 375.951 936.664 378.615 938.707 376.832C940.75 375.048 949.599 356.042 943.138 341.384C940.923 340.67 938.623 341.171 932.618 341.188C929.409 341.065 927.48 340.953 922.854 340.355C922.039 340.034 921.395 339.727 919.486 338.662Z" fill="#4A4A4A"/>
<path id="Vector 13" d="M1045.85 282.012C1058.8 294.826 1084.98 320.617 1086.05 321.27L1115.68 328.014L1190.39 316.83L1161.85 289.105C1147.24 277.977 1140.22 272.856 1133.35 269.111C1116.34 255.93 1111.44 251.95 1105.73 247.084C1093.5 235.05 1086.8 228.253 1063.82 219.622C1048.92 221.195 1043.31 224.934 1037.17 235.611C1030.82 252.782 1033.69 259.204 1042.04 269.043C1042.93 274.461 1043.63 277.378 1045.85 282.012Z" fill="#484848"/>
<g id="phone">
<path id="Vector 8" d="M1072.71 107.283L1088.8 140.97L1095.98 155.632L1097.71 159.995L1079.34 161.237C1076.48 160.967 1075.15 160.552 1073.94 158.669L1050.73 109.622C1049.93 106.785 1050.79 105.845 1053.94 104.979L1067.37 104.018C1070.7 103.981 1071.53 105.053 1072.71 107.283Z" fill="#404040"/>
<path id="screen" d="M1067.67 105.563C1070.66 105.529 1071.4 106.494 1072.46 108.498L1093.48 151.907C1094.3 154.311 1093.69 155.125 1091.73 155.973L1078.79 156.975C1076.22 156.733 1075.03 156.36 1073.94 154.667L1053.15 110.577C1052.43 108.027 1053.2 107.182 1056.02 106.402L1067.67 105.563Z" fill="#2E2E2E"/>
</g>
<path id="back" d="M1210.7 251.829C1211.78 249.641 1212.2 249.096 1212.95 248.458C1213.61 249.012 1215.1 249.048 1216.53 248.92L1215.64 251.497C1215.64 251.497 1218.26 261.749 1219.91 267.367C1220.04 270.017 1219.55 271.836 1217.8 275.616C1214.81 275.992 1209.8 278.607 1203.28 282.018L1203.28 282.019C1201.41 282.995 1199.42 284.036 1197.32 285.108C1210.88 291.793 1210.58 298.171 1207.09 310.528L1209.68 321.287L1219.79 324.716L1262.25 339.121L1287.01 370.035C1302.11 357.917 1308.39 347.948 1305.92 329.502C1316.61 315.812 1319.37 305.974 1323.51 291.217L1323.51 291.214C1324.03 289.384 1324.56 287.479 1325.13 285.482C1328.88 269.822 1334.31 255.538 1337.57 246.971C1339.17 242.782 1340.24 239.96 1340.34 239.012C1340.65 236.124 1331.64 201.038 1331.64 201.038C1327.97 184.1 1320.62 175.743 1308.05 161.466L1307.02 160.301C1306.96 158.272 1306.98 156.582 1306.99 155.016L1306.99 155.016C1307.02 151.545 1307.05 148.683 1306.3 144.083L1304.2 143.904C1302.34 145.966 1301.16 146.389 1299.03 146.923L1296.17 148.084C1277.57 158.518 1260.99 170.771 1258.43 172.988L1251.83 176.977L1253.11 174.666L1255.68 169.265L1257.8 152.587L1250.58 153.324L1250.02 153.771L1250.02 153.771C1249.1 154.51 1248.27 155.17 1247.5 155.81L1238.72 162.198C1234.06 165.326 1231.02 167.963 1225.09 173.679C1215.51 180.714 1214.02 189.146 1208.6 194.048C1203.19 198.95 1203.39 195.252 1200.8 203.216C1196.76 206.183 1194.47 207.835 1190.32 210.751L1184.56 212.367L1180.94 212.058C1174.1 232.006 1175.78 238.304 1178.96 253.334C1181.14 256.24 1182.29 257.064 1184.24 257.297C1187.63 257.516 1190.41 257.209 1196.27 256.217C1200.6 257.331 1202.35 256.719 1205.46 255.596C1207.91 254.405 1208.92 253.487 1210.7 251.829Z" fill="#FAFAFA"/>
<path id="Vector 10" fill-rule="evenodd" clip-rule="evenodd" d="M1066.7 149.231C1066.7 149.231 1067.3 149.133 1068.38 149.764C1069.46 150.396 1067.52 147.613 1068.59 147.285C1067.77 146.36 1067.33 144.379 1066.85 142.922C1065.96 140.945 1065.54 139.602 1065.24 138.648C1064.84 137.393 1064.66 136.812 1063.9 136.348C1062.57 135.531 1061.11 136.11 1061.11 136.11C1060.65 136.502 1060.62 136.748 1060.48 137.956C1060.39 138.713 1060.93 138.279 1061.48 140.044C1062.03 141.808 1064.92 145.13 1066.18 147.079C1066.59 148.039 1069.72 149.372 1066.7 149.231Z" fill="#EFCCC4"/>
<path id="Vector 11" d="M1066.72 152.745C1070.35 160.28 1074.04 159.174 1074.58 159.426C1075.11 159.678 1072.99 157.369 1071.54 153.859C1071.4 152.017 1071.78 151.069 1071.2 149.615C1070.62 148.161 1068.59 147.285 1068.59 147.285C1067.52 147.613 1067.01 148.023 1066.32 149.198C1066.63 150.651 1066.74 151.437 1066.72 152.745Z" fill="#F5DBD5"/>
<path id="Vector 7" d="M1181.71 212.826L1118.44 162.402C1117.2 156.337 1109.43 139.82 1105.19 138.155C1100.96 136.491 1098.7 132.163 1097.93 131.147C1096.42 129.156 1091.2 129.234 1089.17 128.358C1087.14 127.482 1085.63 128.758 1086.14 130.909C1086.66 133.061 1089.66 135.675 1094.1 136.505C1096.54 139.043 1096.63 139.755 1097.86 141.744C1099.1 143.734 1098.14 143.846 1096.99 143.777C1093.82 143.059 1092.02 142.359 1088.8 140.97L1094.76 153.421C1095.88 157.694 1095.24 157.392 1094.04 158.543L1084.15 159.104C1083.74 157.741 1081.79 157.231 1080.39 157.112C1079 156.993 1078.82 159.085 1078.82 159.085C1078.94 163.007 1082.33 167.597 1082.87 169.266C1083.5 171.189 1090.65 172.908 1097.12 175.088C1100.91 176.194 1102.99 177.072 1106.56 179.718C1111.19 183.12 1121.87 197.267 1130.92 207.086C1138.92 217.099 1159.72 236.957 1179.59 254.091L1181.71 212.826Z" fill="#EED3CC"/>
<g id="camera">
<g id="body">
<path d="M1043.85 264.28C1043.64 265.767 1043.65 265.813 1043.61 267.07C1043.58 268.327 1044.76 269.492 1046.59 270.133C1046.59 267.567 1046.69 264.776 1046.82 262.412C1045.06 262.772 1044.12 263.123 1043.85 264.28Z" fill="#D0CBEB"/>
<path d="M1046.59 270.133C1046.44 271.807 1046.56 274.814 1047.05 282.817L1047.45 296.198L1062.24 302.378L1076.92 296.606L1091.6 281C1091.72 273.274 1091.67 268.873 1089.2 259.722C1087.03 256.817 1084.9 255.101 1077.94 251.736C1075.28 250.702 1074.15 250.056 1066.14 250.026C1064.13 248.613 1063.06 247.737 1059.17 249.431C1056.14 249.715 1053.69 249.757 1051.73 250.724C1051.72 250.729 1051.7 250.736 1051.69 250.742C1049.75 251.713 1048.29 253.601 1047.24 257.544C1047.09 258.505 1046.94 260.286 1046.82 262.412C1046.69 264.776 1046.59 267.567 1046.59 270.133Z" fill="#D0CBEB"/>
</g>
<g id="top">
<path d="M1046.59 270.133C1046.44 271.807 1046.56 274.814 1047.05 282.817C1048.02 289.767 1048.49 292.746 1048.95 293.465C1049.41 294.184 1050.98 294.341 1052.44 293.763C1053.89 293.185 1055.34 292.606 1055.46 291.212C1055.58 289.817 1054.57 253.905 1054.57 253.905C1054.57 253.905 1054.55 252.498 1053.92 251.741C1053.29 251.002 1052.27 250.48 1051.73 250.724C1051.72 250.729 1051.7 250.736 1051.69 250.742C1049.75 251.713 1048.29 253.601 1047.24 257.544C1047.09 258.505 1046.94 260.286 1046.82 262.412C1046.69 264.776 1046.59 267.567 1046.59 270.133Z" fill="#DCD6FB"/>
</g>
<ellipse id="Ellipse 3" cx="1064.59" cy="252.952" rx="2.09976" ry="2.98204" transform="rotate(-12.7233 1064.59 252.952)" fill="#525252"/>
<ellipse id="Ellipse 4" cx="1068.2" cy="269.567" rx="0.662387" ry="0.940707" transform="rotate(-12.7233 1068.2 269.567)" fill="#525252"/>
<path id="Line 1" d="M1063.85 261.784C1072.8 262.547 1078.07 264.51 1087.21 267.992" stroke="#6B6B6B" stroke-width="0.25" stroke-linecap="round"/>
<line id="film" x1="1051.84" y1="264.483" x2="1052.35" y2="290.721" stroke="#3F3F3F" stroke-width="0.5" stroke-linecap="round"/>
</g>
<path id="shirt-right-arm" d="M1210.7 251.829C1211.78 249.641 1212.2 249.096 1212.95 248.458C1214.43 249.692 1219.99 248.356 1219.99 248.356L1219.19 241.263L1228.44 206.93L1235.57 189.274L1244.6 173.94L1257.8 152.588L1249.95 154.025L1238.72 162.198C1234.06 165.326 1231.02 167.963 1225.09 173.679C1215.51 180.714 1214.02 189.146 1208.6 194.048C1203.19 198.95 1203.39 195.252 1200.8 203.216C1196.76 206.183 1194.47 207.835 1190.32 210.751L1184.56 212.367L1180.94 212.058C1174.1 232.006 1175.78 238.304 1178.96 253.334C1181.14 256.24 1182.29 257.064 1184.24 257.298C1187.63 257.516 1190.41 257.21 1196.27 256.217C1200.6 257.331 1202.35 256.719 1205.46 255.597C1207.91 254.405 1208.92 253.487 1210.7 251.829Z" fill="#EFEFEF"/>
<g id="shirt-right-collar">
<path id="shirt-right-collar_2" d="M1255.68 169.265L1257.8 152.588C1253.47 158.954 1250.68 162.527 1248.51 169.305L1247.96 184.01L1253.11 174.666L1255.68 169.265Z" fill="#EFEFEF"/>
<path id="shirt-right-collar_3" d="M1241.44 161.676C1238.28 165.664 1237.08 168.345 1234.84 173.056L1247.1 169.907L1248.51 169.305C1250.68 162.527 1253.47 158.954 1257.8 152.588L1250.58 153.325C1246.84 156.316 1244.73 157.953 1241.44 161.676Z" fill="#FAFAFA"/>
</g>
<path id="shirt-back-collar" d="M1300.96 140.817C1303.31 141.487 1304.54 142.637 1304.2 143.904L1306.3 144.083C1305.25 142.845 1304.52 142.119 1303.05 140.996C1302.64 140.705 1301.58 140.228 1299.62 140.001C1298.08 139.921 1297.39 140.144 1296.07 140.4C1296.34 140.409 1296.58 140.415 1296.82 140.422C1298.28 140.404 1299.3 140.394 1300.96 140.817Z" fill="#F8F8F8"/>
<path id="face" d="M1214.37 101.815C1216.77 99.9515 1218.11 98.8713 1220.42 96.7117C1222.53 94.8116 1223.36 93.5764 1225.09 91.4898C1226 90.4455 1226.36 89.8552 1226.72 88.8193C1226.12 86.8065 1225.9 85.871 1225.68 84.516C1225.69 82.1041 1226.02 78.0861 1226.39 76.1474C1226.88 74.6551 1227.27 73.9437 1228.09 72.7795C1228.72 70.443 1230.08 65.9247 1230.08 65.9247L1236.43 57.3349L1248.06 52.7084L1263.93 56.1697C1269.92 59.96 1282.3 67.9946 1283.84 69.8112C1285.75 72.082 1295.02 86.9226 1296.29 88.4365C1297.32 89.6475 1303.23 105.888 1306.07 113.857L1299.16 137.151C1298.69 138.794 1298.45 145.52 1298.39 146.217C1298.33 146.915 1297.93 153.059 1292.48 156.199C1281.85 162.798 1274.42 166.166 1262.85 174.093C1261.11 176.347 1253.88 179.033 1251.17 180.041L1251.11 180.063C1251.37 178.936 1252.02 174.192 1252.53 173.211C1253.51 171.717 1253.73 170.776 1254.28 169.146L1255.22 166.416C1255.49 164.181 1254.59 162.615 1254.36 160.021C1253.55 157.038 1253.55 156.827 1249.95 154.025C1247.98 152.811 1247.64 151.077 1247.58 148.905C1247.63 145.904 1247.44 146.309 1246.66 143.207C1244.99 142.924 1243.77 142.792 1240.39 142.671C1228.54 143.121 1223.96 141.812 1220 134.609C1219.81 132.153 1220 130.996 1220.48 129.03C1220.91 127.659 1219.84 127.313 1217.86 126.699C1215.89 126.086 1216.13 124.033 1216.95 121.001C1214.84 121.4 1212.86 117.897 1214.57 115.881C1217.52 113.363 1217.69 111.884 1217.84 110.567L1217.84 110.54C1214.87 109.13 1212.51 107.008 1212.62 105.88C1212.83 103.921 1213.25 103.06 1214.37 101.815Z" fill="#F5DBD5"/>
<path id="shirt-body" d="M1340.34 239.012C1340.65 236.124 1331.64 201.039 1331.64 201.039C1327.97 184.1 1320.62 175.744 1308.05 161.467C1294.86 168.215 1288.13 173.083 1276.85 182.963C1271.78 187.868 1269.57 189.508 1265.78 192.318L1265.5 192.531C1264.66 189.024 1264.2 187.028 1263.48 183.227C1261.2 173.949 1260.24 172.724 1258.73 172.987C1258.5 173.139 1258.33 173.24 1258.23 173.294C1253.81 177.152 1251.58 179.508 1247.96 184.01L1248.51 169.305L1247.1 169.907L1244.6 173.94L1235.57 189.274L1228.44 206.93L1219.19 241.263L1215.64 251.497C1215.64 251.497 1218.26 261.749 1219.91 267.367C1220.04 270.017 1219.55 271.836 1217.8 275.617L1224.65 267.772L1236.43 253.272L1247.56 238.065L1256.82 228.319L1263.5 219.055C1263.5 219.055 1268.21 201.895 1271.41 197.251C1274.62 192.608 1282.85 189.964 1284.74 189.257C1286.63 188.55 1295.42 186.136 1296.95 186.085C1304.27 186.667 1306.72 186.918 1310.72 189.367C1314.73 191.817 1318.38 198.45 1320.17 202.116C1321.97 205.781 1324.92 212.355 1324.2 220.724C1323.49 229.093 1318.77 235.012 1318.77 235.012L1307.76 248.824C1299.93 259.71 1295.41 265.714 1286.48 275.809C1275.07 288.282 1262.19 305.346 1259.16 307.897C1256.13 310.449 1248.78 311.825 1247.87 316.768C1247.87 316.768 1244.66 321.411 1241.81 321.871C1238.96 322.33 1231.86 323.18 1231.86 323.18L1219.79 324.716L1262.25 339.121L1287.01 370.036C1302.11 357.917 1308.39 347.948 1305.92 329.502C1316.61 315.812 1319.37 305.974 1323.51 291.217L1323.51 291.214C1324.03 289.384 1324.56 287.479 1325.13 285.482C1328.88 269.822 1334.31 255.538 1337.57 246.971C1339.17 242.782 1340.24 239.96 1340.34 239.012Z" fill="#FAFAFA"/>
<g id="shirt-body_2">
<path d="M1197.32 285.108C1210.88 291.793 1210.58 298.17 1207.09 310.528L1209.68 321.287L1219.79 324.716L1231.86 323.18C1231.86 323.18 1238.96 322.33 1241.81 321.87C1244.66 321.411 1247.87 316.768 1247.87 316.768C1248.78 311.825 1256.13 310.449 1259.16 307.897C1262.19 305.346 1275.07 288.282 1286.48 275.809C1295.41 265.713 1299.93 259.71 1307.75 248.823L1318.77 235.012C1318.77 235.012 1323.49 229.092 1324.2 220.724C1324.92 212.355 1321.97 205.781 1320.17 202.116C1318.38 198.45 1314.73 191.816 1310.72 189.367C1306.72 186.918 1304.27 186.667 1296.95 186.084C1295.42 186.136 1286.63 188.55 1284.74 189.257C1282.85 189.964 1274.62 192.607 1271.41 197.251C1268.21 201.895 1263.5 219.054 1263.5 219.054L1256.82 228.319L1247.56 238.065L1236.43 253.272L1224.65 267.772L1217.8 275.616C1214.81 275.991 1209.8 278.607 1203.28 282.018C1201.41 282.994 1199.42 284.035 1197.32 285.108Z" fill="white"/>
</g>
<path id="shirt-under-collar" d="M1251.34 177.274L1247.96 184.009L1276.47 170.989L1259.49 172.349L1251.34 177.274Z" fill="#FBFBFB"/>
<path id="shirt-left-collar" fill-rule="evenodd" clip-rule="evenodd" d="M1296.17 148.084L1299.03 146.923C1301.16 146.389 1302.34 145.966 1304.2 143.904L1306.3 144.083C1307.05 148.683 1307.02 151.545 1306.99 155.016C1306.98 156.582 1306.96 158.272 1307.02 160.301L1308.05 161.466C1294.86 168.215 1288.13 173.083 1276.85 182.963C1271.78 187.867 1269.57 189.508 1265.78 192.318L1265.5 192.531C1264.66 189.024 1264.2 187.028 1263.48 183.227C1261.2 173.949 1260.24 172.723 1258.73 172.987L1258.23 173.294C1256.34 174.267 1274.95 159.991 1296.17 148.084Z" fill="white"/>
<path id="camera-strip" d="M1112.17 281.556C1113.08 281.098 1113.98 280.847 1114.85 280.908L1115 278.813C1113.62 278.717 1112.34 279.121 1111.23 279.678C1110.12 280.232 1109.1 280.973 1108.25 281.613C1106.58 282.858 1104.45 284.56 1103.42 286.784L1105.32 287.667C1106.1 285.985 1107.8 284.564 1109.5 283.296C1110.36 282.653 1111.24 282.018 1112.17 281.556Z" fill="#D0CBEB"/>
<path id="left-arm" d="M1058.28 284.479C1060.03 286.871 1066.3 288.524 1070.02 286.885C1072.27 286.267 1073.48 286.51 1075.6 287.362C1077.78 290.566 1076.42 292.141 1074.94 295.033C1072.44 296.798 1071.01 297.761 1067.61 298.622C1061.79 299.166 1059.1 298.601 1054.36 297.491C1050.32 295.54 1049.25 294.152 1048.56 291.376C1047.41 287.676 1048.16 287.076 1047.06 283.47C1045.63 286.154 1045.4 286.858 1045.08 291.078C1044.61 294.726 1044.68 296.29 1045.93 297.474C1047.24 300.179 1047.48 301.362 1047.55 303.231C1047.07 307.273 1048.28 308.666 1051.26 309.168C1055.56 312.34 1058.12 313.332 1062.7 315.061L1206.94 318.894L1218.59 315.724C1218.91 310.322 1218.74 307.258 1217.69 301.598C1214.53 297.685 1213.55 296.313 1212.01 294.088C1208 288.01 1205.19 285.844 1198.71 285.227C1189.83 285.803 1182.52 286.659 1168.95 288.305C1157.35 288.91 1151.21 288.988 1140.81 288.714C1129.37 289.346 1119.52 287.151 1115.01 286.511C1110.5 285.871 1107.28 286.554 1102.58 284.045C1097.87 281.536 1098.69 280.201 1095.96 279.265C1093.23 278.33 1083.41 278.194 1083.41 278.194C1078.43 278.35 1075.25 277.934 1069.46 277.003C1064.7 277.834 1062.1 278.414 1057.94 280.235C1056.46 282.077 1056.64 282.995 1058.28 284.479Z" fill="#F8E0DB"/>
<path id="camera-strip_2" d="M1114.85 280.908C1115.11 280.926 1115.26 280.958 1115.36 280.998C1115.44 281.031 1115.52 281.08 1115.62 281.198C1116.1 281.783 1116.27 282.725 1116.09 283.615C1115.82 284.951 1115.29 286.262 1114.72 287.628C1113.99 289.403 1113.22 291.147 1112.27 292.733C1111.81 293.512 1111.24 294.223 1110.59 294.843L1112.04 296.361C1112.83 295.608 1113.51 294.748 1114.07 293.812C1115.11 292.085 1115.92 290.219 1116.66 288.434C1117.23 287.083 1117.83 285.593 1118.15 284.028C1118.41 282.709 1118.23 281.069 1117.24 279.866C1116.57 279.045 1115.74 278.865 1115 278.813L1114.85 280.908Z" fill="#D0CBEB"/>
<path id="right-leg" d="M1287.25 334.231C1278.14 321.95 1254.87 309.538 1253.47 310.273C1252.07 311.008 1250.46 311.14 1249.05 312.705C1247.64 315.124 1246.54 317.408 1245.03 318.684C1243.52 319.96 1243.12 320.266 1236.48 320.062C1234.61 320.205 1233.54 320.276 1231.54 320.343C1228.49 321.159 1227.54 320.964 1226.66 319.926C1225.07 320.924 1224.06 321.443 1222.24 322.358C1220.03 323.725 1218.98 323.434 1217.41 321.244C1216.72 320.451 1216.3 319.943 1215.5 318.973C1208.68 318.345 1204.91 317.471 1198.24 315.393C1184.27 310.993 1176.31 308.401 1160.72 302.355C1151.6 294.854 1146.92 295.149 1138.7 296.963L1138.35 296.854C1131.67 294.788 1127.82 293.596 1117.96 293.085C1107.86 293.297 1102.23 294.225 1092.48 303.555C1067.16 313.581 1049.65 320.882 1032.91 326.568C1024.41 326.761 1010.92 330.107 988.604 335.43C982.723 334.651 979.448 335.034 973.661 337.667C966.329 338.969 963.699 338.923 958.838 338.509C950.694 351.167 951.219 359.985 955.563 376.865C957.117 382.08 960.19 388.5 965.65 390.371C971.11 392.242 976.273 392.457 976.468 387.08C979.483 385.801 981.216 385.325 984.377 384.945C991.261 385.799 997.257 384.664 1006.99 383.363C1061.16 372.835 1066.82 373.544 1072.82 369.313L1072.97 369.314C1081.53 369.38 1084.84 369.405 1098.58 363.785C1099.47 363.712 1099.9 363.801 1100.63 363.955L1100.67 363.963C1106.83 365.834 1107.54 365.524 1111.77 365.613C1142.98 373.527 1162.94 373.746 1188.21 391.808C1212.68 400.91 1226.71 403.689 1252.71 401.528C1256.05 401.706 1258.88 400.167 1260.62 399.394C1266.24 397.918 1271.69 394.78 1273.35 388.538C1274.51 384.764 1276.49 381.993 1278.44 379.841C1284.52 377.699 1286.12 374.57 1286.61 366.489C1290.34 356.234 1293.48 351.198 1287.25 334.231Z" fill="#3A3A3A"/>
<path id="Vector 21" d="M962.146 340.899L949.474 341.222L945.8 376.032L965.446 376.304C969.281 373.185 969.346 369.921 969.307 363.989C967.5 350.784 965.525 347.449 962.146 340.899Z" fill="#F5DBD5"/>
<path id="Vector 2" d="M1278.43 124.845C1278.52 117.631 1278.65 113.653 1279.92 107.41L1269.72 95.2998C1272.04 91.5518 1269.77 96.4729 1264.66 96.9752C1259.54 97.4775 1259.06 104.927 1258.19 106.96C1257.31 108.992 1256.04 108.362 1255.4 106.722C1255.64 106.885 1253.3 95.4734 1251.7 92.3572C1250.11 89.241 1253.74 84.5871 1247.89 79.3875C1245.55 76.834 1245.58 74.5743 1247.33 69.5051C1246.57 64.6911 1245.3 62.7459 1238.74 63.1521C1231.51 65.495 1228.71 69.0369 1226.1 79.6343C1224.58 77.6711 1223.27 71.6355 1223.38 70.2706C1223.8 65.3889 1226.86 57.5358 1234 52.9124C1241.07 47.8311 1254.91 37.1853 1278.78 38.4714C1286.66 39.3293 1294.6 37.1559 1309.88 57.8293C1310.49 58.6535 1310.11 59.7981 1311.29 60.9152C1318.59 67.8935 1322.39 72.3279 1325.19 87.3903C1326.17 92.6887 1325.9 103.187 1319.56 112.198C1317.55 115.918 1316.69 117.462 1313.26 120.091C1310.35 121.564 1308.78 123.199 1307.15 125.891C1305.17 131.56 1303.13 134.172 1299.04 138.546C1294.98 141.602 1291.58 139.979 1286.49 137.474C1283.5 134.161 1279.5 129.155 1278.43 124.845Z" fill="#565656"/>
<path id="Vector 4" d="M1262.82 85.5789C1248.23 84.1422 1239.98 83.5486 1225.1 83.0616C1223.68 82.8034 1222.89 82.9687 1221.5 84.1587C1220.6 91.5006 1221 98.166 1222.28 99.6798C1223.55 101.194 1224.43 99.161 1224.85 94.2793C1225.26 89.3976 1224.86 85.8512 1224.86 85.8512L1247.18 87.7562C1248.69 87.0498 1249.47 86.6443 1251.54 86.0212C1256.16 86.203 1260.67 86.0977 1263.4 87.0332C1266.13 87.9687 1269.02 90.3846 1272.75 92.7483L1274.2 92.17L1272.92 90.6562C1268.85 88.0104 1266.3 85.9218 1262.82 85.5789Z" fill="#454545"/>
<path id="Vector 3" d="M1265.26 114.588C1264.08 114.085 1263.72 113.34 1264.22 110.285C1264.58 107.544 1265.27 105.651 1268.54 100.819C1269.17 98.7116 1269.54 97.3919 1269.72 95.2997C1269.9 93.2076 1276.07 86.71 1279.9 91.2515C1283.72 95.793 1282.75 99.699 1280.74 106.075C1278.46 110.498 1276.19 112.479 1272.29 114.486C1269.49 115.512 1267.97 115.14 1265.26 114.588Z" fill="#F8E0DB"/>
<path id="Vector 5" d="M1223.04 99.0421C1224.92 98.5094 1224.28 83.5033 1223.65 83.6401C1223.02 83.7769 1222.71 83.9184 1222.19 84.2184C1221.55 84.5887 1221.16 99.5749 1223.04 99.0421Z" fill="#D9D9D9"/>
<path id="Vector 16" d="M1108.69 393.449C1108.69 393.449 1105.15 396.589 1100.48 399.071C1095.81 401.553 1094.37 404.645 1090.98 411.607C1090.25 416.293 1089.05 420.713 1091.94 425.036C1094.44 428.761 1094.15 427.448 1097.57 433.243C1100.8 437.792 1102.67 440.314 1109.35 443.38C1116.51 444.629 1119.1 444.001 1124.11 443.236C1128.63 441.391 1139.66 433.244 1141.34 430.657C1143.3 427.638 1151.58 423.798 1158.15 422.96C1165.25 418.91 1168.48 416.299 1172.54 410.841C1175.66 405.54 1177.23 402.504 1181.4 397.548C1185.89 393.739 1187.13 392.193 1186.87 390.991C1186.66 384.727 1186.46 381.409 1184.28 380.233C1180.59 379.75 1178.32 379.244 1173.94 377.945C1163.87 371.46 1160.09 368.374 1139.74 358.869C1135.9 358.57 1133.88 358.327 1127.77 359.252C1123.08 360.704 1120.44 361.524 1114.56 365.852L1112.87 369.219C1109.41 372.216 1107.68 374.006 1107.15 378.566C1106.59 383.711 1106.67 386.82 1108.69 393.449Z" fill="#303030"/>
</g>
<g id="blink" filter="url(#filter9_d_0_1)">
<path d="M1067.67 105.562C1070.66 105.528 1071.4 106.493 1072.46 108.497L1093.48 151.906C1094.3 154.309 1093.69 155.123 1091.73 155.971L1078.79 156.974C1076.22 156.732 1075.03 156.359 1073.94 154.666L1053.15 110.577C1052.43 108.026 1053.2 107.181 1056.02 106.401L1067.67 105.562Z" fill="#79F7FF"/>
</g>
</g>
</g>
<defs>
<filter id="filter0_d_0_1" x="100.4" y="45.4" width="47.2" height="66.2" filterUnits="userSpaceOnUse" color-interpolation-filters="sRGB">
<feFlood flood-opacity="0" result="BackgroundImageFix"/>
<feColorMatrix in="SourceAlpha" type="matrix" values="0 0 0 0 0 0 0 0 0 0 0 0 0 0 0 0 0 0 127 0" result="hardAlpha"/>
<feOffset/>
<feGaussianBlur stdDeviation="6.3"/>
<feComposite in2="hardAlpha" operator="out"/>
<feColorMatrix type="matrix" values="0 0 0 0 1 0 0 0 0 0.882353 0 0 0 0 0.658824 0 0 0 0.27 0"/>
<feBlend mode="normal" in2="BackgroundImageFix" result="effect1_dropShadow_0_1"/>
<feBlend mode="normal" in="SourceGraphic" in2="effect1_dropShadow_0_1" result="shape"/>
</filter>
<filter id="filter1_d_0_1" x="205.4" y="45.4" width="47.2" height="66.2" filterUnits="userSpaceOnUse" color-interpolation-filters="sRGB">
<feFlood flood-opacity="0" result="BackgroundImageFix"/>
<feColorMatrix in="SourceAlpha" type="matrix" values="0 0 0 0 0 0 0 0 0 0 0 0 0 0 0 0 0 0 127 0" result="hardAlpha"/>
<feOffset/>
<feGaussianBlur stdDeviation="6.3"/>
<feComposite in2="hardAlpha" operator="out"/>
<feColorMatrix type="matrix" values="0 0 0 0 1 0 0 0 0 0.882353 0 0 0 0 0.658824 0 0 0 0.27 0"/>
<feBlend mode="normal" in2="BackgroundImageFix" result="effect1_dropShadow_0_1"/>
<feBlend mode="normal" in="SourceGraphic" in2="effect1_dropShadow_0_1" result="shape"/>
</filter>
<filter id="filter2_d_0_1" x="258.4" y="45.4" width="47.2" height="66.2" filterUnits="userSpaceOnUse" color-interpolation-filters="sRGB">
<feFlood flood-opacity="0" result="BackgroundImageFix"/>
<feColorMatrix in="SourceAlpha" type="matrix" values="0 0 0 0 0 0 0 0 0 0 0 0 0 0 0 0 0 0 127 0" result="hardAlpha"/>
<feOffset/>
<feGaussianBlur stdDeviation="6.3"/>
<feComposite in2="hardAlpha" operator="out"/>
<feColorMatrix type="matrix" values="0 0 0 0 1 0 0 0 0 0.882353 0 0 0 0 0.658824 0 0 0 0.27 0"/>
<feBlend mode="normal" in2="BackgroundImageFix" result="effect1_dropShadow_0_1"/>
<feBlend mode="normal" in="SourceGraphic" in2="effect1_dropShadow_0_1" result="shape"/>
</filter>
<filter id="filter3_d_0_1" x="100.4" y="104.4" width="47.2" height="66.2" filterUnits="userSpaceOnUse" color-interpolation-filters="sRGB">
<feFlood flood-opacity="0" result="BackgroundImageFix"/>
<feColorMatrix in="SourceAlpha" type="matrix" values="0 0 0 0 0 0 0 0 0 0 0 0 0 0 0 0 0 0 127 0" result="hardAlpha"/>
<feOffset/>
<feGaussianBlur stdDeviation="6.3"/>
<feComposite in2="hardAlpha" operator="out"/>
<feColorMatrix type="matrix" values="0 0 0 0 1 0 0 0 0 0.882353 0 0 0 0 0.658824 0 0 0 0.27 0"/>
<feBlend mode="normal" in2="BackgroundImageFix" result="effect1_dropShadow_0_1"/>
<feBlend mode="normal" in="SourceGraphic" in2="effect1_dropShadow_0_1" result="shape"/>
</filter>
<filter id="filter4_d_0_1" x="153.4" y="104.4" width="47.2" height="66.2" filterUnits="userSpaceOnUse" color-interpolation-filters="sRGB">
<feFlood flood-opacity="0" result="BackgroundImageFix"/>
<feColorMatrix in="SourceAlpha" type="matrix" values="0 0 0 0 0 0 0 0 0 0 0 0 0 0 0 0 0 0 127 0" result="hardAlpha"/>
<feOffset/>
<feGaussianBlur stdDeviation="6.3"/>
<feComposite in2="hardAlpha" operator="out"/>
<feColorMatrix type="matrix" values="0 0 0 0 1 0 0 0 0 0.882353 0 0 0 0 0.658824 0 0 0 0.27 0"/>
<feBlend mode="normal" in2="BackgroundImageFix" result="effect1_dropShadow_0_1"/>
<feBlend mode="normal" in="SourceGraphic" in2="effect1_dropShadow_0_1" result="shape"/>
</filter>
<filter id="filter5_d_0_1" x="973" y="108" width="13" height="13" filterUnits="userSpaceOnUse" color-interpolation-filters="sRGB">
<feFlood flood-opacity="0" result="BackgroundImageFix"/>
<feColorMatrix in="SourceAlpha" type="matrix" values="0 0 0 0 0 0 0 0 0 0 0 0 0 0 0 0 0 0 127 0" result="hardAlpha"/>
<feOffset/>
<feGaussianBlur stdDeviation="2"/>
<feComposite in2="hardAlpha" operator="out"/>
<feColorMatrix type="matrix" values="0 0 0 0 1 0 0 0 0 0 0 0 0 0 0 0 0 0 0.95 0"/>
<feBlend mode="normal" in2="BackgroundImageFix" result="effect1_dropShadow_0_1"/>
<feBlend mode="normal" in="SourceGraphic" in2="effect1_dropShadow_0_1" result="shape"/>
</filter>
<filter id="filter6_d_0_1" x="-11" y="134" width="252" height="277" filterUnits="userSpaceOnUse" color-interpolation-filters="sRGB">
<feFlood flood-opacity="0" result="BackgroundImageFix"/>
<feColorMatrix in="SourceAlpha" type="matrix" values="0 0 0 0 0 0 0 0 0 0 0 0 0 0 0 0 0 0 127 0" result="hardAlpha"/>
<feOffset/>
<feGaussianBlur stdDeviation="5.5"/>
<feComposite in2="hardAlpha" operator="out"/>
<feColorMatrix type="matrix" values="0 0 0 0 1 0 0 0 0 0.94902 0 0 0 0 0.560784 0 0 0 0.37 0"/>
<feBlend mode="normal" in2="BackgroundImageFix" result="effect1_dropShadow_0_1"/>
<feBlend mode="normal" in="SourceGraphic" in2="effect1_dropShadow_0_1" result="shape"/>
</filter>
<filter id="filter7_d_0_1" x="6.4" y="106.634" width="217.2" height="48.9664" filterUnits="userSpaceOnUse" color-interpolation-filters="sRGB">
<feFlood flood-opacity="0" result="BackgroundImageFix"/>
<feColorMatrix in="SourceAlpha" type="matrix" values="0 0 0 0 0 0 0 0 0 0 0 0 0 0 0 0 0 0 127 0" result="hardAlpha"/>
<feOffset/>
<feGaussianBlur stdDeviation="3.3"/>
<feComposite in2="hardAlpha" operator="out"/>
<feColorMatrix type="matrix" values="0 0 0 0 1 0 0 0 0 0.933333 0 0 0 0 0.505882 0 0 0 1 0"/>
<feBlend mode="normal" in2="BackgroundImageFix" result="effect1_dropShadow_0_1"/>
<feBlend mode="normal" in="SourceGraphic" in2="effect1_dropShadow_0_1" result="shape"/>
</filter>
<filter id="filter8_d_0_1" x="840.705" y="38.3645" width="503.644" height="413.725" filterUnits="userSpaceOnUse" color-interpolation-filters="sRGB">
<feFlood flood-opacity="0" result="BackgroundImageFix"/>
<feColorMatrix in="SourceAlpha" type="matrix" values="0 0 0 0 0 0 0 0 0 0 0 0 0 0 0 0 0 0 127 0" result="hardAlpha"/>
<feOffset dy="4"/>
<feGaussianBlur stdDeviation="2"/>
<feComposite in2="hardAlpha" operator="out"/>
<feColorMatrix type="matrix" values="0 0 0 0 0 0 0 0 0 0 0 0 0 0 0 0 0 0 0.25 0"/>
<feBlend mode="normal" in2="BackgroundImageFix" result="effect1_dropShadow_0_1"/>
<feBlend mode="normal" in="SourceGraphic" in2="effect1_dropShadow_0_1" result="shape"/>
</filter>
<filter id="filter9_d_0_1" x="1023.89" y="76.5615" width="98.9406" height="109.412" filterUnits="userSpaceOnUse" color-interpolation-filters="sRGB">
<feFlood flood-opacity="0" result="BackgroundImageFix"/>
<feColorMatrix in="SourceAlpha" type="matrix" values="0 0 0 0 0 0 0 0 0 0 0 0 0 0 0 0 0 0 127 0" result="hardAlpha"/>
<feOffset/>
<feGaussianBlur stdDeviation="14.5"/>
<feComposite in2="hardAlpha" operator="out"/>
<feColorMatrix type="matrix" values="0 0 0 0 0 0 0 0 0 1 0 0 0 0 1 0 0 0 0.5 0"/>
<feBlend mode="normal" in2="BackgroundImageFix" result="effect1_dropShadow_0_1"/>
<feBlend mode="normal" in="SourceGraphic" in2="effect1_dropShadow_0_1" result="shape"/>
</filter>
</defs>
</svg>
