<svg width="1400" height="465" viewBox="0 0 1400 465" fill="none" xmlns="http://www.w3.org/2000/svg">
    <style>
        @keyframes blink {
            0%, 4% { opacity: 0%; }
            2%, 6%, 100% { opacity: 100%; }
        }

        @keyframes float-reverse {
            0%, 100% { transform: translateY(-1%); }
            50% { transform: translateY(1%); }
        }

        @keyframes float {
            0%, 100% { transform: translateY(1%); }
            50% { transform: translateY(-1%); }
        }
        
        @keyframes float2 {
            0%, 100% { transform: translateY(1.2%); }
            50% { transform: translateY(-0.8%); }
        }

        @keyframes spin {
            0% { transform: rotate(0deg); }
            100% { transform: rotate(360deg); }
        }

        #blink {
            animation: blink 3s infinite;
        }

        #mink {
            animation: float 3s infinite;
        }

        #circle1 {
            animation: float-reverse 2.5s infinite;
        }

        #circle2 {
            animation: float 3.5s infinite;
        }

        #right {
            animation: float2 3.5s infinite;
        }
    </style>
    <g id="banner">
        <g id="Group 8">
            <mask id="mask0_102_2" style="mask-type:alpha" maskUnits="userSpaceOnUse" x="0" y="56" width="1400"
                height="307">
                <g id="Vector">
                    <path d="M0 56H3.143H86.8731H1075.74H1147.01H1400V363H616.921H605.721H339.186H328H0V56Z"
                        fill="#D9D9D9" />
                    <path d="M0 56H3.143H86.8731H1075.74H1147.01H1400V363H616.921H605.721H339.186H328H0V56Z"
                        fill="url(#paint0_linear_102_2)" />
                    <path fill-rule="evenodd" clip-rule="evenodd" d="M86.8731 56L339.186 363H328L3.143 56H86.8731Z"
                        fill="#C79AE2" />
                    <path fill-rule="evenodd" clip-rule="evenodd"
                        d="M605.721 363H616.921L1147.01 56H1075.74L605.721 363Z" fill="#C79AE2" />
                </g>
            </mask>
            <g mask="url(#mask0_102_2)">
                <g id="Vector_2">
                    <path d="M0 56H3.143H86.8731H1075.74H1147.01H1400V363H616.921H605.721H339.186H328H0V56Z"
                        fill="#D9D9D9" />
                    <path d="M0 56H3.143H86.8731H1075.74H1147.01H1400V363H616.921H605.721H339.186H328H0V56Z"
                        fill="url(#paint1_linear_102_2)" />
                    <path fill-rule="evenodd" clip-rule="evenodd" d="M86.8731 56L339.186 363H328L3.143 56H86.8731Z"
                        fill="#C79AE2" />
                    <path fill-rule="evenodd" clip-rule="evenodd"
                        d="M605.721 363H616.921L1147.01 56H1075.74L605.721 363Z" fill="#C79AE2" />
                </g>
                <circle id="Ellipse 8" opacity="0.5" cx="484" cy="208" r="337" fill="url(#paint2_radial_102_2)" />
                <path id="spin_1" fill-rule="evenodd" clip-rule="evenodd"
                    d="M602 367.848L613.915 368.033L1182.79 58.9318L1106.96 57.7557L602 367.848Z" fill="#D7AFEF" />
                <path id="spin_2" fill-rule="evenodd" clip-rule="evenodd"
                    d="M58.8471 51.3485L335.161 362.55L323.692 363.172L-27 56L58.8471 51.3485Z" fill="#D7AFEF" />
                <g id="ZYXMA" filter="url(#filter0_d_102_2)">
                    <path
                        d="M297.875 249.75L288.375 242.125L335.125 168.875L344.625 177.125L297.875 249.75ZM288.375 254V242.125H345.875V254H288.375ZM288.375 177.125V165.25H344.625V177.125H288.375ZM395.147 224.375L364.522 165.25H378.272L399.897 209.625H401.022L422.647 165.25H436.397L405.772 224.375H395.147ZM394.21 254V210.25H406.71V254H394.21ZM503.482 254L480.732 214.25L450.982 165.25H465.357L488.982 207.375L517.857 254H503.482ZM450.982 254L479.857 207.375L503.482 165.25H517.857L488.107 214.25L465.357 254H450.982ZM566.255 217.75L568.13 203.375H568.88L579.005 165.25H587.88V181H584.255L574.13 217.75H566.255ZM538.88 254V165.25H550.88V254H538.88ZM562.63 217.75L552.505 181H548.88V165.25H557.755L567.88 203.375H568.38L569.63 217.75H562.63ZM585.88 254V165.25H597.88V254H585.88ZM617.652 254L643.277 165.25H661.402L687.027 254H673.902L652.902 176H651.777L630.777 254H617.652ZM629.527 232.375V220.5H674.527V232.375H629.527Z"
                        fill="white" />
                </g>
                <path id="SITTHA&#226;&#128;&#162;MANITTAYAKUL"
                    d="M413.229 147.117C412.756 147.117 412.312 147.078 411.898 147C411.488 146.926 411.107 146.812 410.756 146.66L410.908 145.477C411.338 145.66 411.752 145.801 412.15 145.898C412.553 145.992 412.943 146.039 413.322 146.039C413.869 146.039 414.275 145.943 414.541 145.752C414.807 145.561 414.939 145.27 414.939 144.879C414.939 144.383 414.686 144.02 414.178 143.789L412.736 143.133C412.17 142.875 411.734 142.564 411.43 142.201C411.129 141.838 410.979 141.387 410.979 140.848C410.979 140.121 411.197 139.559 411.635 139.16C412.072 138.762 412.691 138.562 413.492 138.562C414.051 138.562 414.545 138.645 414.975 138.809C415.404 138.973 415.818 139.24 416.217 139.611L415.396 140.443C415.053 140.162 414.73 139.959 414.43 139.834C414.133 139.705 413.822 139.641 413.498 139.641C413.096 139.641 412.783 139.738 412.561 139.934C412.342 140.125 412.232 140.41 412.232 140.789C412.232 141.059 412.305 141.279 412.449 141.451C412.594 141.619 412.807 141.77 413.088 141.902L414.307 142.477C414.924 142.766 415.393 143.092 415.713 143.455C416.033 143.818 416.193 144.285 416.193 144.855C416.193 145.609 415.947 146.176 415.455 146.555C414.967 146.93 414.225 147.117 413.229 147.117ZM420.795 147V138.68H421.967V147H420.795ZM418.856 147V145.887H423.918V147H418.856ZM418.856 139.793V138.68H423.918V139.793H418.856ZM428.672 147V138.68H429.844V147H428.672ZM426.211 139.793V138.68H432.305V139.793H426.211ZM436.543 147V138.68H437.715V147H436.543ZM434.083 139.793V138.68H440.176V139.793H434.083ZM446.524 147V138.68H447.696V147H446.524ZM442.305 147V138.68H443.477V147H442.305ZM442.551 143.414V142.301H447.479V143.414H442.551ZM449.62 147L452.022 138.68H453.721L456.124 147H454.893L452.925 139.688H452.819L450.85 147H449.62ZM450.733 144.973V143.859H454.952V144.973H450.733ZM460.743 144.574C460.423 144.574 460.132 144.496 459.87 144.34C459.608 144.184 459.399 143.975 459.243 143.713C459.087 143.451 459.009 143.16 459.009 142.84C459.009 142.52 459.087 142.229 459.243 141.967C459.399 141.705 459.608 141.496 459.87 141.34C460.132 141.184 460.423 141.105 460.743 141.105C461.063 141.105 461.354 141.184 461.616 141.34C461.878 141.496 462.087 141.705 462.243 141.967C462.399 142.229 462.478 142.52 462.478 142.84C462.478 143.16 462.399 143.451 462.243 143.713C462.087 143.975 461.878 144.184 461.616 144.34C461.354 144.496 461.063 144.574 460.743 144.574ZM468.415 143.602L468.591 142.254H468.661L469.61 138.68H470.443V140.156H470.103L469.153 143.602H468.415ZM465.849 147V138.68H466.974V147H465.849ZM468.075 143.602L467.126 140.156H466.786V138.68H467.618L468.568 142.254H468.614L468.732 143.602H468.075ZM470.255 147V138.68H471.38V147H470.255ZM473.234 147L475.636 138.68H477.335L479.738 147H478.507L476.538 139.688H476.433L474.464 147H473.234ZM474.347 144.973V143.859H478.566V144.973H474.347ZM485.529 147L482.951 140.672H482.412V138.68H483.185L485.763 145.008H486.056V147H485.529ZM481.708 147V138.68H482.833V147H481.708ZM485.88 147V138.68H487.005V147H485.88ZM491.636 147V138.68H492.808V147H491.636ZM489.697 147V145.887H494.759V147H489.697ZM489.697 139.793V138.68H494.759V139.793H489.697ZM499.513 147V138.68H500.685V147H499.513ZM497.052 139.793V138.68H503.146V139.793H497.052ZM507.385 147V138.68H508.557V147H507.385ZM504.924 139.793V138.68H511.018V139.793H504.924ZM512.59 147L514.992 138.68H516.691L519.094 147H517.863L515.895 139.688H515.789L513.82 147H512.59ZM513.703 144.973V143.859H517.922V144.973H513.703ZM523.215 144.223L520.344 138.68H521.633L523.66 142.84H523.766L525.793 138.68H527.082L524.211 144.223H523.215ZM523.127 147V142.898H524.299V147H523.127ZM528.332 147L530.735 138.68H532.434L534.836 147H533.606L531.637 139.688H531.532L529.563 147H528.332ZM529.446 144.973V143.859H533.664V144.973H529.446ZM537.557 144.352L537.663 143.191C538.264 143.191 538.784 143.066 539.221 142.816C539.659 142.562 540.018 142.223 540.299 141.797C540.585 141.367 540.795 140.885 540.932 140.35C541.073 139.811 541.143 139.254 541.143 138.68H542.35C542.35 139.418 542.243 140.127 542.028 140.807C541.813 141.486 541.501 142.094 541.09 142.629C540.68 143.16 540.178 143.58 539.585 143.889C538.991 144.197 538.315 144.352 537.557 144.352ZM536.819 147V138.68H537.991V147H536.819ZM541.331 147L539.221 142.945L540.276 142.348L542.749 147H541.331ZM547.303 147.117C545.522 147.117 544.632 146.188 544.632 144.328V138.68H545.803V144.328C545.803 144.883 545.925 145.301 546.167 145.582C546.413 145.863 546.8 146.004 547.327 146.004C548.342 146.004 548.85 145.445 548.85 144.328V138.68H550.022V144.328C550.022 145.258 549.792 145.955 549.331 146.42C548.87 146.885 548.194 147.117 547.303 147.117ZM552.62 147V138.68H553.792V147H552.62ZM552.62 147V145.887H558.128V147H552.62Z"
                    fill="white" />
                <g id="FULL&#226;&#128;&#162;STACK DEVELOPER IS MY GOAL">
                    <path
                        d="M363.055 282V273.68H364.227V282H363.055ZM363.055 278.742V277.629H367.508V278.742H363.055ZM363.055 274.793V273.68H368.562V274.793H363.055ZM373.363 282.117C371.582 282.117 370.692 281.188 370.692 279.328V273.68H371.863V279.328C371.863 279.883 371.985 280.301 372.227 280.582C372.473 280.863 372.86 281.004 373.387 281.004C374.403 281.004 374.91 280.445 374.91 279.328V273.68H376.082V279.328C376.082 280.258 375.852 280.955 375.391 281.42C374.93 281.885 374.254 282.117 373.363 282.117ZM378.68 282V273.68H379.852V282H378.68ZM378.68 282V280.887H384.188V282H378.68ZM386.551 282V273.68H387.723V282H386.551ZM386.551 282V280.887H392.059V282H386.551ZM397.001 279.574C396.68 279.574 396.389 279.496 396.128 279.34C395.866 279.184 395.657 278.975 395.501 278.713C395.344 278.451 395.266 278.16 395.266 277.84C395.266 277.52 395.344 277.229 395.501 276.967C395.657 276.705 395.866 276.496 396.128 276.34C396.389 276.184 396.68 276.105 397.001 276.105C397.321 276.105 397.612 276.184 397.874 276.34C398.135 276.496 398.344 276.705 398.501 276.967C398.657 277.229 398.735 277.52 398.735 277.84C398.735 278.16 398.657 278.451 398.501 278.713C398.344 278.975 398.135 279.184 397.874 279.34C397.612 279.496 397.321 279.574 397.001 279.574ZM404.585 282.117C404.112 282.117 403.669 282.078 403.255 282C402.845 281.926 402.464 281.812 402.112 281.66L402.264 280.477C402.694 280.66 403.108 280.801 403.507 280.898C403.909 280.992 404.3 281.039 404.679 281.039C405.225 281.039 405.632 280.943 405.897 280.752C406.163 280.561 406.296 280.27 406.296 279.879C406.296 279.383 406.042 279.02 405.534 278.789L404.093 278.133C403.526 277.875 403.091 277.564 402.786 277.201C402.485 276.838 402.335 276.387 402.335 275.848C402.335 275.121 402.554 274.559 402.991 274.16C403.429 273.762 404.048 273.562 404.848 273.562C405.407 273.562 405.901 273.645 406.331 273.809C406.761 273.973 407.175 274.24 407.573 274.611L406.753 275.443C406.409 275.162 406.087 274.959 405.786 274.834C405.489 274.705 405.179 274.641 404.854 274.641C404.452 274.641 404.139 274.738 403.917 274.934C403.698 275.125 403.589 275.41 403.589 275.789C403.589 276.059 403.661 276.279 403.805 276.451C403.95 276.619 404.163 276.77 404.444 276.902L405.663 277.477C406.28 277.766 406.749 278.092 407.069 278.455C407.389 278.818 407.55 279.285 407.55 279.855C407.55 280.609 407.304 281.176 406.811 281.555C406.323 281.93 405.581 282.117 404.585 282.117ZM412.157 282V273.68H413.329V282H412.157ZM409.696 274.793V273.68H415.79V274.793H409.696ZM417.362 282L419.765 273.68H421.464L423.866 282H422.636L420.667 274.688H420.562L418.593 282H417.362ZM418.476 279.973V278.859H422.694V279.973H418.476ZM429.353 282.117C426.767 282.117 425.474 280.688 425.474 277.828C425.474 276.473 425.8 275.424 426.452 274.682C427.105 273.936 428.025 273.562 429.212 273.562C429.786 273.562 430.286 273.654 430.712 273.838C431.138 274.018 431.449 274.275 431.644 274.611L430.777 275.473C430.601 275.207 430.376 275.002 430.103 274.857C429.833 274.713 429.54 274.641 429.224 274.641C428.47 274.641 427.865 274.912 427.408 275.455C426.954 275.998 426.728 276.77 426.728 277.77C426.728 279.949 427.669 281.039 429.552 281.039C430.118 281.039 430.677 280.922 431.228 280.688L431.497 281.719C430.818 281.984 430.103 282.117 429.353 282.117ZM434.458 279.352L434.564 278.191C435.165 278.191 435.685 278.066 436.122 277.816C436.56 277.562 436.919 277.223 437.201 276.797C437.486 276.367 437.697 275.885 437.833 275.35C437.974 274.811 438.044 274.254 438.044 273.68H439.251C439.251 274.418 439.144 275.127 438.929 275.807C438.714 276.486 438.402 277.094 437.992 277.629C437.581 278.16 437.08 278.58 436.486 278.889C435.892 279.197 435.216 279.352 434.458 279.352ZM433.72 282V273.68H434.892V282H433.72ZM438.232 282L436.122 277.945L437.177 277.348L439.65 282H438.232ZM450.494 282V280.887H451.42C452.275 280.887 452.918 280.643 453.347 280.154C453.781 279.666 453.998 278.934 453.998 277.957C453.998 276.898 453.781 276.107 453.347 275.584C452.918 275.057 452.275 274.793 451.42 274.793H450.517L450.377 273.68H451.42C453.959 273.68 455.228 275.105 455.228 277.957C455.228 280.652 453.959 282 451.42 282H450.494ZM449.404 282V273.68H450.576V282H449.404ZM457.393 282V273.68H458.564V282H457.393ZM457.393 282V280.887H462.9V282H457.393ZM457.393 278.391V277.277H461.846V278.391H457.393ZM457.393 274.793V273.68H462.9V274.793H457.393ZM466.934 282L464.59 273.68H465.844L467.789 281.004H467.895L469.84 273.68H471.094L468.75 282H466.934ZM473.135 282V273.68H474.307V282H473.135ZM473.135 282V280.887H478.643V282H473.135ZM473.135 278.391V277.277H477.588V278.391H473.135ZM473.135 274.793V273.68H478.643V274.793H473.135ZM481.006 282V273.68H482.178V282H481.006ZM481.006 282V280.887H486.514V282H481.006ZM491.456 282.117C489.409 282.117 488.385 280.711 488.385 277.898C488.385 275.008 489.409 273.562 491.456 273.562C493.503 273.562 494.526 275.008 494.526 277.898C494.526 280.711 493.503 282.117 491.456 282.117ZM491.456 281.039C492.682 281.039 493.295 279.992 493.295 277.898C493.295 275.727 492.682 274.641 491.456 274.641C490.229 274.641 489.616 275.727 489.616 277.898C489.616 279.992 490.229 281.039 491.456 281.039ZM497.78 279.422V278.309H499.198C499.839 278.309 500.323 278.15 500.651 277.834C500.979 277.514 501.143 277.047 501.143 276.434C501.143 275.895 500.979 275.486 500.651 275.209C500.323 274.932 499.839 274.793 499.198 274.793H497.803V273.68H499.198C500.241 273.68 501.03 273.912 501.565 274.377C502.104 274.842 502.374 275.527 502.374 276.434C502.374 277.414 502.104 278.158 501.565 278.666C501.03 279.17 500.241 279.422 499.198 279.422H497.78ZM496.749 282V273.68H497.921V282H496.749ZM504.62 282V273.68H505.792V282H504.62ZM504.62 282V280.887H510.128V282H504.62ZM504.62 278.391V277.277H509.073V278.391H504.62ZM504.62 274.793V273.68H510.128V274.793H504.62ZM513.464 278.836V277.723H515.233C515.698 277.723 516.06 277.6 516.317 277.354C516.579 277.107 516.71 276.762 516.71 276.316C516.71 275.828 516.579 275.453 516.317 275.191C516.06 274.926 515.698 274.793 515.233 274.793H513.487L513.347 273.68H515.233C516.097 273.68 516.763 273.898 517.231 274.336C517.704 274.773 517.94 275.395 517.94 276.199C517.94 277.035 517.704 277.684 517.231 278.145C516.763 278.605 516.097 278.836 515.233 278.836H513.464ZM512.374 282V273.68H513.546V282H512.374ZM516.839 282L514.976 278.086H516.265L518.245 282H516.839Z"
                        fill="white" />
                    <path
                        d="M530.22 282V273.68H531.392V282H530.22ZM528.281 282V280.887H533.343V282H528.281ZM528.281 274.793V273.68H533.343V274.793H528.281ZM538.396 282.117C537.923 282.117 537.48 282.078 537.066 282C536.656 281.926 536.275 281.812 535.923 281.66L536.076 280.477C536.505 280.66 536.919 280.801 537.318 280.898C537.72 280.992 538.111 281.039 538.49 281.039C539.037 281.039 539.443 280.943 539.709 280.752C539.974 280.561 540.107 280.27 540.107 279.879C540.107 279.383 539.853 279.02 539.345 278.789L537.904 278.133C537.337 277.875 536.902 277.564 536.597 277.201C536.296 276.838 536.146 276.387 536.146 275.848C536.146 275.121 536.365 274.559 536.802 274.16C537.24 273.762 537.859 273.562 538.66 273.562C539.218 273.562 539.712 273.645 540.142 273.809C540.572 273.973 540.986 274.24 541.384 274.611L540.564 275.443C540.22 275.162 539.898 274.959 539.597 274.834C539.3 274.705 538.99 274.641 538.666 274.641C538.263 274.641 537.951 274.738 537.728 274.934C537.509 275.125 537.4 275.41 537.4 275.789C537.4 276.059 537.472 276.279 537.617 276.451C537.761 276.619 537.974 276.77 538.255 276.902L539.474 277.477C540.091 277.766 540.56 278.092 540.88 278.455C541.201 278.818 541.361 279.285 541.361 279.855C541.361 280.609 541.115 281.176 540.623 281.555C540.134 281.93 539.392 282.117 538.396 282.117ZM554.226 278.602L554.402 277.254H554.473L555.422 273.68H556.254V275.156H555.914L554.965 278.602H554.226ZM551.66 282V273.68H552.785V282H551.66ZM553.887 278.602L552.937 275.156H552.598V273.68H553.43L554.379 277.254H554.426L554.543 278.602H553.887ZM556.066 282V273.68H557.191V282H556.066ZM561.799 279.223L558.928 273.68H560.217L562.244 277.84H562.35L564.377 273.68H565.666L562.795 279.223H561.799ZM561.711 282V277.898H562.883V282H561.711ZM578.637 282.117C577.395 282.117 576.463 281.76 575.842 281.045C575.221 280.33 574.91 279.258 574.91 277.828C574.91 276.473 575.233 275.424 575.877 274.682C576.522 273.936 577.426 273.562 578.59 273.562C579.172 273.562 579.682 273.654 580.119 273.838C580.557 274.018 580.879 274.273 581.086 274.605L580.213 275.473C580.034 275.207 579.807 275.002 579.534 274.857C579.264 274.713 578.973 274.641 578.66 274.641C577.871 274.641 577.258 274.914 576.821 275.461C576.383 276.004 576.164 276.773 576.164 277.77C576.164 278.859 576.383 279.678 576.821 280.225C577.258 280.768 577.91 281.039 578.778 281.039C579.149 281.039 579.475 281.004 579.756 280.934C580.041 280.859 580.274 280.797 580.453 280.746L580.91 281.766C580.746 281.816 580.457 281.889 580.043 281.982C579.633 282.072 579.164 282.117 578.637 282.117ZM579.797 281.766V277.84H580.91V281.766H579.797ZM578.098 278.953V277.84H580.875V278.953H578.098ZM585.911 282.117C583.864 282.117 582.84 280.711 582.84 277.898C582.84 275.008 583.864 273.562 585.911 273.562C587.958 273.562 588.981 275.008 588.981 277.898C588.981 280.711 587.958 282.117 585.911 282.117ZM585.911 281.039C587.137 281.039 587.75 279.992 587.75 277.898C587.75 275.727 587.137 274.641 585.911 274.641C584.684 274.641 584.071 275.727 584.071 277.898C584.071 279.992 584.684 281.039 585.911 281.039ZM590.53 282L592.932 273.68H594.631L597.034 282H595.803L593.835 274.688H593.729L591.76 282H590.53ZM591.643 279.973V278.859H595.862V279.973H591.643ZM599.075 282V273.68H600.247V282H599.075ZM599.075 282V280.887H604.583V282H599.075Z"
                        fill="#E37EFC" />
                </g>
                <g id="Group 7">
                    <g id="Vector_5" filter="url(#filter1_d_102_2)">
                        <path
                            d="M447 171.124H463.02L484.264 200.519L489.349 207.554L491.205 209.881L521.528 247.876H505.508L484.264 219.072L480.155 213.5L477.323 209.881L447 171.124Z"
                            fill="#A778C3" />
                    </g>
                    <g id="Vector_6" filter="url(#filter2_d_102_2)">
                        <path
                            d="M447 171.124H463.02H505.508L484.264 200.519L479.179 207.554L477.323 209.881L447 247.876V259H521.528V247.876H505.508H463.02L484.264 219.072L488.374 213.5L491.205 209.88L521.528 171.124V160H447V171.124Z"
                            fill="#D7AFEF" />
                    </g>
                </g>
            </g>
        </g>
        <g id="right">
            <g id="Group 3">
                <circle id="circle1" cx="1268.5" cy="169.5" r="61.5" fill="url(#paint3_linear_102_2)" />
                <circle id="circle2" cx="1206.5" cy="107.5" r="98.5" fill="url(#paint4_linear_102_2)" />
            </g>
            <rect id="Rectangle 1" x="870.905" y="228" width="395" height="150" rx="40"
                transform="rotate(11.8901 870.905 228)" fill="url(#paint5_linear_102_2)" />
            <rect id="Rectangle 2" x="848.905" y="195.003" width="395" height="150" rx="40"
                transform="rotate(11.8901 848.905 195.003)" fill="url(#paint6_linear_102_2)" />
            <g id="mink">
                <g id="Group 9" filter="url(#filter3_d_102_2)">
                    <path id="Vector 20"
                        d="M1199.2 140.104L1197.44 138.114L1195.03 137.299L1193.01 137.292L1192.5 141.259L1192.8 142.81L1195.97 141.705L1199.2 140.104Z"
                        fill="#E1E1E1" />
                    <path id="Vector 19"
                        d="M883.566 243.213C881.05 242.439 879.517 242.171 876.687 241.824C873.949 244.301 872.379 245.373 870.437 255.136C869.329 259.441 869.158 259.465 868.985 262.511C867.555 265.99 867.049 267.89 866.349 271.246C864.717 274.887 864.591 275.387 864.145 280.541C863.589 284.723 862.881 288.186 864.42 290.154C865.972 294.273 869.153 295.356 876.74 296.276C885.401 297.409 890.692 298.357 896.272 297.276C897.743 296.595 899.821 295.536 900.558 295.307C901.296 295.078 905.055 295.003 907.069 295.64L917.457 269.754C916.361 269.243 914.756 267.6 913.808 266.764C913.382 266.647 913.175 266.503 912.88 266.141C912.12 263.732 912.271 263.038 908.559 260.544C904.847 258.05 894.224 251.193 894.206 250.631C894.131 248.293 892.619 246.367 890.19 246.586C886.664 245.064 884.619 244.196 883.566 243.213Z"
                        fill="#303030" />
                    <path id="Vector 17"
                        d="M948.154 270.174L934.573 269.939L928.904 294.416L949.427 295.544C952.26 293.435 952.406 291.108 952.559 286.873C951.673 277.393 950.366 274.952 948.154 270.174Z"
                        fill="#F5DBD5" />
                    <path id="Vector 18"
                        d="M917.775 267.275C916.425 266.751 915.585 266.593 913.808 266.764C914.24 267.878 914.475 268.602 914.849 270.427C914.938 273.817 914.595 274.637 914.084 276.378C912.141 279.607 911.143 281.268 909.592 283.866C906.612 288.978 905.074 292 900.558 295.307C902.382 295.18 902.966 295.383 903.984 295.738L904.03 295.754C907.491 297.029 908.034 297.132 909.981 296.519C912.674 295.749 913.676 295.274 920.778 294.883C921.831 294.11 928.815 296.314 930.328 295.103C931.84 293.893 938.737 280.598 934.573 269.939C933.014 269.362 931.357 269.649 927.07 269.478C924.784 269.293 923.41 269.154 920.127 268.585C919.555 268.331 919.105 268.093 917.775 267.275Z"
                        fill="#4A4A4A" />
                    <path id="Vector 13"
                        d="M1009.69 230.703C1018.55 240.244 1036.44 259.451 1037.19 259.95L1058.13 265.668L1111.79 259.968L1092.27 239.309C1082.18 230.92 1077.33 227.051 1072.54 224.168C1060.8 214.241 1057.42 211.251 1053.5 207.603C1045.14 198.641 1040.56 193.585 1024.42 186.723C1013.74 187.39 1009.63 189.888 1004.91 197.32C999.859 209.381 1001.71 214.052 1007.37 221.33C1007.84 225.224 1008.25 227.328 1009.69 230.703Z"
                        fill="#484848" />
                    <g id="phone">
                        <path id="Vector 8"
                            d="M1034.2 106.817L1044.65 131.351L1049.33 142.035L1050.43 145.202L1037.29 145.527C1035.25 145.247 1034.31 144.91 1033.51 143.529L1018.44 107.815C1017.96 105.766 1018.6 105.121 1020.87 104.599L1030.49 104.323C1032.87 104.399 1033.43 105.19 1034.2 106.817Z"
                            fill="#404040" />
                        <path id="screen"
                            d="M1030.66 105.436C1032.79 105.503 1033.29 106.214 1033.98 107.676L1047.66 139.3C1048.17 141.041 1047.71 141.603 1046.29 142.148L1037.02 142.468C1035.2 142.217 1034.36 141.915 1033.64 140.673L1020.14 108.571C1019.71 106.728 1020.28 106.149 1022.32 105.678L1030.66 105.436Z"
                            fill="#2E2E2E" />
                    </g>
                    <path id="back"
                        d="M1128.27 214.196C1129.11 212.668 1129.42 212.292 1129.98 211.859C1130.44 212.275 1131.5 212.346 1132.52 212.298L1131.81 214.111C1131.81 214.111 1133.36 221.507 1134.37 225.567C1134.38 227.463 1133.98 228.746 1132.61 231.391C1130.46 231.567 1126.81 233.281 1122.05 235.516L1122.05 235.517C1120.69 236.156 1119.24 236.838 1117.7 237.539C1127.18 242.725 1126.77 247.267 1123.9 255.981L1125.42 263.738L1132.53 266.494L1162.4 278.073L1179.12 300.893C1190.27 292.705 1195.06 285.782 1193.86 272.542C1201.9 263.097 1204.17 256.16 1207.58 245.754L1207.58 245.752C1208.01 244.462 1208.45 243.119 1208.92 241.711C1212.07 230.648 1216.38 220.62 1218.97 214.605L1218.97 214.605C1220.23 211.664 1221.09 209.683 1221.19 209.009C1221.5 206.958 1216.14 181.641 1216.14 181.641C1214.04 169.44 1209.04 163.251 1200.51 152.677L1199.81 151.814C1199.83 150.364 1199.9 149.159 1199.95 148.042L1199.95 148.041C1200.08 145.565 1200.19 143.523 1199.79 140.217L1198.3 140.026C1196.91 141.44 1196.06 141.706 1194.52 142.022L1192.44 142.763C1178.85 149.642 1166.64 157.88 1164.75 159.385L1159.92 162.03L1160.9 160.42L1162.89 156.644L1164.92 144.805L1159.74 145.111L1159.33 145.412C1158.65 145.911 1158.04 146.357 1157.47 146.791L1151.01 151.082C1147.59 153.172 1145.33 154.961 1140.93 158.86C1133.88 163.588 1132.56 169.56 1128.54 172.893C1124.52 176.227 1124.78 173.594 1122.69 179.198C1119.71 181.192 1118.03 182.302 1114.98 184.256L1110.82 185.234L1108.24 184.902C1102.76 198.931 1103.76 203.477 1105.57 214.301C1107.04 216.442 1107.84 217.065 1109.22 217.291C1111.63 217.551 1113.62 217.417 1117.84 216.888C1120.9 217.815 1122.16 217.432 1124.41 216.725C1126.2 215.95 1126.95 215.326 1128.27 214.196Z"
                        fill="#FAFAFA" />
                    <path id="Vector 10" fill-rule="evenodd" clip-rule="evenodd"
                        d="M1028.63 136.572C1028.63 136.572 1029.06 136.521 1029.81 137.004C1030.56 137.487 1029.26 135.442 1030.04 135.241C1029.48 134.556 1029.23 133.129 1028.93 132.074C1028.36 130.636 1028.1 129.664 1027.91 128.974C1027.67 128.067 1027.56 127.646 1027.03 127.292C1026.1 126.668 1025.04 127.037 1025.04 127.037C1024.7 127.302 1024.67 127.477 1024.53 128.335C1024.45 128.872 1024.85 128.579 1025.19 129.855C1025.53 131.131 1027.48 133.591 1028.32 135.02C1028.59 135.718 1030.78 136.765 1028.63 136.572Z"
                        fill="#EFCCC4" />
                    <path id="Vector 11"
                        d="M1028.54 139.08C1030.89 144.569 1033.57 143.893 1033.94 144.089C1034.32 144.285 1032.87 142.572 1031.94 140.023C1031.9 138.704 1032.2 138.039 1031.83 136.984C1031.46 135.928 1030.04 135.241 1030.04 135.241C1029.26 135.442 1028.89 135.719 1028.36 136.537C1028.53 137.583 1028.59 138.148 1028.54 139.08Z"
                        fill="#F5DBD5" />
                    <path id="Vector 7"
                        d="M1108.77 185.474L1065.16 147.553C1064.46 143.186 1059.41 131.16 1056.44 129.843C1053.47 128.526 1051.99 125.368 1051.47 124.619C1050.46 123.153 1046.73 123.049 1045.31 122.361C1043.88 121.674 1042.76 122.538 1043.07 124.09C1043.37 125.641 1045.43 127.599 1048.57 128.327C1050.24 130.212 1050.28 130.723 1051.1 132.181C1051.92 133.638 1051.24 133.689 1050.41 133.605C1048.17 132.995 1046.91 132.441 1044.65 131.351L1048.53 140.42C1049.2 143.503 1048.75 143.269 1047.86 144.053L1040.79 144.152C1040.53 143.166 1039.16 142.743 1038.16 142.615C1037.17 142.488 1036.98 143.976 1036.98 143.976C1036.95 146.778 1039.22 150.158 1039.56 151.365C1039.95 152.757 1045 154.202 1049.55 155.956C1052.22 156.861 1053.68 157.551 1056.15 159.549C1059.35 162.118 1066.54 172.542 1072.7 179.826C1078.1 187.216 1092.34 202.025 1106 214.861L1108.77 185.474Z"
                        fill="#EED3CC" />
                    <g id="camera">
                        <g id="body">
                            <path
                                d="M1008.81 217.986C1008.61 219.041 1008.62 219.074 1008.55 219.97C1008.49 220.866 1009.3 221.734 1010.58 222.247C1010.67 220.416 1010.82 218.427 1010.98 216.743C1009.72 216.947 1009.03 217.168 1008.81 217.986Z"
                                fill="#D0CBEB" />
                            <path
                                d="M1010.58 222.247C1010.43 223.437 1010.42 225.587 1010.52 231.314L1010.4 240.876L1020.77 245.739L1031.42 242.068L1042.37 231.378C1042.7 225.868 1042.8 222.725 1041.31 216.118C1039.86 213.979 1038.39 212.689 1033.52 210.074C1031.66 209.255 1030.87 208.76 1025.15 208.494C1023.76 207.424 1023.02 206.766 1020.19 207.856C1018.03 207.966 1016.27 207.922 1014.84 208.551C1014.84 208.555 1014.83 208.559 1014.82 208.563C1013.4 209.197 1012.3 210.5 1011.43 213.282C1011.3 213.964 1011.13 215.23 1010.98 216.743C1010.82 218.427 1010.67 220.416 1010.58 222.247Z"
                                fill="#D0CBEB" />
                        </g>
                        <g id="top">
                            <path
                                d="M1010.58 222.247C1010.43 223.437 1010.42 225.587 1010.52 231.314C1011.01 236.304 1011.25 238.445 1011.56 238.972C1011.86 239.499 1012.98 239.659 1014.03 239.291C1015.09 238.922 1016.15 238.554 1016.27 237.562C1016.4 236.57 1016.78 210.909 1016.78 210.909C1016.78 210.909 1016.81 209.904 1016.37 209.344C1015.95 208.798 1015.24 208.394 1014.84 208.551C1014.84 208.555 1014.83 208.559 1014.82 208.563C1013.4 209.197 1012.3 210.5 1011.43 213.282C1011.3 213.964 1011.13 215.23 1010.98 216.743C1010.82 218.427 1010.67 220.416 1010.58 222.247Z"
                                fill="#DCD6FB" />
                        </g>
                        <ellipse id="Ellipse 3" cx="1023.96" cy="210.535" rx="1.5" ry="2.13027"
                            transform="rotate(-10.2725 1023.96 210.535)" fill="#525252" />
                        <ellipse id="Ellipse 4" cx="1026.03" cy="222.503" rx="0.473186" ry="0.672009"
                            transform="rotate(-10.2725 1026.03 222.503)" fill="#525252" />
                        <path id="Line 1" d="M1023.16 216.815C1029.52 217.634 1033.22 219.195 1039.64 221.96"
                            stroke="#6B6B6B" stroke-width="0.25" stroke-linecap="round" />
                        <line id="film" x1="1014.57" y1="218.448" x2="1014.14" y2="237.048" stroke="#3F3F3F"
                            stroke-width="0.5" stroke-linecap="round" />
                    </g>
                    <path id="shirt-right-arm"
                        d="M1128.27 214.196C1129.11 212.668 1129.42 212.292 1129.98 211.859C1131 212.785 1135 212.001 1135 212.001L1134.65 206.915L1142.3 182.693L1147.93 170.31L1154.85 159.642L1164.92 144.805L1159.27 145.591L1151.01 151.081C1147.59 153.172 1145.33 154.961 1140.93 158.86C1133.88 163.588 1132.56 169.56 1128.54 172.893C1124.52 176.227 1124.78 173.594 1122.69 179.198C1119.71 181.192 1118.03 182.301 1114.98 184.256L1110.82 185.234L1108.24 184.902C1102.76 198.931 1103.76 203.477 1105.57 214.301C1107.04 216.442 1107.84 217.065 1109.22 217.291C1111.63 217.551 1113.62 217.417 1117.84 216.888C1120.9 217.815 1122.16 217.432 1124.41 216.725C1126.2 215.95 1126.95 215.326 1128.27 214.196Z"
                        fill="#EFEFEF" />
                    <g id="shirt-right-collar">
                        <path id="shirt-right-collar_2"
                            d="M1162.89 156.644L1164.92 144.805C1161.64 149.217 1159.53 151.682 1157.78 156.453L1156.93 166.931L1160.9 160.42L1162.89 156.644Z"
                            fill="#EFEFEF" />
                        <path id="shirt-right-collar_3"
                            d="M1152.96 150.792C1150.59 153.542 1149.65 155.418 1147.91 158.712L1156.75 156.84L1157.78 156.453C1159.53 151.682 1161.64 149.217 1164.92 144.805L1159.74 145.111C1156.99 147.132 1155.42 148.235 1152.96 150.792Z"
                            fill="#FAFAFA" />
                    </g>
                    <path id="shirt-back-collar"
                        d="M1196.08 137.723C1197.74 138.273 1198.58 139.131 1198.3 140.026L1199.79 140.217C1199.08 139.301 1198.58 138.761 1197.57 137.914C1197.29 137.695 1196.54 137.321 1195.15 137.099C1194.05 136.995 1193.56 137.134 1192.61 137.276C1192.8 137.29 1192.97 137.303 1193.14 137.315C1194.18 137.347 1194.91 137.37 1196.08 137.723Z"
                        fill="#F8F8F8" />
                    <path id="face"
                        d="M1135.47 107.241C1137.25 105.985 1138.23 105.255 1139.95 103.784C1141.51 102.493 1142.14 101.636 1143.44 100.2C1144.12 99.4823 1144.39 99.072 1144.68 98.3438C1144.32 96.8889 1144.19 96.2144 1144.07 95.2407C1144.15 93.5195 1144.52 90.6621 1144.84 89.2897C1145.23 88.2394 1145.53 87.7438 1146.15 86.9377C1146.67 85.2895 1147.78 82.1062 1147.78 82.1062L1152.58 76.1696L1161.02 73.223L1172.24 76.1779C1176.4 79.0663 1184.99 85.1789 1186.03 86.5222C1187.33 88.2014 1193.49 99.0765 1194.35 100.196C1195.04 101.091 1198.77 112.863 1200.55 118.637L1194.91 135.052C1194.52 136.21 1194.14 141.003 1194.08 141.499C1194.02 141.995 1193.54 146.368 1189.56 148.442C1181.77 152.828 1176.36 155.004 1167.87 160.308C1166.56 161.864 1161.31 163.56 1159.34 164.197L1159.3 164.211C1159.52 163.414 1160.14 160.048 1160.53 159.364C1161.27 158.327 1161.46 157.663 1161.9 156.516L1162.65 154.596C1162.91 153.009 1162.32 151.864 1162.23 150.005C1161.75 147.852 1161.75 147.701 1159.27 145.591C1157.9 144.665 1157.71 143.417 1157.74 141.865C1157.86 139.725 1157.72 140.008 1157.26 137.77C1156.07 137.517 1155.21 137.385 1152.79 137.196C1144.32 137.155 1141.09 136.081 1138.49 130.819C1138.43 129.061 1138.6 128.241 1139 126.852C1139.35 125.887 1138.6 125.607 1137.21 125.109C1135.82 124.611 1136.05 123.153 1136.73 121.014C1135.21 121.234 1133.91 118.673 1135.19 117.287C1137.37 115.58 1137.53 114.529 1137.68 113.594L1137.68 113.575C1135.6 112.478 1133.98 110.891 1134.1 110.089C1134.31 108.698 1134.64 108.096 1135.47 107.241Z"
                        fill="#F5DBD5" />
                    <path id="shirt-body"
                        d="M1221.19 209.009C1221.5 206.958 1216.14 181.641 1216.14 181.641C1214.04 169.44 1209.04 163.251 1200.51 152.677C1190.89 157.091 1185.94 160.36 1177.59 167.067C1173.82 170.412 1172.19 171.515 1169.4 173.405L1169.19 173.549C1168.7 171.02 1168.43 169.582 1168.04 166.847C1166.69 160.155 1166.04 159.251 1164.96 159.394C1164.79 159.495 1164.67 159.562 1164.59 159.597C1161.32 162.215 1159.65 163.829 1156.93 166.931L1157.78 156.453L1156.75 156.84L1154.85 159.642L1147.93 170.31L1142.3 182.693L1134.65 206.915L1131.81 214.111C1131.81 214.111 1133.36 221.507 1134.37 225.567C1134.38 227.463 1133.98 228.746 1132.61 231.391L1137.74 226.001L1146.59 216.012L1155 205.499L1161.91 198.826L1166.96 192.418C1166.96 192.418 1170.84 180.315 1173.27 177.098C1175.7 173.882 1181.66 172.247 1183.03 171.8C1184.4 171.353 1190.75 169.899 1191.84 169.909C1197.04 170.548 1198.78 170.802 1201.57 172.672C1204.35 174.543 1206.75 179.389 1207.92 182.06C1209.09 184.731 1211 189.513 1210.23 195.464C1209.46 201.415 1205.91 205.495 1205.91 205.495L1197.63 215.016C1191.72 222.547 1188.3 226.694 1181.63 233.626C1173.1 242.18 1163.38 253.965 1161.14 255.694C1158.91 257.422 1153.61 258.18 1152.81 261.679C1152.81 261.679 1150.38 264.896 1148.33 265.136C1146.29 265.377 1141.2 265.767 1141.2 265.767L1132.53 266.494L1162.4 278.073L1179.12 300.893C1190.27 292.705 1195.06 285.782 1193.86 272.542C1201.9 263.097 1204.17 256.16 1207.58 245.754L1207.58 245.752C1208.01 244.462 1208.45 243.119 1208.92 241.711C1212.07 230.648 1216.38 220.62 1218.97 214.605C1220.23 211.664 1221.09 209.683 1221.19 209.009Z"
                        fill="#FAFAFA" />
                    <g id="shirt-body_2">
                        <path
                            d="M1117.7 237.539C1127.18 242.725 1126.77 247.267 1123.9 255.981L1125.42 263.738L1132.53 266.494L1141.2 265.767C1141.2 265.767 1146.29 265.377 1148.33 265.136C1150.38 264.896 1152.81 261.679 1152.81 261.679C1153.61 258.18 1158.91 257.422 1161.14 255.693C1163.38 253.965 1173.1 242.18 1181.63 233.626C1188.3 226.694 1191.72 222.547 1197.63 215.016L1205.91 205.495C1205.91 205.495 1209.46 201.415 1210.23 195.464C1211 189.513 1209.09 184.731 1207.92 182.06C1206.75 179.389 1204.35 174.543 1201.57 172.672C1198.78 170.802 1197.04 170.548 1191.84 169.909C1190.75 169.899 1184.4 171.353 1183.03 171.8C1181.66 172.247 1175.7 173.882 1173.27 177.098C1170.84 180.315 1166.96 192.418 1166.96 192.418L1161.91 198.826L1155 205.499L1146.59 216.012L1137.74 226.001L1132.61 231.391C1130.46 231.567 1126.81 233.281 1122.05 235.516C1120.69 236.156 1119.24 236.838 1117.7 237.539Z"
                            fill="white" />
                    </g>
                    <path id="shirt-under-collar"
                        d="M1159.56 162.227L1156.93 166.931L1177.68 158.509L1165.52 158.961L1159.56 162.227Z"
                        fill="#FBFBFB" />
                    <path id="shirt-left-collar" fill-rule="evenodd" clip-rule="evenodd"
                        d="M1192.44 142.763L1194.52 142.022C1196.06 141.706 1196.91 141.44 1198.3 140.025L1199.79 140.217C1200.19 143.523 1200.08 145.565 1199.95 148.041C1199.9 149.159 1199.83 150.364 1199.81 151.814L1200.51 152.677C1190.89 157.091 1185.94 160.36 1177.59 167.067C1173.82 170.412 1172.19 171.515 1169.4 173.405L1169.19 173.549C1168.7 171.02 1168.43 169.582 1168.04 166.847C1166.69 160.155 1166.04 159.251 1164.96 159.394L1164.59 159.597C1163.22 160.234 1176.93 150.613 1192.44 142.763Z"
                        fill="white" />
                    <path id="camera-strip"
                        d="M1057.04 232.403C1057.71 232.104 1058.35 231.952 1058.98 232.023L1059.14 230.532C1058.16 230.421 1057.24 230.671 1056.43 231.034C1055.62 231.396 1054.87 231.893 1054.24 232.324C1053.01 233.161 1051.44 234.312 1050.63 235.867L1051.97 236.555C1052.57 235.379 1053.83 234.416 1055.08 233.563C1055.72 233.131 1056.37 232.704 1057.04 232.403Z"
                        fill="#D0CBEB" />
                    <path id="left-arm"
                        d="M1018.49 232.843C1019.67 234.604 1024.09 235.975 1026.79 234.919C1028.42 234.546 1029.27 234.757 1030.76 235.43C1032.22 237.783 1031.2 238.866 1030.06 240.885C1028.22 242.068 1027.17 242.711 1024.72 243.222C1020.55 243.433 1018.64 242.947 1015.3 242.01C1012.47 240.494 1011.75 239.471 1011.34 237.469C1010.63 234.793 1011.19 234.387 1010.51 231.78C1009.41 233.652 1009.22 234.147 1008.86 237.15C1008.42 239.739 1008.43 240.857 1009.28 241.741C1010.13 243.712 1010.27 244.563 1010.26 245.899C1009.79 248.769 1010.61 249.8 1012.72 250.249C1015.69 252.645 1017.49 253.431 1020.71 254.805L1123.54 261.947L1131.95 260.041C1132.34 256.195 1132.32 254.003 1131.74 249.931C1129.61 247.042 1128.95 246.033 1127.91 244.398C1125.24 239.937 1123.3 238.306 1118.69 237.667C1112.34 237.807 1107.09 238.194 1097.36 238.955C1089.06 239.032 1084.68 238.9 1077.26 238.387C1069.08 238.489 1062.12 236.621 1058.92 236.026C1055.72 235.432 1053.4 235.821 1050.12 233.886C1046.84 231.952 1047.46 231.024 1045.54 230.273C1043.62 229.522 1036.61 229.125 1036.61 229.125C1033.05 229.084 1030.8 228.69 1026.7 227.849C1023.27 228.297 1021.4 228.631 1018.38 229.804C1017.26 231.073 1017.37 231.734 1018.49 232.843Z"
                        fill="#F8E0DB" />
                    <path id="camera-strip_2"
                        d="M1058.98 232.023C1059.16 232.044 1059.27 232.071 1059.33 232.103C1059.39 232.128 1059.45 232.166 1059.51 232.253C1059.84 232.685 1059.93 233.363 1059.77 233.993C1059.54 234.937 1059.13 235.857 1058.68 236.815C1058.1 238.059 1057.5 239.28 1056.77 240.384C1056.42 240.925 1055.99 241.415 1055.51 241.838L1056.5 242.966C1057.08 242.452 1057.6 241.859 1058.02 241.209C1058.82 240.007 1059.45 238.7 1060.04 237.45C1060.48 236.502 1060.96 235.457 1061.23 234.35C1061.46 233.417 1061.38 232.24 1060.71 231.352C1060.26 230.746 1059.67 230.592 1059.14 230.532L1058.98 232.023Z"
                        fill="#D0CBEB" />
                    <path id="right-leg"
                        d="M1180.39 275.346C1174.26 266.303 1158.04 256.733 1157.01 257.215C1155.99 257.697 1154.83 257.742 1153.78 258.816C1152.7 260.5 1151.85 262.096 1150.73 262.961C1149.61 263.825 1149.32 264.031 1144.59 263.683C1143.25 263.728 1142.48 263.745 1141.05 263.732C1138.85 264.222 1138.18 264.053 1137.58 263.286C1136.42 263.949 1135.68 264.289 1134.35 264.887C1132.73 265.794 1132 265.555 1130.94 263.944C1130.47 263.357 1130.19 262.982 1129.65 262.265C1124.8 261.608 1122.14 260.869 1117.44 259.182C1107.6 255.615 1102 253.522 1091.06 248.731C1084.78 243.099 1081.43 243.166 1075.51 244.21L1075.26 244.122C1070.55 242.443 1067.84 241.474 1060.82 240.809C1053.61 240.651 1049.56 241.142 1042.32 247.502C1023.94 253.885 1011.22 258.56 999.099 262.108C993.022 261.985 983.295 263.962 967.204 267.079C963.031 266.343 960.682 266.517 956.471 268.219C951.199 268.924 949.322 268.811 945.866 268.367C939.666 277.152 939.772 283.462 942.357 295.643C943.306 299.412 945.304 304.088 949.143 305.59C952.983 307.092 956.662 307.403 956.965 303.571C959.156 302.751 960.407 302.464 962.675 302.289C967.562 303.109 971.876 302.482 978.863 301.851C1017.84 295.992 1021.86 296.67 1026.27 293.834L1026.38 293.84C1032.49 294.148 1034.85 294.267 1044.83 290.676C1045.47 290.651 1045.77 290.728 1046.29 290.86L1046.32 290.867C1050.66 292.391 1051.17 292.191 1054.19 292.384C1076.22 298.985 1090.46 299.751 1107.94 313.414C1125.13 320.658 1135.06 323.07 1153.68 322.322C1156.06 322.551 1158.13 321.539 1159.39 321.04C1163.45 320.159 1167.44 318.085 1168.81 313.681C1169.75 311.023 1171.25 309.106 1172.71 307.63C1177.11 306.286 1178.35 304.102 1178.95 298.35C1181.92 291.144 1184.32 287.646 1180.39 275.346Z"
                        fill="#3A3A3A" />
                    <path id="Vector 21"
                        d="M948.154 270.174L939.1 270.018L935.414 294.75L949.427 295.544C952.26 293.435 952.406 291.108 952.559 286.873C951.673 277.393 950.366 274.952 948.154 270.174Z"
                        fill="#F5DBD5" />
                    <path id="Vector 2"
                        d="M1180.49 125.636C1180.77 120.49 1180.99 117.654 1182.09 113.238L1175.17 104.283C1176.95 101.679 1175.18 105.122 1171.51 105.324C1167.84 105.526 1167.27 110.828 1166.59 112.252C1165.9 113.676 1165.01 113.187 1164.6 111.997C1164.77 112.121 1163.45 103.905 1162.41 101.632C1161.36 99.3593 1164.1 96.1488 1160.08 92.2591C1158.49 90.3651 1158.58 88.7533 1159.99 85.1887C1159.59 81.7295 1158.74 80.3025 1154.05 80.3921C1148.82 81.8434 1146.71 84.2857 1144.52 91.7693C1143.5 90.3219 1142.75 85.9741 1142.87 85.0035C1143.32 81.5321 1145.74 76.0205 1150.98 72.939C1156.18 69.5284 1166.38 62.3532 1183.38 64.0004C1188.98 64.8532 1194.71 63.5446 1204.98 78.7663C1205.39 79.3732 1205.09 80.1786 1205.89 81.0117C1210.89 86.2152 1213.47 89.4962 1215 100.332C1215.55 104.144 1215.03 111.628 1210.23 117.866C1208.68 120.46 1208.02 121.535 1205.49 123.306C1203.37 124.269 1202.2 125.388 1200.95 127.259C1199.37 131.245 1197.84 133.047 1194.78 136.044C1191.79 138.101 1189.42 136.839 1185.86 134.895C1183.82 132.439 1181.12 128.744 1180.49 125.636Z"
                        fill="#565656" />
                    <path id="Vector 4"
                        d="M1170.55 97.1339C1160.18 95.6627 1154.31 94.9871 1143.71 94.1851C1142.7 93.9574 1142.13 94.0512 1141.1 94.858C1140.23 100.07 1140.32 104.84 1141.18 105.959C1142.05 107.079 1142.73 105.655 1143.18 102.184C1143.63 98.7121 1143.45 96.1687 1143.45 96.1687L1159.32 98.2101C1160.42 97.7521 1160.99 97.4866 1162.49 97.1051C1165.78 97.376 1169 97.4385 1170.92 98.1896C1172.84 98.9406 1174.83 100.753 1177.41 102.554L1178.47 102.186L1177.6 101.066C1174.78 99.0534 1173.02 97.4851 1170.55 97.1339Z"
                        fill="#454545" />
                    <path id="Vector 3"
                        d="M1171.4 117.913C1170.58 117.517 1170.35 116.975 1170.8 114.81C1171.13 112.864 1171.68 111.535 1174.17 108.186C1174.68 106.701 1174.98 105.77 1175.17 104.282C1175.37 102.795 1179.97 98.3459 1182.56 101.704C1185.16 105.062 1184.34 107.82 1182.71 112.31C1180.95 115.397 1179.27 116.741 1176.43 118.055C1174.39 118.701 1173.32 118.389 1171.4 117.913Z"
                        fill="#F8E0DB" />
                    <path id="Vector 5"
                        d="M1141.74 105.527C1143.1 105.205 1143.1 94.4751 1142.65 94.5535C1142.2 94.6318 1141.97 94.7235 1141.59 94.9218C1141.13 95.1665 1140.38 105.85 1141.74 105.527Z"
                        fill="#D9D9D9" />
                    <path id="Vector 16"
                        d="M1051.14 312.156C1051.14 312.156 1048.52 314.289 1045.11 315.918C1041.75 317.523 1040.61 319.645 1038.06 324.36L1037.95 324.575C1037.28 327.897 1036.29 331.015 1038.22 334.189C1039.89 336.923 1039.72 335.977 1041.98 340.218C1044.15 343.563 1045.41 345.421 1050.08 347.813C1055.15 348.923 1057.02 348.554 1060.62 348.161C1063.9 346.982 1072.03 341.505 1073.3 339.71C1074.8 337.614 1080.82 335.127 1085.54 334.73C1090.73 332.056 1093.12 330.292 1096.17 326.52C1098.57 322.832 1099.78 320.713 1102.91 317.303C1106.23 314.722 1107.16 313.656 1107.01 312.79C1107.05 308.313 1107.02 305.939 1105.49 305.033C1102.87 304.576 1101.27 304.145 1098.18 303.084C1091.19 298.148 1088.59 295.83 1074.36 288.425C1071.62 288.094 1070.19 287.859 1065.8 288.332C1062.41 289.225 1060.5 289.73 1056.17 292.639L1054.86 294.991C1052.3 297.024 1051.02 298.249 1050.5 301.487C1049.94 305.142 1049.9 307.363 1051.14 312.156Z"
                        fill="#303030" />
                </g>
                <g id="blink" filter="url(#filter4_d_102_2)">
                    <path
                        d="M1030.66 105.435C1032.79 105.502 1033.29 106.213 1033.98 107.676L1047.66 139.299C1048.17 141.04 1047.71 141.602 1046.29 142.147L1037.02 142.467C1035.2 142.216 1034.36 141.914 1033.63 140.672L1020.14 108.57C1019.7 106.728 1020.28 106.148 1022.32 105.678L1030.66 105.435Z"
                        fill="#79F7FF" />
                </g>
            </g>
        </g>
    </g>
    <defs>
        <filter id="filter0_d_102_2" x="284.375" y="165.25" width="406.652" height="96.75" filterUnits="userSpaceOnUse"
            color-interpolation-filters="sRGB">
            <feFlood flood-opacity="0" result="BackgroundImageFix" />
            <feColorMatrix in="SourceAlpha" type="matrix" values="0 0 0 0 0 0 0 0 0 0 0 0 0 0 0 0 0 0 127 0"
                result="hardAlpha" />
            <feOffset dy="4" />
            <feGaussianBlur stdDeviation="2" />
            <feComposite in2="hardAlpha" operator="out" />
            <feColorMatrix type="matrix" values="0 0 0 0 0 0 0 0 0 0 0 0 0 0 0 0 0 0 0.15 0" />
            <feBlend mode="normal" in2="BackgroundImageFix" result="effect1_dropShadow_102_2" />
            <feBlend mode="normal" in="SourceGraphic" in2="effect1_dropShadow_102_2" result="shape" />
        </filter>
        <filter id="filter1_d_102_2" x="443" y="171.124" width="82.5281" height="84.7528" filterUnits="userSpaceOnUse"
            color-interpolation-filters="sRGB">
            <feFlood flood-opacity="0" result="BackgroundImageFix" />
            <feColorMatrix in="SourceAlpha" type="matrix" values="0 0 0 0 0 0 0 0 0 0 0 0 0 0 0 0 0 0 127 0"
                result="hardAlpha" />
            <feOffset dy="4" />
            <feGaussianBlur stdDeviation="2" />
            <feComposite in2="hardAlpha" operator="out" />
            <feColorMatrix type="matrix" values="0 0 0 0 0 0 0 0 0 0 0 0 0 0 0 0 0 0 0.15 0" />
            <feBlend mode="normal" in2="BackgroundImageFix" result="effect1_dropShadow_102_2" />
            <feBlend mode="normal" in="SourceGraphic" in2="effect1_dropShadow_102_2" result="shape" />
        </filter>
        <filter id="filter2_d_102_2" x="443" y="160" width="82.5281" height="107" filterUnits="userSpaceOnUse"
            color-interpolation-filters="sRGB">
            <feFlood flood-opacity="0" result="BackgroundImageFix" />
            <feColorMatrix in="SourceAlpha" type="matrix" values="0 0 0 0 0 0 0 0 0 0 0 0 0 0 0 0 0 0 127 0"
                result="hardAlpha" />
            <feOffset dy="4" />
            <feGaussianBlur stdDeviation="2" />
            <feComposite in2="hardAlpha" operator="out" />
            <feColorMatrix type="matrix" values="0 0 0 0 0 0 0 0 0 0 0 0 0 0 0 0 0 0 0.15 0" />
            <feBlend mode="normal" in2="BackgroundImageFix" result="effect1_dropShadow_102_2" />
            <feBlend mode="normal" in="SourceGraphic" in2="effect1_dropShadow_102_2" result="shape" />
        </filter>
        <filter id="filter3_d_102_2" x="859.489" y="63.7583" width="365.713" height="292.792"
            filterUnits="userSpaceOnUse" color-interpolation-filters="sRGB">
            <feFlood flood-opacity="0" result="BackgroundImageFix" />
            <feColorMatrix in="SourceAlpha" type="matrix" values="0 0 0 0 0 0 0 0 0 0 0 0 0 0 0 0 0 0 127 0"
                result="hardAlpha" />
            <feOffset dy="4" />
            <feGaussianBlur stdDeviation="2" />
            <feComposite in2="hardAlpha" operator="out" />
            <feColorMatrix type="matrix" values="0 0 0 0 0 0 0 0 0 0 0 0 0 0 0 0 0 0 0.25 0" />
            <feBlend mode="normal" in2="BackgroundImageFix" result="effect1_dropShadow_102_2" />
            <feBlend mode="normal" in="SourceGraphic" in2="effect1_dropShadow_102_2" result="shape" />
        </filter>
        <filter id="filter4_d_102_2" x="991.003" y="76.4348" width="85.8624" height="95.0325"
            filterUnits="userSpaceOnUse" color-interpolation-filters="sRGB">
            <feFlood flood-opacity="0" result="BackgroundImageFix" />
            <feColorMatrix in="SourceAlpha" type="matrix" values="0 0 0 0 0 0 0 0 0 0 0 0 0 0 0 0 0 0 127 0"
                result="hardAlpha" />
            <feOffset />
            <feGaussianBlur stdDeviation="14.5" />
            <feComposite in2="hardAlpha" operator="out" />
            <feColorMatrix type="matrix" values="0 0 0 0 0 0 0 0 0 1 0 0 0 0 1 0 0 0 0.5 0" />
            <feBlend mode="normal" in2="BackgroundImageFix" result="effect1_dropShadow_102_2" />
            <feBlend mode="normal" in="SourceGraphic" in2="effect1_dropShadow_102_2" result="shape" />
        </filter>
        <linearGradient id="paint0_linear_102_2" x1="115.5" y1="33.9999" x2="1551" y2="239.5"
            gradientUnits="userSpaceOnUse">
            <stop stop-color="#43285F" />
            <stop offset="1" stop-color="#490D47" />
        </linearGradient>
        <linearGradient id="paint1_linear_102_2" x1="115.5" y1="33.9999" x2="1551" y2="239.5"
            gradientUnits="userSpaceOnUse">
            <stop stop-color="#43285F" />
            <stop offset="1" stop-color="#25052D" />
        </linearGradient>
        <radialGradient id="paint2_radial_102_2" cx="0" cy="0" r="1" gradientUnits="userSpaceOnUse"
            gradientTransform="translate(484 208) rotate(26.0805) scale(211.54)">
            <stop stop-color="#CC8CFF" stop-opacity="0.34" />
            <stop offset="1" stop-color="#D5A0FF" stop-opacity="0" />
        </radialGradient>
        <linearGradient id="paint3_linear_102_2" x1="1312.83" y1="108" x2="1236.35" y2="231"
            gradientUnits="userSpaceOnUse">
            <stop stop-color="#EDD3F7" />
            <stop offset="1" stop-color="#BD94CC" />
        </linearGradient>
        <linearGradient id="paint4_linear_102_2" x1="1277.5" y1="9" x2="1155" y2="206" gradientUnits="userSpaceOnUse">
            <stop stop-color="#FDF7FF" />
            <stop offset="1" stop-color="#C3B2C9" />
        </linearGradient>
        <linearGradient id="paint5_linear_102_2" x1="1068.41" y1="228" x2="1068.41" y2="378"
            gradientUnits="userSpaceOnUse">
            <stop stop-color="#8450A3" />
            <stop offset="1" stop-color="#7A4599" />
        </linearGradient>
        <linearGradient id="paint6_linear_102_2" x1="1046.41" y1="195.003" x2="1046.41" y2="345.003"
            gradientUnits="userSpaceOnUse">
            <stop stop-color="#72408A" />
            <stop offset="1" stop-color="#5E2C6B" />
        </linearGradient>
    </defs>
</svg>
