<svg width="256" height="256" viewBox="0 0 256 256" fill="none" xmlns="http://www.w3.org/2000/svg">
<style>
  #face {
    animation: face 6.5s infinite;
  }

  #r_iris, #l_iris {
    animation: iris 6.5s infinite;
  }

  #r_eye_lid, #l_eye_lid {
    animation: eye_lid 6.5s infinite;
  }

  #r_arm {
    transform-origin: 101px 147px;
    animation: r_arm 6.5s infinite;
  }

  #head {
    transform-origin: 129px 89px;
    animation: head 6.5s infinite;
  }

  #r_ear {
    transform-origin: 101px 62px;
    animation: r_ear 6.5s infinite;
  }

  #tail {
    transform-origin: 129px 209px;
    animation: tail 10s infinite;
  }

  #tougue {
    transform-origin: 129px 118px;
    animation: tougue 6.5s infinite;
  }

  @keyframes face {
    0% {
      transform: translate(0, 0);
    }
    10% {
      transform: translate(5px, 0);
    }
    20% {
      transform: translate(-5px, 0);
    }
    30% {
      transform: translate(0, 0);
    }
    40%, 66% {
      transform: translate(0, 5px);
    }
    72%, 100% {
      transform: translate(0, 0);
    }
  }

  @keyframes iris {
    0% {
      transform: translate(0, 0);
    }
    10% {
      transform: translate(5px, 0);
    }
    20% {
      transform: translate(-5px, 0);
    }
    30%, 100% {
      transform: translate(0, 0);
    }
  }

  @keyframes eye_lid {
    30% {
      transform: translateY(0);
    }
    36%, 66% {
      transform: translateY(22px);
    }
    72%, 100% {
      transform: translateY(0);
    }
  }

  @keyframes r_arm {
    30% {
      transform: rotate(0deg);
    }
    36% {
      transform: rotate(-30deg);
    }
    42% {
      transform: rotate(-20deg);
    }
    48% {
      transform: rotate(-30deg);
    }
    54% {
      transform: rotate(-20deg);
    }
    60% {
      transform: rotate(-30deg);
    }
    66% {
      transform: rotate(-20deg);
    }
    72%, 100% {
      transform: rotate(0deg);
    }
  }

  @keyframes head {
    0% {
      transform: rotate(0deg);
    }
    10% {
      transform: rotate(5deg);
    }
    20% {
      transform: rotate(-5deg);
    }
    30% {
      transform: rotate(0deg);
    }
    36% {
      transform: rotate(5deg);
    }
    42% {
      transform: rotate(-5deg);
    }
    48% {
      transform: rotate(5deg);
    }
    54% {
      transform: rotate(-5deg);
    }
    60% {
      transform: rotate(5deg);
    }
    66% {
      transform: rotate(-5deg);
    }
    72%, 100% {
      transform: rotate(0deg);
    }
  }

  @keyframes r_ear {
    72% {
      transform: rotate(0deg);
    }
    74% {
      transform: rotate(-5deg);
    }
    76%, 80% {
      transform: rotate(0deg);
    }
    82% {
      transform: rotate(-5deg);
    }
    84% {
      transform: rotate(0deg);
    }
    86% {
      transform: rotate(-5deg);
    }
    88%, 100% {
      transform: rotate(0deg);
    }
  }

  @keyframes tail {
    0% {
      transform: rotate(-5deg);
    }
    10% {
      transform: rotate(5deg);
    }
    20% {
      transform: rotate(-5deg);
    }
    30% {
      transform: rotate(5deg);
    }
    40% {
      transform: rotate(-5deg);
    }
    50% {
      transform: rotate(5deg);
    }
    60% {
      transform: rotate(-5deg);
    }
    70% {
      transform: rotate(5deg);
    }
    80% {
      transform: rotate(-5deg);
    }
    90% {
      transform: rotate(5deg);
    }
    100% {
      transform: rotate(-5deg);
    }
  }

  @keyframes tougue {
    0%, 30% {
      opacity: 0%;
    }
    36% {
      opacity: 100%;
      transform: rotate(0deg);
    }
    42% {
      transform: rotate(-30deg);
    }
    48% {
      transform: rotate(30deg);
    }
    54% {
      transform: rotate(-30deg);
    }
    60% {
      transform: rotate(30deg);
    }
    66% {
      opacity: 100%;
      transform: rotate(-30deg);
    }
    72%, 100% {
      opacity: 0%;
      transform: rotate(0deg);
    }
  }
</style>
<!-- <rect width="256" height="256" fill="#1E1E1E"/> -->
<g id="Frame 10">
<g id="black_cat">
<path id="tail" d="M164.635 185.251C141.611 195.612 143.339 204.766 142.601 216.757H120.474C116.415 192.774 135.971 177.904 154.789 169.27C173.606 160.635 200.172 162.077 200.172 136.172C200.172 110.267 221.308 109.558 217.766 140.641C213.338 179.495 193.414 172.3 164.635 185.251Z" fill="#232323"/>
<path id="body" d="M105.089 107.774H152.913L179.814 189.375L163.001 241.508C137.704 235.254 122.721 235.675 95.0008 241.508L78.1876 189.375L105.089 107.774Z" fill="#252525"/>
<g id="r_leg">
<ellipse id="Ellipse 18" cx="95.0012" cy="208.64" rx="20.4" ry="35.1334" transform="rotate(-20 95.0012 208.64)" fill="#282828"/>
<ellipse id="Ellipse 19" cx="99.5339" cy="234.708" rx="18.1334" ry="11.3334" fill="#2F2F2F"/>
</g>
<g id="l_leg">
<ellipse id="Ellipse 17" cx="163.001" cy="208.641" rx="20.4" ry="35.1334" transform="rotate(20 163.001 208.641)" fill="#282828"/>
<ellipse id="Ellipse 20" cx="158.468" cy="234.708" rx="18.1334" ry="11.3334" fill="#2F2F2F"/>
</g>
<g id="l_arm">
<ellipse id="Ellipse 24" cx="13.1244" cy="49.8756" rx="13.1244" ry="49.8756" transform="matrix(-0.975962 -0.217943 -0.23216 0.972678 164.347 140.417)" fill="#2B2B2B"/>
<ellipse id="Ellipse 25" cx="10.7376" cy="15.533" rx="10.7376" ry="15.533" transform="matrix(-4.37114e-08 -1 0.999894 -0.0145908 115.401 240.77)" fill="#373737"/>
</g>
<g id="head">
<path id="face-base" d="M128.999 136.972C107.504 136.972 45.7062 123.538 64.5142 91.2945C64.5142 60.1316 93.3846 34.8691 128.999 34.8691C164.614 34.8691 193.486 60.1316 193.486 91.2945C212.294 123.538 150.495 136.972 128.999 136.972Z" fill="#292929"/>
<g id="ears">
<g id="r_ear">
<path id="back" d="M75.473 8L101 40L69.8882 70.7693L75.473 8Z" fill="#885555"/>
<g id="Polygon 14">
<path fill-rule="evenodd" clip-rule="evenodd" d="M118.253 41.0482L75.473 8L83.3228 44.6154L69.8882 70.7693L118.253 41.0482Z" fill="#292929"/>
</g>
</g>
<g id="l_ear">
<path id="back_2" d="M182.527 8L155 40L188.112 70.7693L182.527 8Z" fill="#885555"/>
<g id="Polygon 14_2">
<path fill-rule="evenodd" clip-rule="evenodd" d="M139.748 41.0482L182.527 8L174.678 44.6154L188.112 70.7693L139.748 41.0482Z" fill="#292929"/>
</g>
</g>
</g>
<g id="face">
<rect id="tougue" x="125" y="115" width="8" height="12" rx="4" fill="#CF7777"/>
<g id="lip">
<path d="M129.256 115.183C129.256 118.151 125.647 120.557 121.195 120.557C116.743 120.557 113.134 118.151 113.134 115.183C113.134 112.215 116.743 109.809 121.195 109.809C125.647 109.809 129.256 112.215 129.256 115.183Z" fill="#444444"/>
<path d="M145.377 115.183C145.377 118.151 141.768 120.557 137.317 120.557C132.865 120.557 129.256 118.151 129.256 115.183C129.256 112.215 132.865 109.809 137.317 109.809C141.768 109.809 145.377 112.215 145.377 115.183Z" fill="#444444"/>
</g>
<g id="hairs">
<path id="r_hair" fill-rule="evenodd" clip-rule="evenodd" d="M106.518 108.369C106.59 108.102 106.865 107.945 107.132 108.018C112.254 109.415 113.509 109.955 116.458 111.223C116.693 111.324 116.938 111.43 117.197 111.541C117.451 111.649 117.568 111.943 117.46 112.197C117.351 112.451 117.057 112.568 116.803 112.46C116.54 112.347 116.291 112.24 116.053 112.137C113.142 110.885 111.925 110.362 106.868 108.983C106.602 108.91 106.445 108.635 106.518 108.369ZM102.5 112C102.5 111.724 102.724 111.5 103 111.5H103.023C105.503 111.5 107.153 111.5 108.868 111.691C110.593 111.882 112.372 112.265 115.132 113.018C115.398 113.09 115.555 113.365 115.482 113.632C115.41 113.898 115.135 114.055 114.868 113.983C112.128 113.235 110.407 112.868 108.757 112.685C107.103 112.501 105.507 112.5 103 112.5C102.724 112.5 102.5 112.276 102.5 112ZM108.909 115.237C111.078 114.99 113.221 114.909 114.056 115.003C114.331 115.034 114.528 115.282 114.497 115.556C114.466 115.831 114.218 116.028 113.944 115.997C113.23 115.916 111.184 115.984 109.022 116.23C107.949 116.352 106.866 116.516 105.925 116.722C104.972 116.931 104.209 117.173 103.746 117.435C103.506 117.571 103.201 117.487 103.065 117.247C102.929 117.006 103.013 116.701 103.254 116.565C103.853 116.226 104.739 115.958 105.711 115.745C106.696 115.53 107.815 115.361 108.909 115.237Z" fill="#D5D5D5"/>
<path id="l_hair" fill-rule="evenodd" clip-rule="evenodd" d="M151.482 108.369C151.41 108.102 151.135 107.945 150.868 108.018C145.746 109.415 144.491 109.955 141.542 111.223C141.307 111.324 141.062 111.43 140.803 111.541C140.549 111.649 140.432 111.943 140.54 112.197C140.649 112.451 140.943 112.568 141.197 112.46C141.46 112.347 141.709 112.24 141.947 112.137C144.858 110.885 146.075 110.362 151.132 108.983C151.398 108.91 151.555 108.635 151.482 108.369ZM155.5 112C155.5 111.724 155.276 111.5 155 111.5H154.977C152.497 111.5 150.847 111.5 149.132 111.691C147.407 111.882 145.628 112.265 142.868 113.018C142.602 113.09 142.445 113.365 142.518 113.632C142.59 113.898 142.865 114.055 143.132 113.983C145.872 113.235 147.593 112.868 149.243 112.685C150.897 112.501 152.493 112.5 155 112.5C155.276 112.5 155.5 112.276 155.5 112ZM149.091 115.237C146.922 114.99 144.779 114.909 143.944 115.003C143.669 115.034 143.472 115.282 143.503 115.556C143.534 115.831 143.782 116.028 144.056 115.997C144.77 115.916 146.816 115.984 148.978 116.23C150.051 116.352 151.134 116.516 152.075 116.722C153.028 116.931 153.791 117.173 154.254 117.435C154.494 117.571 154.799 117.487 154.935 117.247C155.071 117.006 154.987 116.701 154.746 116.565C154.147 116.226 153.261 115.958 152.289 115.745C151.304 115.53 150.185 115.361 149.091 115.237Z" fill="#D5D5D5"/>
</g>
<path id="nose" d="M129.962 115.001C129.571 115.391 128.938 115.391 128.547 115.001L123.028 109.482C122.398 108.852 122.845 107.774 123.735 107.774L134.774 107.774C135.665 107.774 136.111 108.852 135.481 109.482L129.962 115.001Z" fill="#764343"/>
<g id="eyes">
<g id="l_eye">
<ellipse id="l_eye_ball" cx="153.1854" cy="88.6115" rx="13.4346" ry="16.1215" fill="#FFF870"/>
<ellipse id="l_iris" cx="153.18308" cy="88.6077" rx="2.68692" ry="10.7477" fill="#151515"/>
<path id="l_eye_lid" d="M134.375 72.4861C134.375 75.454 142.796 77.86 153.183 77.86C163.571 77.86 171.992 75.454 171.992 72.4861C171.992 69.5183 163.571 40 153.183 40C142.796 40 134.375 69.5183 134.375 72.4861Z" fill="#292929"/>
<ellipse id="l_eye_brow" cx="8.20578" cy="5.37385" rx="8.20578" ry="5.37385" transform="matrix(-0.964636 0.263586 0.263586 0.964636 153.038 56.365)" fill="#424242"/>
</g>
<g id="r_eye">
<ellipse id="r_eye_ball" cx="104.818" cy="88.6071" rx="13.4346" ry="16.1215" fill="#FFF870"/>
<ellipse id="r_iris" cx="104.818" cy="88.6066" rx="2.68692" ry="10.7477" fill="#151515"/>
<path id="r_eye_lid" d="M123.627 72.4854C123.627 75.4533 115.206 77.8593 104.818 77.8593C94.4308 77.8593 86.01 75.4533 86.01 72.4854C86.01 69.5175 94.4308 40 104.818 40C115.206 40 123.627 69.5175 123.627 72.4854Z" fill="#292929"/>
<ellipse id="r_eye_brow" cx="111.463" cy="63.7105" rx="8.20578" ry="5.37385" transform="rotate(15.283 111.463 63.7105)" fill="#424242"/>
</g>
</g>
</g>
</g>
<g id="r_arm">
<ellipse id="Ellipse 21" cx="13.1244" cy="20.9513" rx="13.1244" ry="20.9513" transform="matrix(0.975962 -0.217943 0.23216 0.972678 88.2006 140.417)" fill="#2B2B2B"/>
<ellipse id="Ellipse 23" cx="12.8245" cy="32.9154" rx="12.8245" ry="32.9154" transform="matrix(0.51253 0.858669 -0.873082 0.487574 152.539 132.708)" fill="#2D2D2D"/>
<ellipse id="Ellipse 22" cx="10.7376" cy="15.533" rx="10.7376" ry="15.533" transform="matrix(0.975962 -0.217943 0.23216 0.972678 140.334 141.922)" fill="#333333"/>
</g>
</g>
</g>
</svg>
