<svg width="270" height="86" viewBox="0 0 270 86" fill="none" xmlns="http://www.w3.org/2000/svg">
<rect width="270" height="86" rx="27" fill="#9891DF"/>
<path d="M76.1007 24.538C72.3399 22.812 68.3713 21.5801 64.2941 20.8731C64.2572 20.8669 64.2192 20.8723 64.1855 20.8885C64.1517 20.9047 64.1238 20.931 64.1056 20.9637C63.5945 21.87 63.029 23.0554 62.6339 23.9834C58.239 23.3164 53.7685 23.3164 49.3736 23.9834C48.9329 22.9496 48.4343 21.9414 47.8801 20.9637C47.8615 20.9314 47.8336 20.9054 47.7999 20.8892C47.7663 20.873 47.7285 20.8674 47.6916 20.8731C43.6137 21.5772 39.6448 22.8092 35.885 24.538C35.8528 24.5503 35.8259 24.5733 35.8089 24.6032C28.2906 35.8371 26.228 46.7955 27.2394 57.6161C27.243 57.6669 27.2756 57.7176 27.3155 57.7502C31.6935 60.9932 36.5904 63.4692 41.7974 65.0727C41.8341 65.0843 41.8736 65.0839 41.9101 65.0715C41.9467 65.0592 41.9783 65.0354 42.0004 65.0039C43.1169 63.4814 44.1101 61.8755 44.9656 60.1862C44.9774 60.1632 44.9842 60.1379 44.9854 60.112C44.9866 60.0862 44.9822 60.0603 44.9726 60.0363C44.963 60.0122 44.9483 59.9905 44.9296 59.9726C44.9109 59.9547 44.8886 59.941 44.8641 59.9325C43.3023 59.3322 41.7898 58.6111 40.3401 57.7756C40.3136 57.7603 40.2914 57.7387 40.2753 57.7126C40.2593 57.6866 40.2499 57.657 40.2481 57.6264C40.2463 57.5959 40.2521 57.5654 40.265 57.5377C40.2779 57.5099 40.2975 57.4858 40.322 57.4675C40.6265 57.2391 40.931 56.9999 41.221 56.7606C41.2466 56.74 41.2774 56.7268 41.3099 56.7223C41.3425 56.7178 41.3757 56.7223 41.4059 56.7352C50.8997 61.0707 61.1766 61.0707 70.5545 56.7352C70.5857 56.7213 70.6202 56.7163 70.6542 56.7207C70.6881 56.7252 70.7201 56.739 70.7466 56.7606C71.0366 56.9999 71.3411 57.2391 71.6456 57.4675C71.6703 57.4855 71.6901 57.5094 71.7033 57.537C71.7165 57.5645 71.7227 57.5949 71.7212 57.6255C71.7198 57.656 71.7108 57.6857 71.6951 57.7119C71.6794 57.7381 71.6574 57.76 71.6311 57.7756C70.1847 58.6186 68.6702 59.3389 67.1035 59.9289C67.0792 59.9382 67.0572 59.9525 67.0389 59.9709C67.0206 59.9894 67.0063 60.0114 66.9971 60.0357C66.9879 60.06 66.9838 60.0859 66.9853 60.1119C66.9868 60.1378 66.9937 60.1632 67.0056 60.1862C67.8756 61.8719 68.8725 63.4814 69.9672 65.0039C69.9894 65.0354 70.021 65.0592 70.0575 65.0715C70.094 65.0839 70.1335 65.0843 70.1703 65.0727C75.3859 63.4742 80.2908 60.9979 84.6739 57.7502C84.6956 57.7349 84.7138 57.7149 84.7269 57.6917C84.7401 57.6685 84.748 57.6427 84.75 57.6161C85.9607 45.1062 82.7236 34.2385 76.1732 24.6069C76.1666 24.591 76.1568 24.5766 76.1443 24.5648C76.1318 24.5529 76.117 24.5438 76.1007 24.538V24.538ZM46.383 51.0259C43.5229 51.0259 41.1702 48.4014 41.1702 45.1824C41.1702 41.9597 43.4794 39.3352 46.383 39.3352C49.3084 39.3352 51.6392 41.9815 51.5957 45.1824C51.5957 48.4014 49.2866 51.0259 46.383 51.0259ZM65.6535 51.0259C62.797 51.0259 60.4408 48.4014 60.4408 45.1824C60.4408 41.9597 62.7499 39.3352 65.6535 39.3352C68.5789 39.3352 70.9134 41.9815 70.8662 45.1824C70.8662 48.4014 68.5789 51.0259 65.6535 51.0259Z" fill="white"/>
<path d="M106.593 55V33.9941H112.657C120.401 33.9941 124.273 37.4072 124.273 44.2334C124.273 47.4756 123.199 50.083 121.051 52.0557C118.902 54.0186 116.021 55 112.408 55H106.593ZM110.064 36.9531V52.0557H112.848C115.299 52.0557 117.203 51.3818 118.561 50.0342C119.928 48.6865 120.611 46.7822 120.611 44.3213C120.611 39.4092 118.067 36.9531 112.979 36.9531H110.064ZM133.5 55H129.911V33.9941H133.5V55ZM139.519 54.165V50.5762C139.841 50.8691 140.222 51.1328 140.662 51.3672C141.111 51.6016 141.584 51.8018 142.082 51.9678C142.58 52.124 143.079 52.2461 143.577 52.334C144.075 52.4219 144.534 52.4658 144.954 52.4658C146.418 52.4658 147.507 52.2217 148.22 51.7334C148.943 51.2451 149.304 50.5371 149.304 49.6094C149.304 49.1113 149.182 48.6816 148.938 48.3203C148.704 47.9492 148.371 47.6123 147.942 47.3096C147.512 47.0068 147.004 46.7188 146.418 46.4453C145.842 46.1621 145.222 45.8691 144.558 45.5664C143.845 45.1855 143.181 44.7998 142.566 44.4092C141.951 44.0186 141.413 43.5889 140.954 43.1201C140.505 42.6416 140.149 42.1045 139.885 41.5088C139.631 40.9131 139.504 40.2148 139.504 39.4141C139.504 38.4277 139.724 37.5732 140.163 36.8506C140.613 36.1182 141.199 35.5176 141.921 35.0488C142.654 34.5703 143.484 34.2188 144.412 33.9941C145.339 33.7598 146.287 33.6426 147.253 33.6426C149.451 33.6426 151.052 33.8916 152.058 34.3896V37.832C150.867 36.9727 149.333 36.543 147.458 36.543C146.941 36.543 146.423 36.5918 145.906 36.6895C145.398 36.7871 144.939 36.9482 144.529 37.1729C144.128 37.3975 143.801 37.6855 143.547 38.0371C143.293 38.3887 143.166 38.8135 143.166 39.3115C143.166 39.7803 143.264 40.1855 143.459 40.5273C143.655 40.8691 143.938 41.1816 144.309 41.4648C144.69 41.748 145.149 42.0264 145.686 42.2998C146.233 42.5635 146.863 42.8516 147.576 43.1641C148.308 43.5449 148.996 43.9453 149.641 44.3652C150.295 44.7852 150.867 45.249 151.355 45.7568C151.853 46.2646 152.244 46.8311 152.527 47.4561C152.82 48.0713 152.966 48.7744 152.966 49.5654C152.966 50.6299 152.751 51.5283 152.322 52.2607C151.892 52.9932 151.311 53.5889 150.579 54.0479C149.856 54.5068 149.021 54.8389 148.074 55.0439C147.126 55.249 146.125 55.3516 145.071 55.3516C144.719 55.3516 144.285 55.3223 143.767 55.2637C143.259 55.2148 142.737 55.1367 142.2 55.0293C141.662 54.9316 141.155 54.8096 140.676 54.6631C140.198 54.5166 139.812 54.3506 139.519 54.165ZM173.282 54.1211C171.7 54.9414 169.732 55.3516 167.379 55.3516C164.332 55.3516 161.89 54.3896 160.054 52.4658C158.218 50.542 157.3 48.0176 157.3 44.8926C157.3 41.5332 158.331 38.8184 160.391 36.748C162.462 34.6777 165.074 33.6426 168.228 33.6426C170.259 33.6426 171.944 33.9307 173.282 34.5068V37.9639C171.866 37.124 170.303 36.7041 168.594 36.7041C166.319 36.7041 164.473 37.4316 163.057 38.8867C161.651 40.3418 160.948 42.2852 160.948 44.7168C160.948 47.0312 161.607 48.877 162.925 50.2539C164.244 51.6211 165.977 52.3047 168.126 52.3047C170.108 52.3047 171.827 51.8359 173.282 50.8984V54.1211ZM187.343 55.3516C184.315 55.3516 181.888 54.3701 180.062 52.4072C178.246 50.4443 177.338 47.8906 177.338 44.7461C177.338 41.3672 178.265 38.6719 180.121 36.6602C181.976 34.6484 184.496 33.6426 187.679 33.6426C190.629 33.6426 193.002 34.6191 194.799 36.5723C196.605 38.5254 197.509 41.0791 197.509 44.2334C197.509 47.6611 196.586 50.3711 194.74 52.3633C192.894 54.3555 190.429 55.3516 187.343 55.3516ZM187.504 36.7041C185.58 36.7041 184.012 37.4219 182.802 38.8574C181.6 40.293 181 42.1826 181 44.5264C181 46.8604 181.586 48.7402 182.758 50.166C183.929 51.5918 185.463 52.3047 187.357 52.3047C189.369 52.3047 190.956 51.626 192.118 50.2686C193.28 48.9111 193.861 47.0117 193.861 44.5703C193.861 42.0605 193.295 40.1221 192.162 38.7549C191.039 37.3877 189.486 36.7041 187.504 36.7041ZM219.392 55H215.319L211.965 49.375C211.662 48.8574 211.364 48.418 211.071 48.0566C210.788 47.6855 210.495 47.3828 210.192 47.1484C209.899 46.9141 209.577 46.7432 209.226 46.6357C208.874 46.5283 208.479 46.4746 208.039 46.4746H206.633V55H203.161V33.9941H210.075C211.062 33.9941 211.97 34.1113 212.8 34.3457C213.63 34.5801 214.353 34.9365 214.968 35.415C215.583 35.8838 216.062 36.4746 216.403 37.1875C216.755 37.8906 216.931 38.7158 216.931 39.6631C216.931 40.4053 216.818 41.0889 216.594 41.7139C216.379 42.3291 216.066 42.8809 215.656 43.3691C215.256 43.8477 214.768 44.2578 214.191 44.5996C213.625 44.9414 212.985 45.2051 212.272 45.3906V45.4492C212.653 45.6641 212.985 45.9033 213.269 46.167C213.552 46.4209 213.82 46.6846 214.074 46.958C214.328 47.2314 214.577 47.5439 214.821 47.8955C215.075 48.2373 215.354 48.6377 215.656 49.0967L219.392 55ZM206.633 36.8213V43.6475H209.533C210.07 43.6475 210.563 43.5645 211.013 43.3984C211.472 43.2324 211.867 42.9932 212.199 42.6807C212.531 42.3682 212.79 41.9873 212.976 41.5381C213.161 41.0889 213.254 40.5859 213.254 40.0293C213.254 39.0234 212.937 38.2373 212.302 37.6709C211.667 37.1045 210.754 36.8213 209.562 36.8213H206.633ZM223.653 55V33.9941H229.717C237.461 33.9941 241.333 37.4072 241.333 44.2334C241.333 47.4756 240.259 50.083 238.111 52.0557C235.962 54.0186 233.081 55 229.468 55H223.653ZM227.124 36.9531V52.0557H229.907C232.359 52.0557 234.263 51.3818 235.62 50.0342C236.988 48.6865 237.671 46.7822 237.671 44.3213C237.671 39.4092 235.127 36.9531 230.039 36.9531H227.124Z" fill="white"/>
</svg>
