<svg width="304" height="86" viewBox="0 0 304 86" fill="none" xmlns="http://www.w3.org/2000/svg">
<rect width="304" height="86" rx="27" fill="#9891DF"/>
<path d="M76.1007 24.538C72.3399 22.812 68.3713 21.5801 64.2941 20.8731C64.2572 20.8669 64.2192 20.8723 64.1855 20.8885C64.1517 20.9047 64.1238 20.931 64.1056 20.9637C63.5945 21.87 63.029 23.0554 62.6339 23.9834C58.239 23.3164 53.7685 23.3164 49.3736 23.9834C48.9329 22.9496 48.4343 21.9414 47.8801 20.9637C47.8615 20.9314 47.8336 20.9054 47.7999 20.8892C47.7663 20.873 47.7285 20.8674 47.6916 20.8731C43.6137 21.5772 39.6448 22.8092 35.885 24.538C35.8528 24.5503 35.8259 24.5733 35.8089 24.6032C28.2906 35.8371 26.228 46.7955 27.2394 57.6161C27.243 57.6669 27.2756 57.7176 27.3155 57.7502C31.6935 60.9932 36.5904 63.4692 41.7974 65.0727C41.8341 65.0843 41.8736 65.0839 41.9101 65.0715C41.9467 65.0592 41.9783 65.0354 42.0004 65.0039C43.1169 63.4814 44.1101 61.8755 44.9656 60.1862C44.9774 60.1632 44.9842 60.1379 44.9854 60.112C44.9866 60.0862 44.9822 60.0603 44.9726 60.0363C44.963 60.0122 44.9483 59.9905 44.9296 59.9726C44.9109 59.9547 44.8886 59.941 44.8641 59.9325C43.3023 59.3322 41.7898 58.6111 40.3401 57.7756C40.3136 57.7603 40.2914 57.7387 40.2753 57.7126C40.2593 57.6866 40.2499 57.657 40.2481 57.6264C40.2463 57.5959 40.2521 57.5654 40.265 57.5377C40.2779 57.5099 40.2975 57.4858 40.322 57.4675C40.6265 57.2391 40.931 56.9999 41.221 56.7606C41.2466 56.74 41.2774 56.7268 41.3099 56.7223C41.3425 56.7178 41.3757 56.7223 41.4059 56.7352C50.8997 61.0707 61.1766 61.0707 70.5545 56.7352C70.5857 56.7213 70.6202 56.7163 70.6542 56.7207C70.6881 56.7252 70.7201 56.739 70.7466 56.7606C71.0366 56.9999 71.3411 57.2391 71.6456 57.4675C71.6703 57.4855 71.6901 57.5094 71.7033 57.537C71.7165 57.5645 71.7227 57.5949 71.7212 57.6255C71.7198 57.656 71.7108 57.6857 71.6951 57.7119C71.6794 57.7381 71.6574 57.76 71.6311 57.7756C70.1847 58.6186 68.6702 59.3389 67.1035 59.9289C67.0792 59.9382 67.0572 59.9525 67.0389 59.9709C67.0206 59.9894 67.0063 60.0114 66.9971 60.0357C66.9879 60.06 66.9838 60.0859 66.9853 60.1119C66.9868 60.1378 66.9937 60.1632 67.0056 60.1862C67.8756 61.8719 68.8725 63.4814 69.9672 65.0039C69.9894 65.0354 70.021 65.0592 70.0575 65.0715C70.094 65.0839 70.1335 65.0843 70.1703 65.0727C75.3859 63.4742 80.2908 60.9979 84.6739 57.7502C84.6956 57.7349 84.7138 57.7149 84.7269 57.6917C84.7401 57.6685 84.748 57.6427 84.75 57.6161C85.9607 45.1062 82.7236 34.2385 76.1732 24.6069C76.1666 24.591 76.1568 24.5766 76.1443 24.5648C76.1318 24.5529 76.117 24.5438 76.1007 24.538V24.538ZM46.383 51.0259C43.5229 51.0259 41.1702 48.4014 41.1702 45.1824C41.1702 41.9597 43.4794 39.3352 46.383 39.3352C49.3084 39.3352 51.6392 41.9815 51.5957 45.1824C51.5957 48.4014 49.2866 51.0259 46.383 51.0259ZM65.6535 51.0259C62.797 51.0259 60.4408 48.4014 60.4408 45.1824C60.4408 41.9597 62.7499 39.3352 65.6535 39.3352C68.5789 39.3352 70.9134 41.9815 70.8662 45.1824C70.8662 48.4014 68.5789 51.0259 65.6535 51.0259Z" fill="white"/>
<path d="M129.198 58V32.0928H136.677C146.228 32.0928 151.004 36.3022 151.004 44.7212C151.004 48.7199 149.679 51.9357 147.029 54.3687C144.38 56.7896 140.826 58 136.37 58H129.198ZM133.479 35.7422V54.3687H136.912C139.935 54.3687 142.284 53.5376 143.958 51.8755C145.644 50.2134 146.487 47.8647 146.487 44.8296C146.487 38.7713 143.35 35.7422 137.075 35.7422H133.479ZM157.399 35.6157C156.713 35.6157 156.123 35.3929 155.629 34.9473C155.147 34.5016 154.906 33.9355 154.906 33.249C154.906 32.5625 155.147 31.9904 155.629 31.5327C156.123 31.075 156.713 30.8462 157.399 30.8462C158.11 30.8462 158.712 31.075 159.206 31.5327C159.7 31.9904 159.947 32.5625 159.947 33.249C159.947 33.8994 159.7 34.4595 159.206 34.9292C158.712 35.3869 158.11 35.6157 157.399 35.6157ZM159.477 58H155.286V39.5H159.477V58ZM163.813 57.4219V53.5376C165.379 54.73 167.107 55.3262 168.998 55.3262C171.527 55.3262 172.792 54.5794 172.792 53.0859C172.792 52.6644 172.684 52.3091 172.467 52.02C172.25 51.7189 171.955 51.4539 171.582 51.2251C171.22 50.9963 170.787 50.7915 170.281 50.6108C169.787 50.4302 169.233 50.2254 168.619 49.9966C167.86 49.6955 167.173 49.3763 166.559 49.0391C165.957 48.7018 165.451 48.3224 165.042 47.9009C164.644 47.4673 164.343 46.9795 164.138 46.4375C163.933 45.8955 163.831 45.2632 163.831 44.5405C163.831 43.6493 164.042 42.8664 164.463 42.1919C164.885 41.5054 165.451 40.9333 166.162 40.4756C166.872 40.0059 167.679 39.6566 168.583 39.4277C169.486 39.1868 170.419 39.0664 171.383 39.0664C173.093 39.0664 174.623 39.3254 175.972 39.8433V43.5107C174.671 42.6195 173.177 42.1738 171.491 42.1738C170.961 42.1738 170.479 42.228 170.046 42.3364C169.624 42.4448 169.263 42.5954 168.962 42.7881C168.661 42.9808 168.426 43.2157 168.257 43.4927C168.089 43.7576 168.004 44.0527 168.004 44.3779C168.004 44.7754 168.089 45.1126 168.257 45.3896C168.426 45.6667 168.673 45.9136 168.998 46.1304C169.335 46.3351 169.733 46.5278 170.19 46.7085C170.66 46.8771 171.196 47.0638 171.798 47.2686C172.593 47.5938 173.304 47.925 173.93 48.2622C174.569 48.5994 175.111 48.9849 175.556 49.4185C176.002 49.84 176.345 50.3338 176.586 50.8999C176.827 51.4539 176.947 52.1164 176.947 52.8872C176.947 53.8267 176.73 54.6457 176.297 55.3442C175.863 56.0428 175.285 56.6209 174.562 57.0786C173.84 57.5363 173.003 57.8735 172.051 58.0903C171.112 58.3192 170.118 58.4336 169.07 58.4336C167.047 58.4336 165.294 58.0964 163.813 57.4219ZM194.183 57.1509C192.701 58.006 190.949 58.4336 188.925 58.4336C186.179 58.4336 183.963 57.5785 182.277 55.8682C180.591 54.1458 179.748 51.9176 179.748 49.1836C179.748 46.1364 180.651 43.6914 182.458 41.8486C184.276 39.9938 186.703 39.0664 189.738 39.0664C191.424 39.0664 192.912 39.3615 194.201 39.9517V43.854C192.912 42.8905 191.539 42.4087 190.082 42.4087C188.311 42.4087 186.86 43.0109 185.728 44.2153C184.595 45.4077 184.029 46.9735 184.029 48.9126C184.029 50.8276 184.559 52.3392 185.619 53.4473C186.691 54.5553 188.124 55.1094 189.919 55.1094C191.424 55.1094 192.846 54.5734 194.183 53.5015V57.1509ZM206.558 58.4336C203.704 58.4336 201.421 57.5724 199.711 55.8501C198.013 54.1157 197.164 51.8213 197.164 48.9668C197.164 45.8594 198.049 43.4325 199.819 41.686C201.602 39.9396 203.999 39.0664 207.01 39.0664C209.9 39.0664 212.153 39.9155 213.767 41.6138C215.381 43.312 216.188 45.6667 216.188 48.6777C216.188 51.6286 215.314 53.9953 213.568 55.7778C211.833 57.5483 209.497 58.4336 206.558 58.4336ZM206.757 42.4087C205.119 42.4087 203.824 42.9808 202.873 44.125C201.921 45.2692 201.445 46.847 201.445 48.8584C201.445 50.7975 201.927 52.3271 202.891 53.4473C203.854 54.5553 205.143 55.1094 206.757 55.1094C208.407 55.1094 209.672 54.5614 210.551 53.4653C211.442 52.3693 211.888 50.8096 211.888 48.7861C211.888 46.7507 211.442 45.1789 210.551 44.0708C209.672 42.9627 208.407 42.4087 206.757 42.4087ZM231.201 43.4927C230.695 43.0952 229.966 42.8965 229.015 42.8965C227.774 42.8965 226.738 43.4565 225.907 44.5767C225.076 45.6968 224.661 47.2204 224.661 49.1475V58H220.469V39.5H224.661V43.312H224.733C225.142 42.0112 225.769 40.9995 226.612 40.2769C227.467 39.5422 228.418 39.1748 229.466 39.1748C230.225 39.1748 230.803 39.2892 231.201 39.5181V43.4927ZM250.658 58H246.467V54.8564H246.395C245.046 57.2412 242.968 58.4336 240.162 58.4336C237.885 58.4336 236.061 57.6086 234.688 55.9585C233.326 54.2964 232.646 52.0381 232.646 49.1836C232.646 46.1243 233.399 43.6733 234.904 41.8306C236.422 39.9878 238.439 39.0664 240.957 39.0664C243.45 39.0664 245.262 40.0661 246.395 42.0654H246.467V30.6113H250.658V58ZM246.521 49.5449V47.124C246.521 45.8112 246.093 44.6971 245.238 43.7817C244.383 42.8664 243.293 42.4087 241.968 42.4087C240.403 42.4087 239.168 42.9928 238.265 44.1611C237.373 45.3294 236.928 46.9494 236.928 49.021C236.928 50.8999 237.355 52.3874 238.21 53.4834C239.078 54.5674 240.24 55.1094 241.697 55.1094C243.131 55.1094 244.293 54.5854 245.184 53.5376C246.075 52.4777 246.521 51.1468 246.521 49.5449Z" fill="white"/>
</svg>
