<svg width="293" height="86" viewBox="0 0 293 86" fill="none" xmlns="http://www.w3.org/2000/svg">
<rect width="293" height="86" rx="27" fill="#48A7FF"/>
<path d="M85 43.1759C85 27.0611 72.0155 13.9976 55.9983 13.9976C39.9811 13.9976 26.9966 27.0611 26.9966 43.1759C26.9966 57.7397 37.6021 69.8109 51.4668 71.9998V51.6103H44.1031V43.1759H51.4668V36.7476C51.4668 29.4347 55.7965 25.3954 62.4211 25.3954C65.5942 25.3954 68.9131 25.9653 68.9131 25.9653V33.1459H65.2561C61.6533 33.1459 60.5298 35.395 60.5298 37.7025V43.1759H68.5732L67.2874 51.6103H60.5298V71.9998C74.3945 69.8109 85 57.7397 85 43.1759Z" fill="white"/>
<path d="M117.931 36.9531H110.079V43.2666H117.315V46.2109H110.079V55H106.593V33.9941H117.931V36.9531ZM138.92 55H135.097L133.207 49.6533H124.946L123.129 55H119.321L127.187 33.9941H131.113L138.92 55ZM132.284 46.8115L129.369 38.4326C129.281 38.1592 129.189 37.7197 129.091 37.1143H129.032C128.945 37.6709 128.847 38.1104 128.739 38.4326L125.854 46.8115H132.284ZM157.829 54.1211C156.247 54.9414 154.28 55.3516 151.926 55.3516C148.879 55.3516 146.438 54.3896 144.602 52.4658C142.766 50.542 141.848 48.0176 141.848 44.8926C141.848 41.5332 142.878 38.8184 144.939 36.748C147.009 34.6777 149.621 33.6426 152.776 33.6426C154.807 33.6426 156.492 33.9307 157.829 34.5068V37.9639C156.413 37.124 154.851 36.7041 153.142 36.7041C150.867 36.7041 149.021 37.4316 147.605 38.8867C146.199 40.3418 145.496 42.2852 145.496 44.7168C145.496 47.0312 146.155 48.877 147.473 50.2539C148.791 51.6211 150.525 52.3047 152.673 52.3047C154.656 52.3047 156.374 51.8359 157.829 50.8984V54.1211ZM175.406 55H163.614V33.9941H174.937V36.9531H167.1V42.9004H174.322V45.8447H167.1V52.0557H175.406V55ZM180.941 55V33.9941H187.606C189.637 33.9941 191.244 34.4385 192.426 35.3271C193.617 36.2158 194.213 37.373 194.213 38.7988C194.213 39.9902 193.876 41.0254 193.202 41.9043C192.528 42.7832 191.596 43.4082 190.404 43.7793V43.8379C191.849 44.0039 193.002 44.541 193.861 45.4492C194.73 46.3477 195.165 47.5195 195.165 48.9648C195.165 50.7617 194.457 52.2168 193.041 53.3301C191.625 54.4434 189.838 55 187.679 55H180.941ZM184.413 36.792V42.7686H186.669C187.88 42.7686 188.827 42.4854 189.511 41.9189C190.204 41.3428 190.551 40.5322 190.551 39.4873C190.551 37.6904 189.349 36.792 186.947 36.792H184.413ZM184.413 45.5664V52.2168H187.387C188.685 52.2168 189.686 51.9189 190.389 51.3232C191.102 50.7178 191.459 49.8877 191.459 48.833C191.459 46.6553 189.95 45.5664 186.932 45.5664H184.413ZM209.533 55.3516C206.506 55.3516 204.079 54.3701 202.253 52.4072C200.437 50.4443 199.528 47.8906 199.528 44.7461C199.528 41.3672 200.456 38.6719 202.312 36.6602C204.167 34.6484 206.687 33.6426 209.87 33.6426C212.819 33.6426 215.192 34.6191 216.989 36.5723C218.796 38.5254 219.699 41.0791 219.699 44.2334C219.699 47.6611 218.776 50.3711 216.931 52.3633C215.085 54.3555 212.619 55.3516 209.533 55.3516ZM209.694 36.7041C207.771 36.7041 206.203 37.4219 204.992 38.8574C203.791 40.293 203.19 42.1826 203.19 44.5264C203.19 46.8604 203.776 48.7402 204.948 50.166C206.12 51.5918 207.653 52.3047 209.548 52.3047C211.56 52.3047 213.146 51.626 214.309 50.2686C215.471 48.9111 216.052 47.0117 216.052 44.5703C216.052 42.0605 215.485 40.1221 214.353 38.7549C213.229 37.3877 211.677 36.7041 209.694 36.7041ZM234.009 55.3516C230.982 55.3516 228.555 54.3701 226.729 52.4072C224.912 50.4443 224.004 47.8906 224.004 44.7461C224.004 41.3672 224.932 38.6719 226.787 36.6602C228.643 34.6484 231.162 33.6426 234.346 33.6426C237.295 33.6426 239.668 34.6191 241.465 36.5723C243.272 38.5254 244.175 41.0791 244.175 44.2334C244.175 47.6611 243.252 50.3711 241.406 52.3633C239.561 54.3555 237.095 55.3516 234.009 55.3516ZM234.17 36.7041C232.246 36.7041 230.679 37.4219 229.468 38.8574C228.267 40.293 227.666 42.1826 227.666 44.5264C227.666 46.8604 228.252 48.7402 229.424 50.166C230.596 51.5918 232.129 52.3047 234.024 52.3047C236.035 52.3047 237.622 51.626 238.784 50.2686C239.946 48.9111 240.528 47.0117 240.528 44.5703C240.528 42.0605 239.961 40.1221 238.828 38.7549C237.705 37.3877 236.153 36.7041 234.17 36.7041ZM265.721 55H261.18L253.871 45.3906C253.597 45.0293 253.431 44.7852 253.372 44.6582H253.314V55H249.828V33.9941H253.314V43.8672H253.372C253.49 43.6523 253.656 43.4131 253.871 43.1494L260.916 33.9941H265.091L256.844 44.0723L265.721 55Z" fill="white"/>
</svg>
