<svg width="304" height="86" viewBox="0 0 304 86" fill="none" xmlns="http://www.w3.org/2000/svg">
<rect width="304" height="86" rx="27" fill="#48A7FF"/>
<path d="M85 43.1759C85 27.0611 72.0155 13.9976 55.9983 13.9976C39.9811 13.9976 26.9966 27.0611 26.9966 43.1759C26.9966 57.7397 37.6021 69.8109 51.4668 71.9998V51.6103H44.1031V43.1759H51.4668V36.7476C51.4668 29.4347 55.7965 25.3954 62.4211 25.3954C65.5942 25.3954 68.9131 25.9653 68.9131 25.9653V33.1459H65.2561C61.6533 33.1459 60.5298 35.395 60.5298 37.7025V43.1759H68.5732L67.2874 51.6103H60.5298V71.9998C74.3945 69.8109 85 57.7397 85 43.1759Z" fill="white"/>
<path d="M127.181 35.7422H117.498V43.5288H126.422V47.1602H117.498V58H113.198V32.0928H127.181V35.7422ZM144.272 58H140.207V55.1094H140.135C138.858 57.3255 136.985 58.4336 134.516 58.4336C132.697 58.4336 131.27 57.9398 130.234 56.9521C129.211 55.9645 128.699 54.6577 128.699 53.0317C128.699 49.5389 130.71 47.5034 134.733 46.9253L140.225 46.1484C140.225 43.5107 138.972 42.1919 136.467 42.1919C134.263 42.1919 132.276 42.9507 130.505 44.4683V40.8008C132.457 39.6445 134.709 39.0664 137.262 39.0664C141.935 39.0664 144.272 41.3669 144.272 45.9678V58ZM140.225 48.9126L136.341 49.4546C135.136 49.6112 134.227 49.9062 133.613 50.3398C133.011 50.7614 132.709 51.5081 132.709 52.5801C132.709 53.363 132.986 54.0073 133.541 54.5132C134.107 55.007 134.859 55.2539 135.799 55.2539C137.076 55.2539 138.129 54.8083 138.96 53.917C139.804 53.0137 140.225 51.8815 140.225 50.5205V48.9126ZM162.646 57.1509C161.164 58.006 159.412 58.4336 157.388 58.4336C154.642 58.4336 152.426 57.5785 150.74 55.8682C149.054 54.1458 148.21 51.9176 148.21 49.1836C148.21 46.1364 149.114 43.6914 150.92 41.8486C152.739 39.9938 155.166 39.0664 158.201 39.0664C159.887 39.0664 161.375 39.3615 162.664 39.9517V43.854C161.375 42.8905 160.002 42.4087 158.544 42.4087C156.774 42.4087 155.323 43.0109 154.19 44.2153C153.058 45.4077 152.492 46.9735 152.492 48.9126C152.492 50.8276 153.022 52.3392 154.082 53.4473C155.154 54.5553 156.587 55.1094 158.382 55.1094C159.887 55.1094 161.309 54.5734 162.646 53.5015V57.1509ZM182.482 49.8882H169.872C169.92 51.5985 170.444 52.9173 171.444 53.8447C172.456 54.7721 173.841 55.2358 175.599 55.2358C177.574 55.2358 179.387 54.6457 181.037 53.4653V56.8438C179.351 57.9036 177.123 58.4336 174.353 58.4336C171.631 58.4336 169.493 57.5965 167.939 55.9224C166.397 54.2362 165.626 51.8695 165.626 48.8223C165.626 45.9437 166.476 43.6011 168.174 41.7944C169.884 39.9757 172.004 39.0664 174.533 39.0664C177.062 39.0664 179.02 39.8794 180.405 41.5054C181.79 43.1313 182.482 45.3896 182.482 48.2803V49.8882ZM178.436 46.9253C178.424 45.4198 178.068 44.2515 177.37 43.4204C176.671 42.5773 175.708 42.1558 174.479 42.1558C173.275 42.1558 172.251 42.5954 171.408 43.4746C170.577 44.3538 170.065 45.5041 169.872 46.9253H178.436ZM190.739 55.3262H190.667V58H186.475V30.6113H190.667V42.752H190.739C192.172 40.2949 194.268 39.0664 197.026 39.0664C199.362 39.0664 201.187 39.8975 202.5 41.5596C203.825 43.2096 204.487 45.4258 204.487 48.208C204.487 51.3034 203.747 53.7845 202.265 55.6514C200.784 57.5062 198.76 58.4336 196.195 58.4336C193.786 58.4336 191.967 57.3978 190.739 55.3262ZM190.63 47.9731V50.2676C190.63 51.6165 191.058 52.7607 191.913 53.7002C192.78 54.6396 193.876 55.1094 195.201 55.1094C196.755 55.1094 197.971 54.5072 198.851 53.3027C199.742 52.0863 200.188 50.394 200.188 48.2261C200.188 46.4074 199.772 44.9862 198.941 43.9624C198.122 42.9266 197.008 42.4087 195.599 42.4087C194.105 42.4087 192.901 42.9386 191.985 43.9985C191.082 45.0584 190.63 46.3833 190.63 47.9731ZM216.971 58.4336C214.117 58.4336 211.834 57.5724 210.124 55.8501C208.426 54.1157 207.577 51.8213 207.577 48.9668C207.577 45.8594 208.462 43.4325 210.232 41.686C212.015 39.9396 214.412 39.0664 217.423 39.0664C220.313 39.0664 222.566 39.9155 224.18 41.6138C225.794 43.312 226.601 45.6667 226.601 48.6777C226.601 51.6286 225.727 53.9953 223.981 55.7778C222.247 57.5483 219.91 58.4336 216.971 58.4336ZM217.17 42.4087C215.532 42.4087 214.237 42.9808 213.286 44.125C212.334 45.2692 211.858 46.847 211.858 48.8584C211.858 50.7975 212.34 52.3271 213.304 53.4473C214.267 54.5553 215.556 55.1094 217.17 55.1094C218.82 55.1094 220.085 54.5614 220.964 53.4653C221.855 52.3693 222.301 50.8096 222.301 48.7861C222.301 46.7507 221.855 45.1789 220.964 44.0708C220.085 42.9627 218.82 42.4087 217.17 42.4087ZM239.084 58.4336C236.23 58.4336 233.948 57.5724 232.237 55.8501C230.539 54.1157 229.69 51.8213 229.69 48.9668C229.69 45.8594 230.575 43.4325 232.346 41.686C234.128 39.9396 236.525 39.0664 239.536 39.0664C242.427 39.0664 244.679 39.9155 246.293 41.6138C247.907 43.312 248.714 45.6667 248.714 48.6777C248.714 51.6286 247.841 53.9953 246.094 55.7778C244.36 57.5483 242.023 58.4336 239.084 58.4336ZM239.283 42.4087C237.645 42.4087 236.35 42.9808 235.399 44.125C234.447 45.2692 233.972 46.847 233.972 48.8584C233.972 50.7975 234.453 52.3271 235.417 53.4473C236.381 54.5553 237.669 55.1094 239.283 55.1094C240.933 55.1094 242.198 54.5614 243.077 53.4653C243.968 52.3693 244.414 50.8096 244.414 48.7861C244.414 46.7507 243.968 45.1789 243.077 44.0708C242.198 42.9627 240.933 42.4087 239.283 42.4087ZM269.779 58H264.468L257.277 49.1113H257.205V58H252.996V30.6113H257.205V47.9731H257.277L264.07 39.5H269.111L261.469 48.4248L269.779 58Z" fill="white"/>
</svg>
