<svg width="248" height="86" viewBox="0 0 248 86" fill="none" xmlns="http://www.w3.org/2000/svg">
<rect width="248" height="86" rx="27" fill="#222222"/>
<path d="M56 15C39.9775 15 27 27.9775 27 44C27 56.8325 35.3012 67.6713 46.8287 71.5138C48.2787 71.7675 48.8225 70.8975 48.8225 70.1363C48.8225 69.4475 48.7863 67.1638 48.7863 64.735C41.5 66.0763 39.615 62.9587 39.035 61.3275C38.7087 60.4937 37.295 57.92 36.0625 57.2312C35.0475 56.6875 33.5975 55.3462 36.0263 55.31C38.31 55.2737 39.9413 57.4125 40.485 58.2825C43.095 62.6687 47.2638 61.4363 48.9313 60.675C49.185 58.79 49.9462 57.5212 50.78 56.7962C44.3275 56.0712 37.585 53.57 37.585 42.4775C37.585 39.3237 38.7088 36.7137 40.5575 34.6837C40.2675 33.9587 39.2525 30.9862 40.8475 26.9987C40.8475 26.9987 43.2763 26.2375 48.8225 29.9713C51.1425 29.3188 53.6075 28.9925 56.0725 28.9925C58.5375 28.9925 61.0025 29.3188 63.3225 29.9713C68.8688 26.2013 71.2975 26.9987 71.2975 26.9987C72.8925 30.9862 71.8775 33.9587 71.5875 34.6837C73.4363 36.7137 74.56 39.2875 74.56 42.4775C74.56 53.6062 67.7813 56.0712 61.3288 56.7962C62.38 57.7025 63.2863 59.4425 63.2863 62.1613C63.2863 66.04 63.25 69.1575 63.25 70.1363C63.25 70.8975 63.7938 71.8038 65.2438 71.5138C71.0008 69.5702 76.0034 65.8703 79.5474 60.9346C83.0914 55.999 84.9984 50.0762 85 44C85 27.9775 72.0225 15 56 15Z" fill="#FFF9F9"/>
<path d="M122.984 53.5645C120.797 54.7559 118.36 55.3516 115.675 55.3516C112.569 55.3516 110.055 54.3848 108.131 52.4512C106.207 50.5176 105.245 47.959 105.245 44.7754C105.245 41.5234 106.295 38.8574 108.395 36.7773C110.504 34.6875 113.18 33.6426 116.422 33.6426C118.756 33.6426 120.719 33.9844 122.311 34.668V38.2568C120.699 37.1826 118.78 36.6455 116.554 36.6455C114.317 36.6455 112.481 37.3828 111.046 38.8574C109.62 40.332 108.907 42.2412 108.907 44.585C108.907 46.9971 109.522 48.8965 110.753 50.2832C111.983 51.6602 113.653 52.3486 115.763 52.3486C117.208 52.3486 118.458 52.0703 119.513 51.5137V46.5186H115.089V43.5889H122.984V53.5645ZM132.885 55H129.296V33.9941H132.885V55ZM153.347 36.9531H147.312V55H143.826V36.9531H137.805V33.9941H153.347V36.9531ZM175.098 55H171.597V45.8887H161.71V55H158.223V33.9941H161.71V42.8271H171.597V33.9941H175.098V55ZM198.241 46.5039C198.241 52.4023 195.448 55.3516 189.862 55.3516C184.511 55.3516 181.835 52.5146 181.835 46.8408V33.9941H185.321V46.123C185.321 50.2441 186.923 52.3047 190.126 52.3047C193.212 52.3047 194.755 50.3174 194.755 46.3428V33.9941H198.241V46.5039ZM204.978 55V33.9941H211.643C213.674 33.9941 215.28 34.4385 216.462 35.3271C217.653 36.2158 218.249 37.373 218.249 38.7988C218.249 39.9902 217.912 41.0254 217.238 41.9043C216.564 42.7832 215.632 43.4082 214.44 43.7793V43.8379C215.886 44.0039 217.038 44.541 217.897 45.4492C218.767 46.3477 219.201 47.5195 219.201 48.9648C219.201 50.7617 218.493 52.2168 217.077 53.3301C215.661 54.4434 213.874 55 211.716 55H204.978ZM208.449 36.792V42.7686H210.705C211.916 42.7686 212.863 42.4854 213.547 41.9189C214.24 41.3428 214.587 40.5322 214.587 39.4873C214.587 37.6904 213.386 36.792 210.983 36.792H208.449ZM208.449 45.5664V52.2168H211.423C212.722 52.2168 213.723 51.9189 214.426 51.3232C215.139 50.7178 215.495 49.8877 215.495 48.833C215.495 46.6553 213.986 45.5664 210.969 45.5664H208.449Z" fill="white"/>
</svg>
