<svg width="316" height="86" viewBox="0 0 316 86" fill="none" xmlns="http://www.w3.org/2000/svg">
<rect width="316" height="86" rx="27" fill="#FB5792"/>
<path d="M56.0027 14C48.1267 14 47.1383 14.0344 44.0449 14.1752C40.9576 14.3166 38.8502 14.8054 37.0063 15.5225C35.0989 16.2632 33.481 17.2541 31.869 18.8666C30.2559 20.4785 29.265 22.0965 28.5219 24.0033C27.8029 25.8478 27.3136 27.9558 27.1746 31.0419C27.0363 34.1353 27 35.1243 27 43.0003C27 50.8763 27.035 51.8617 27.1752 54.9551C27.3172 58.0424 27.806 60.1497 28.5225 61.9937C29.2638 63.9011 30.2547 65.519 31.8672 67.131C33.4785 68.7441 35.0965 69.7374 37.0027 70.4781C38.8478 71.1952 40.9558 71.684 44.0425 71.8254C47.1359 71.9662 48.1237 72.0006 55.9991 72.0006C63.8757 72.0006 64.8611 71.9662 67.9545 71.8254C71.0418 71.684 73.1516 71.1952 74.9967 70.4781C76.9035 69.7374 78.519 68.7441 80.1304 67.131C81.7435 65.519 82.7343 63.9011 83.4775 61.9943C84.1904 60.1497 84.6798 58.0418 84.8248 54.9557C84.9637 51.8623 85 50.8763 85 43.0003C85 35.1243 84.9637 34.1359 84.8248 31.0425C84.6798 27.9552 84.1904 25.8478 83.4775 24.0039C82.7343 22.0965 81.7435 20.4785 80.1304 18.8666C78.5172 17.2535 76.9041 16.2626 74.9949 15.5225C73.1461 14.8054 71.0376 14.3166 67.9502 14.1752C64.8569 14.0344 63.8721 14 55.9937 14H56.0027ZM53.4012 19.2261C54.1733 19.2249 55.0348 19.2261 56.0027 19.2261C63.7458 19.2261 64.6635 19.2539 67.7213 19.3928C70.5488 19.5221 72.0834 19.9946 73.1056 20.3915C74.459 20.9172 75.4239 21.5455 76.4383 22.5605C77.4533 23.5755 78.0816 24.5422 78.6085 25.8956C79.0054 26.9166 79.4785 28.4512 79.6071 31.2787C79.7461 34.3359 79.7763 35.2542 79.7763 42.9937C79.7763 50.7331 79.7461 51.6514 79.6071 54.7086C79.4779 57.5361 79.0054 59.0707 78.6085 60.0917C78.0828 61.4451 77.4533 62.4087 76.4383 63.4232C75.4233 64.4382 74.4596 65.0665 73.1056 65.5921C72.0846 65.9909 70.5488 66.4621 67.7213 66.5914C64.6641 66.7304 63.7458 66.7606 56.0027 66.7606C48.259 66.7606 47.3413 66.7304 44.2842 66.5914C41.4567 66.4609 39.9221 65.9885 38.8992 65.5915C37.5458 65.0659 36.5792 64.4376 35.5642 63.4226C34.5491 62.4075 33.9208 61.4433 33.394 60.0893C32.997 59.0683 32.524 57.5337 32.3953 54.7061C32.2563 51.649 32.2285 50.7307 32.2285 42.9864C32.2285 35.2421 32.2563 34.3286 32.3953 31.2715C32.5246 28.444 32.997 26.9094 33.394 25.8871C33.9196 24.5338 34.5491 23.5671 35.5642 22.5521C36.5792 21.5371 37.5458 20.9087 38.8992 20.3819C39.9214 19.9831 41.4567 19.5119 44.2842 19.382C46.9595 19.2611 47.9962 19.2249 53.4012 19.2188V19.2261ZM71.4828 24.0414C69.5616 24.0414 68.0028 25.5983 68.0028 27.5202C68.0028 29.4414 69.5616 31.0002 71.4828 31.0002C73.4041 31.0002 74.9629 29.4414 74.9629 27.5202C74.9629 25.5989 73.4041 24.0401 71.4828 24.0401V24.0414ZM56.0027 28.1074C47.7781 28.1074 41.1099 34.7757 41.1099 43.0003C41.1099 51.2249 47.7781 57.8901 56.0027 57.8901C64.2273 57.8901 70.8932 51.2249 70.8932 43.0003C70.8932 34.7757 64.2267 28.1074 56.0021 28.1074H56.0027ZM56.0027 33.3335C61.3412 33.3335 65.6695 37.6612 65.6695 43.0003C65.6695 48.3388 61.3412 52.6671 56.0027 52.6671C50.6636 52.6671 46.336 48.3388 46.336 43.0003C46.336 37.6612 50.6636 33.3335 56.0027 33.3335V33.3335Z" fill="white"/>
<path d="M110.167 55H106.578V33.9941H110.167V55ZM134.965 55H131.156L121.122 39.5605C120.868 39.1699 120.658 38.7646 120.492 38.3447H120.404C120.483 38.7939 120.522 39.7559 120.522 41.2305V55H117.153V33.9941H121.21L130.907 49.0674C131.318 49.6924 131.581 50.1221 131.698 50.3564H131.757C131.659 49.7998 131.611 48.8574 131.611 47.5293V33.9941H134.965V55ZM141.013 54.165V50.5762C141.335 50.8691 141.716 51.1328 142.156 51.3672C142.605 51.6016 143.079 51.8018 143.577 51.9678C144.075 52.124 144.573 52.2461 145.071 52.334C145.569 52.4219 146.028 52.4658 146.448 52.4658C147.912 52.4658 149.001 52.2217 149.714 51.7334C150.437 51.2451 150.798 50.5371 150.798 49.6094C150.798 49.1113 150.676 48.6816 150.432 48.3203C150.198 47.9492 149.866 47.6123 149.436 47.3096C149.006 47.0068 148.498 46.7188 147.912 46.4453C147.336 46.1621 146.716 45.8691 146.052 45.5664C145.339 45.1855 144.675 44.7998 144.06 44.4092C143.445 44.0186 142.908 43.5889 142.449 43.1201C141.999 42.6416 141.643 42.1045 141.379 41.5088C141.125 40.9131 140.998 40.2148 140.998 39.4141C140.998 38.4277 141.218 37.5732 141.658 36.8506C142.107 36.1182 142.693 35.5176 143.415 35.0488C144.148 34.5703 144.978 34.2188 145.906 33.9941C146.833 33.7598 147.781 33.6426 148.747 33.6426C150.945 33.6426 152.546 33.8916 153.552 34.3896V37.832C152.361 36.9727 150.828 36.543 148.953 36.543C148.435 36.543 147.917 36.5918 147.4 36.6895C146.892 36.7871 146.433 36.9482 146.023 37.1729C145.622 37.3975 145.295 37.6855 145.041 38.0371C144.787 38.3887 144.661 38.8135 144.661 39.3115C144.661 39.7803 144.758 40.1855 144.954 40.5273C145.149 40.8691 145.432 41.1816 145.803 41.4648C146.184 41.748 146.643 42.0264 147.18 42.2998C147.727 42.5635 148.357 42.8516 149.07 43.1641C149.802 43.5449 150.491 43.9453 151.135 44.3652C151.789 44.7852 152.361 45.249 152.849 45.7568C153.347 46.2646 153.738 46.8311 154.021 47.4561C154.314 48.0713 154.46 48.7744 154.46 49.5654C154.46 50.6299 154.246 51.5283 153.816 52.2607C153.386 52.9932 152.805 53.5889 152.073 54.0479C151.35 54.5068 150.515 54.8389 149.568 55.0439C148.621 55.249 147.62 55.3516 146.565 55.3516C146.213 55.3516 145.779 55.3223 145.261 55.2637C144.753 55.2148 144.231 55.1367 143.694 55.0293C143.157 54.9316 142.649 54.8096 142.17 54.6631C141.692 54.5166 141.306 54.3506 141.013 54.165ZM173.604 36.9531H167.569V55H164.083V36.9531H158.062V33.9941H173.604V36.9531ZM193.539 55H189.716L187.826 49.6533H179.564L177.748 55H173.939L181.805 33.9941H185.731L193.539 55ZM186.903 46.8115L183.988 38.4326C183.9 38.1592 183.807 37.7197 183.71 37.1143H183.651C183.563 37.6709 183.466 38.1104 183.358 38.4326L180.472 46.8115H186.903ZM214.279 53.5645C212.092 54.7559 209.655 55.3516 206.97 55.3516C203.864 55.3516 201.35 54.3848 199.426 52.4512C197.502 50.5176 196.54 47.959 196.54 44.7754C196.54 41.5234 197.59 38.8574 199.689 36.7773C201.799 34.6875 204.475 33.6426 207.717 33.6426C210.051 33.6426 212.014 33.9844 213.605 34.668V38.2568C211.994 37.1826 210.075 36.6455 207.849 36.6455C205.612 36.6455 203.776 37.3828 202.341 38.8574C200.915 40.332 200.202 42.2412 200.202 44.585C200.202 46.9971 200.817 48.8965 202.048 50.2832C203.278 51.6602 204.948 52.3486 207.058 52.3486C208.503 52.3486 209.753 52.0703 210.808 51.5137V46.5186H206.384V43.5889H214.279V53.5645ZM236.836 55H232.764L229.409 49.375C229.107 48.8574 228.809 48.418 228.516 48.0566C228.233 47.6855 227.94 47.3828 227.637 47.1484C227.344 46.9141 227.022 46.7432 226.67 46.6357C226.319 46.5283 225.923 46.4746 225.484 46.4746H224.077V55H220.606V33.9941H227.52C228.506 33.9941 229.414 34.1113 230.244 34.3457C231.074 34.5801 231.797 34.9365 232.412 35.415C233.028 35.8838 233.506 36.4746 233.848 37.1875C234.199 37.8906 234.375 38.7158 234.375 39.6631C234.375 40.4053 234.263 41.0889 234.038 41.7139C233.823 42.3291 233.511 42.8809 233.101 43.3691C232.7 43.8477 232.212 44.2578 231.636 44.5996C231.07 44.9414 230.43 45.2051 229.717 45.3906V45.4492C230.098 45.6641 230.43 45.9033 230.713 46.167C230.996 46.4209 231.265 46.6846 231.519 46.958C231.773 47.2314 232.022 47.5439 232.266 47.8955C232.52 48.2373 232.798 48.6377 233.101 49.0967L236.836 55ZM224.077 36.8213V43.6475H226.978C227.515 43.6475 228.008 43.5645 228.457 43.3984C228.916 43.2324 229.312 42.9932 229.644 42.6807C229.976 42.3682 230.235 41.9873 230.42 41.5381C230.606 41.0889 230.698 40.5859 230.698 40.0293C230.698 39.0234 230.381 38.2373 229.746 37.6709C229.112 37.1045 228.198 36.8213 227.007 36.8213H224.077ZM258.353 55H254.53L252.64 49.6533H244.378L242.562 55H238.753L246.62 33.9941H250.545L258.353 55ZM251.717 46.8115L248.802 38.4326C248.714 38.1592 248.621 37.7197 248.524 37.1143H248.465C248.377 37.6709 248.28 38.1104 248.172 38.4326L245.287 46.8115H251.717ZM285.612 55H282.155V41.4062C282.155 40.293 282.223 38.9307 282.36 37.3193H282.301C282.087 38.2373 281.896 38.8965 281.73 39.2969L275.461 55H273.058L266.774 39.4141C266.598 38.9551 266.413 38.2568 266.217 37.3193H266.159C266.237 38.1592 266.276 39.5312 266.276 41.4355V55H263.053V33.9941H267.961L273.483 47.9834C273.903 49.0576 274.176 49.8584 274.303 50.3857H274.377C274.738 49.2822 275.031 48.4619 275.255 47.9248L280.88 33.9941H285.612V55Z" fill="white"/>
</svg>
