<svg width="304" height="86" viewBox="0 0 304 86" fill="none" xmlns="http://www.w3.org/2000/svg">
<rect width="304" height="86" rx="27" fill="#FB5792"/>
<path d="M56.0027 14C48.1267 14 47.1383 14.0344 44.0449 14.1752C40.9576 14.3166 38.8502 14.8054 37.0063 15.5225C35.0989 16.2632 33.481 17.2541 31.869 18.8666C30.2559 20.4785 29.265 22.0965 28.5219 24.0033C27.8029 25.8478 27.3136 27.9558 27.1746 31.0419C27.0363 34.1353 27 35.1243 27 43.0003C27 50.8763 27.035 51.8617 27.1752 54.9551C27.3172 58.0424 27.806 60.1497 28.5225 61.9937C29.2638 63.9011 30.2547 65.519 31.8672 67.131C33.4785 68.7441 35.0965 69.7374 37.0027 70.4781C38.8478 71.1952 40.9558 71.684 44.0425 71.8254C47.1359 71.9662 48.1237 72.0006 55.9991 72.0006C63.8757 72.0006 64.8611 71.9662 67.9545 71.8254C71.0418 71.684 73.1516 71.1952 74.9967 70.4781C76.9035 69.7374 78.519 68.7441 80.1304 67.131C81.7435 65.519 82.7343 63.9011 83.4775 61.9943C84.1904 60.1497 84.6798 58.0418 84.8248 54.9557C84.9637 51.8623 85 50.8763 85 43.0003C85 35.1243 84.9637 34.1359 84.8248 31.0425C84.6798 27.9552 84.1904 25.8478 83.4775 24.0039C82.7343 22.0965 81.7435 20.4785 80.1304 18.8666C78.5172 17.2535 76.9041 16.2626 74.9949 15.5225C73.1461 14.8054 71.0376 14.3166 67.9502 14.1752C64.8569 14.0344 63.8721 14 55.9937 14H56.0027ZM53.4012 19.2261C54.1733 19.2249 55.0348 19.2261 56.0027 19.2261C63.7458 19.2261 64.6635 19.2539 67.7213 19.3928C70.5488 19.5221 72.0834 19.9946 73.1056 20.3915C74.459 20.9172 75.4239 21.5455 76.4383 22.5605C77.4533 23.5755 78.0816 24.5422 78.6085 25.8956C79.0054 26.9166 79.4785 28.4512 79.6071 31.2787C79.7461 34.3359 79.7763 35.2542 79.7763 42.9937C79.7763 50.7331 79.7461 51.6514 79.6071 54.7086C79.4779 57.5361 79.0054 59.0707 78.6085 60.0917C78.0828 61.4451 77.4533 62.4087 76.4383 63.4232C75.4233 64.4382 74.4596 65.0665 73.1056 65.5921C72.0846 65.9909 70.5488 66.4621 67.7213 66.5914C64.6641 66.7304 63.7458 66.7606 56.0027 66.7606C48.259 66.7606 47.3413 66.7304 44.2842 66.5914C41.4567 66.4609 39.9221 65.9885 38.8992 65.5915C37.5458 65.0659 36.5792 64.4376 35.5642 63.4226C34.5491 62.4075 33.9208 61.4433 33.394 60.0893C32.997 59.0683 32.524 57.5337 32.3953 54.7061C32.2563 51.649 32.2285 50.7307 32.2285 42.9864C32.2285 35.2421 32.2563 34.3286 32.3953 31.2715C32.5246 28.444 32.997 26.9094 33.394 25.8871C33.9196 24.5338 34.5491 23.5671 35.5642 22.5521C36.5792 21.5371 37.5458 20.9087 38.8992 20.3819C39.9214 19.9831 41.4567 19.5119 44.2842 19.382C46.9595 19.2611 47.9962 19.2249 53.4012 19.2188V19.2261ZM71.4828 24.0414C69.5616 24.0414 68.0028 25.5983 68.0028 27.5202C68.0028 29.4414 69.5616 31.0002 71.4828 31.0002C73.4041 31.0002 74.9629 29.4414 74.9629 27.5202C74.9629 25.5989 73.4041 24.0401 71.4828 24.0401V24.0414ZM56.0027 28.1074C47.7781 28.1074 41.1099 34.7757 41.1099 43.0003C41.1099 51.2249 47.7781 57.8901 56.0027 57.8901C64.2273 57.8901 70.8932 51.2249 70.8932 43.0003C70.8932 34.7757 64.2267 28.1074 56.0021 28.1074H56.0027ZM56.0027 33.3335C61.3412 33.3335 65.6695 37.6612 65.6695 43.0003C65.6695 48.3388 61.3412 52.6671 56.0027 52.6671C50.6636 52.6671 46.336 48.3388 46.336 43.0003C46.336 37.6612 50.6636 33.3335 56.0027 33.3335V33.3335Z" fill="white"/>
<path d="M112.606 58H108.18V32.0928H112.606V58ZM135.008 58H130.817V47.5757C130.817 44.119 129.594 42.3906 127.149 42.3906C125.873 42.3906 124.819 42.8724 123.988 43.8359C123.157 44.7874 122.741 45.9919 122.741 47.4492V58H118.532V39.5H122.741V42.5713H122.813C124.199 40.2347 126.198 39.0664 128.812 39.0664C130.823 39.0664 132.359 39.7228 133.418 41.0356C134.478 42.3364 135.008 44.2214 135.008 46.6904V58ZM138.983 57.4219V53.5376C140.549 54.73 142.277 55.3262 144.168 55.3262C146.697 55.3262 147.962 54.5794 147.962 53.0859C147.962 52.6644 147.854 52.3091 147.637 52.02C147.42 51.7189 147.125 51.4539 146.751 51.2251C146.39 50.9963 145.957 50.7915 145.451 50.6108C144.957 50.4302 144.403 50.2254 143.789 49.9966C143.03 49.6955 142.343 49.3763 141.729 49.0391C141.127 48.7018 140.621 48.3224 140.211 47.9009C139.814 47.4673 139.513 46.9795 139.308 46.4375C139.103 45.8955 139.001 45.2632 139.001 44.5405C139.001 43.6493 139.212 42.8664 139.633 42.1919C140.055 41.5054 140.621 40.9333 141.332 40.4756C142.042 40.0059 142.849 39.6566 143.752 39.4277C144.656 39.1868 145.589 39.0664 146.553 39.0664C148.263 39.0664 149.793 39.3254 151.142 39.8433V43.5107C149.841 42.6195 148.347 42.1738 146.661 42.1738C146.131 42.1738 145.649 42.228 145.216 42.3364C144.794 42.4448 144.433 42.5954 144.132 42.7881C143.831 42.9808 143.596 43.2157 143.427 43.4927C143.259 43.7576 143.174 44.0527 143.174 44.3779C143.174 44.7754 143.259 45.1126 143.427 45.3896C143.596 45.6667 143.843 45.9136 144.168 46.1304C144.505 46.3351 144.903 46.5278 145.36 46.7085C145.83 46.8771 146.366 47.0638 146.968 47.2686C147.763 47.5938 148.474 47.925 149.1 48.2622C149.738 48.5994 150.28 48.9849 150.726 49.4185C151.172 49.84 151.515 50.3338 151.756 50.8999C151.997 51.4539 152.117 52.1164 152.117 52.8872C152.117 53.8267 151.9 54.6457 151.467 55.3442C151.033 56.0428 150.455 56.6209 149.732 57.0786C149.01 57.5363 148.173 57.8735 147.221 58.0903C146.282 58.3192 145.288 58.4336 144.24 58.4336C142.217 58.4336 140.464 58.0964 138.983 57.4219ZM165.866 57.8013C165.047 58.2108 163.969 58.4155 162.632 58.4155C159.043 58.4155 157.248 56.6932 157.248 53.2485V42.7881H154.159V39.5H157.248V35.2183L161.439 34.0259V39.5H165.866V42.7881H161.439V52.0381C161.439 53.1341 161.638 53.917 162.036 54.3867C162.433 54.8564 163.096 55.0913 164.023 55.0913C164.734 55.0913 165.348 54.8866 165.866 54.4771V57.8013ZM183.679 58H179.614V55.1094H179.542C178.265 57.3255 176.392 58.4336 173.923 58.4336C172.105 58.4336 170.677 57.9398 169.642 56.9521C168.618 55.9645 168.106 54.6577 168.106 53.0317C168.106 49.5389 170.117 47.5034 174.14 46.9253L179.632 46.1484C179.632 43.5107 178.38 42.1919 175.875 42.1919C173.67 42.1919 171.683 42.9507 169.913 44.4683V40.8008C171.864 39.6445 174.116 39.0664 176.669 39.0664C181.343 39.0664 183.679 41.3669 183.679 45.9678V58ZM179.632 48.9126L175.748 49.4546C174.544 49.6112 173.634 49.9062 173.02 50.3398C172.418 50.7614 172.117 51.5081 172.117 52.5801C172.117 53.363 172.394 54.0073 172.948 54.5132C173.514 55.007 174.267 55.2539 175.206 55.2539C176.483 55.2539 177.537 54.8083 178.368 53.917C179.211 53.0137 179.632 51.8815 179.632 50.5205V48.9126ZM205.648 56.5186C205.648 63.3115 202.233 66.708 195.404 66.708C192.995 66.708 190.894 66.3045 189.099 65.4976V61.6675C191.123 62.8237 193.044 63.4019 194.862 63.4019C199.258 63.4019 201.457 61.2399 201.457 56.916V54.8926H201.384C199.999 57.2533 197.916 58.4336 195.133 58.4336C192.881 58.4336 191.062 57.6146 189.677 55.9766C188.304 54.3265 187.618 52.1164 187.618 49.3462C187.618 46.2026 188.358 43.7035 189.84 41.8486C191.321 39.9938 193.357 39.0664 195.946 39.0664C198.391 39.0664 200.204 40.0661 201.384 42.0654H201.457V39.5H205.648V56.5186ZM201.493 49.5269V47.124C201.493 45.8232 201.059 44.7152 200.192 43.7998C199.337 42.8724 198.265 42.4087 196.976 42.4087C195.386 42.4087 194.14 42.9989 193.236 44.1792C192.345 45.3475 191.899 46.9855 191.899 49.0933C191.899 50.9119 192.327 52.3693 193.182 53.4653C194.049 54.5493 195.194 55.0913 196.615 55.0913C198.06 55.0913 199.234 54.5734 200.138 53.5376C201.041 52.4897 201.493 51.1528 201.493 49.5269ZM221.835 43.4927C221.33 43.0952 220.601 42.8965 219.649 42.8965C218.409 42.8965 217.373 43.4565 216.542 44.5767C215.711 45.6968 215.295 47.2204 215.295 49.1475V58H211.104V39.5H215.295V43.312H215.368C215.777 42.0112 216.403 40.9995 217.247 40.2769C218.102 39.5422 219.053 39.1748 220.101 39.1748C220.86 39.1748 221.438 39.2892 221.835 39.5181V43.4927ZM238.999 58H234.934V55.1094H234.861C233.585 57.3255 231.712 58.4336 229.243 58.4336C227.424 58.4336 225.997 57.9398 224.961 56.9521C223.937 55.9645 223.425 54.6577 223.425 53.0317C223.425 49.5389 225.437 47.5034 229.459 46.9253L234.952 46.1484C234.952 43.5107 233.699 42.1919 231.194 42.1919C228.99 42.1919 227.002 42.9507 225.232 44.4683V40.8008C227.183 39.6445 229.435 39.0664 231.989 39.0664C236.662 39.0664 238.999 41.3669 238.999 45.9678V58ZM234.952 48.9126L231.067 49.4546C229.863 49.6112 228.954 49.9062 228.339 50.3398C227.737 50.7614 227.436 51.5081 227.436 52.5801C227.436 53.363 227.713 54.0073 228.267 54.5132C228.833 55.007 229.586 55.2539 230.525 55.2539C231.802 55.2539 232.856 54.8083 233.687 53.917C234.53 53.0137 234.952 51.8815 234.952 50.5205V48.9126ZM271.789 58H267.598V47.9189C267.598 45.9798 267.321 44.5767 266.767 43.7095C266.225 42.8423 265.303 42.4087 264.002 42.4087C262.906 42.4087 261.973 42.9567 261.202 44.0527C260.443 45.1488 260.064 46.4616 260.064 47.9912V58H255.854V47.5757C255.854 44.131 254.638 42.4087 252.205 42.4087C251.073 42.4087 250.139 42.9266 249.405 43.9624C248.682 44.9982 248.321 46.3411 248.321 47.9912V58H244.129V39.5H248.321V42.4268H248.393C249.73 40.1865 251.675 39.0664 254.229 39.0664C255.505 39.0664 256.619 39.4217 257.571 40.1323C258.534 40.8309 259.191 41.7523 259.54 42.8965C260.913 40.3431 262.961 39.0664 265.683 39.0664C269.754 39.0664 271.789 41.5776 271.789 46.6001V58Z" fill="white"/>
</svg>
