<svg width="270" height="86" viewBox="0 0 270 86" fill="none" xmlns="http://www.w3.org/2000/svg">
<rect width="270" height="86" rx="27" fill="#2790CB"/>
<path d="M27 18.1548C27 15.8608 28.9068 14 31.2591 14H80.7409C83.0931 14 85 15.8608 85 18.1548V67.8452C85 70.14 83.0931 72 80.7409 72L31.2591 72C28.9068 72 27 70.14 27 67.8452V18.1548ZM44.9198 62.552V36.3618H36.2146V62.552H44.9198ZM40.5671 32.7859C43.6028 32.7859 45.4922 30.7748 45.4922 28.2615C45.4357 25.6916 43.6028 23.7363 40.6247 23.7363C37.647 23.7363 35.7 25.6916 35.7 28.2615C35.7 30.7748 37.589 32.7859 40.5104 32.7859H40.5671ZM58.3613 62.552V47.9263C58.3613 47.1435 58.4179 46.3615 58.6478 45.802C59.2771 44.2381 60.7094 42.6183 63.1142 42.6183C66.2642 42.6183 67.5243 45.02 67.5243 48.5408V62.552H76.2287V47.5349C76.2287 39.4904 71.934 35.7472 66.2067 35.7472C61.5889 35.7472 59.5184 38.2852 58.3616 40.0698V40.16H58.3034C58.3225 40.1302 58.3419 40.1001 58.3616 40.0698V36.3618H49.6565C49.7707 38.8193 49.6565 62.552 49.6565 62.552H58.3613Z" fill="white"/>
<path d="M118.224 55H106.593V33.9941H110.079V52.0557H118.224V55ZM124.845 55H121.256V33.9941H124.845V55ZM147.843 55H144.034L134 39.5605C133.746 39.1699 133.536 38.7646 133.37 38.3447H133.282C133.36 38.7939 133.399 39.7559 133.399 41.2305V55H130.03V33.9941H134.088L143.785 49.0674C144.195 49.6924 144.459 50.1221 144.576 50.3564H144.635C144.537 49.7998 144.488 48.8574 144.488 47.5293V33.9941H147.843V55ZM168.951 55H164.41L157.101 45.3906C156.827 45.0293 156.661 44.7852 156.603 44.6582H156.544V55H153.058V33.9941H156.544V43.8672H156.603C156.72 43.6523 156.886 43.4131 157.101 43.1494L164.146 33.9941H168.321L160.074 44.0723L168.951 55ZM183.189 55H171.397V33.9941H182.721V36.9531H174.884V42.9004H182.105V45.8447H174.884V52.0557H183.189V55ZM186.925 55V33.9941H192.989C200.733 33.9941 204.605 37.4072 204.605 44.2334C204.605 47.4756 203.531 50.083 201.383 52.0557C199.234 54.0186 196.354 55 192.74 55H186.925ZM190.396 36.9531V52.0557H193.18C195.631 52.0557 197.535 51.3818 198.893 50.0342C200.26 48.6865 200.943 46.7822 200.943 44.3213C200.943 39.4092 198.399 36.9531 193.312 36.9531H190.396ZM220.294 55H216.705V33.9941H220.294V55ZM243.292 55H239.483L229.449 39.5605C229.195 39.1699 228.985 38.7646 228.819 38.3447H228.731C228.81 38.7939 228.849 39.7559 228.849 41.2305V55H225.479V33.9941H229.537L239.234 49.0674C239.645 49.6924 239.908 50.1221 240.025 50.3564H240.084C239.986 49.7998 239.938 48.8574 239.938 47.5293V33.9941H243.292V55Z" fill="white"/>
</svg>
