<svg width="360" height="360" viewBox="-10 0 360 360" fill="none" xmlns="http://www.w3.org/2000/svg">
<style>
#head_neck {
    transform-origin: 141px 182px;
    animation: head_neck 10s infinite ease;
}

#head {
    transform-origin: 122.22px 85px;
    animation: head 5s infinite ease;
}


#eyelid_upper {
    animation: eyelid_upper 5s infinite ease;
}

#eye_color {
    animation: eye_color 5s infinite ease;
}

#ear_L {
    transform-origin: 112px 61px;
    animation: ear 11s infinite ease;
}

#ear_R {
    transform-origin: 101px 71px;
    animation: ear 11s infinite ease;
}

#f_leg_R {
    transform-origin: 135px 208px;
    animation: f_leg_R 6.5s infinite;
}

#tail {
    transform-origin: 227px 162px;
    animation: tail 10s infinite;
}

@keyframes head {
    0%, 100% {
        transform: rotate(0deg);
    }
    50% {
        transform: rotate(25deg);
    }
}

@keyframes eyelid_upper {
    0%, 30%, 100% {
        transform: translate(0, 0);
    }
    20% {
        transform: translate(5px, 5px);
    }
}

@keyframes eye_color {
    0%, 30%, 100% {
        opacity: 1;
    }
    20% {
        opacity: 0;
    }
}

@keyframes ear {
    0%, 100% {
        transform: rotate(0deg);
    }
    50% {
        transform: rotate(30deg);
    }
}

@keyframes head_neck {
    0%, 100% {
        transform: rotate(0deg);
    }
    50% {
        transform: rotate(-30deg);
    }
}

@keyframes f_leg_R {
    0%, 100% {
        transform: rotate(0deg);
    }
    50% {
        transform: rotate(15deg);
    }
}

@keyframes tail {
    0%, 100% {
        transform: rotate(0deg);
    }
    50% {
        transform: rotate(-15deg);
    }
}
    
</style>
<g id="unicorn">
<g id="tail">
<path id="tail_base" d="M266 109C252 107 246 113 243.5 116C241.981 117.822 237.88 129.608 234.445 139.476C232.226 145.853 230.285 151.43 229.5 153C228.134 155.733 227.234 156.132 225.844 156.748C225.2 157.034 224.45 157.367 223.5 158C220.5 160 226 169.5 231 165C232.996 163.204 234.275 160.929 235.536 158.686C237.435 155.309 239.294 152.002 243.5 150.5C250.5 148 264 147 272 156C280 165 283 172.5 284 189.5C284.778 202.729 265.574 214.746 253.952 222.019C250.639 224.092 247.942 225.78 246.5 227C240 232.5 243.5 242 243.5 242C243.5 242 243.527 241.786 243.637 241.449C244.087 240.063 245.929 236.611 253 237.5C261.792 238.606 277 235 278 234.5C290.454 235.557 298 234.5 305.5 230.5C313 226.5 315.244 224.288 317.5 217C322.377 221.141 329.418 207.708 328 187C325.262 147 280 111 266 109Z" fill="#FFF7CA"/>
<g id="tail_shadow">
<path d="M318.903 190.5C319.753 200.821 318.505 210.164 317.5 217C322.377 221.141 329.418 207.708 328 187C324.177 201 324 203.5 318.903 190.5Z" fill="#ECE1A6"/>
<path d="M305.5 230.5C313 226.5 315.244 224.287 317.5 217C313.233 219.988 311.655 219.685 310.742 214.5C305.328 219.126 302.178 220.781 296.165 220.5C299.191 216.238 301.226 211.484 302.414 206.5C289 222 278.404 229.01 253 232C245.465 233.954 244.799 236.686 243.725 241.086L243.637 241.448C244.087 240.063 245.929 236.611 253 237.5C261.792 238.605 277 235 278 234.5C290.454 235.557 298 234.5 305.5 230.5Z" fill="#ECE1A6"/>
<path d="M271.996 155.999C279.996 164.999 282.996 172.499 283.996 189.499C288.17 141.498 252.996 125.978 236.517 150.499C232.445 156.559 229.911 160.163 228.361 162.247C226.81 164.331 227.512 163.444 225.84 165.432C227.876 166.724 229.203 166.613 230.996 164.999C232.992 163.203 234.27 160.929 235.532 158.685C237.431 155.308 239.29 152.001 243.496 150.499C250.496 147.999 263.996 146.999 271.996 155.999Z" fill="#ECE1A6"/>
<path d="M276.496 131.222C286.949 135.374 296.825 144.468 303.503 158.685C298.423 138.939 288.996 133.625 276.496 131.222Z" fill="#ECE1A6"/>
</g>
<g id="tail_highlight">
<path d="M286.996 154.468C289.093 156.571 290.496 158 293.496 161.499C296.496 164.999 300.106 173.541 301.861 180.499C301.879 166.312 298.41 160.764 286.996 154.468Z" fill="white"/>
<path d="M243.721 133.625C251.713 125.468 261.345 119.869 271.996 120.892C255.69 114.694 251.86 122.491 243.721 133.625Z" fill="white"/>
</g>
</g>
<g id="b_leg_R">
<path id="b_leg_R_base" d="M229 192.5C228 187 220.57 174 220.57 174C220.57 174 213.926 169.594 209.07 168.5C200.551 166.581 193.702 166.82 187.07 172.5C183.781 175.317 182.606 177.763 180.782 181.559L180.57 182C178.75 185.782 178.589 187.239 178.21 190.654C178.149 191.211 178.081 191.82 178 192.5V202.581C178.095 206.722 179.501 213.998 180.57 218C182.714 231.148 202 245.5 202 245.5L197.5 255C197.5 255 187.828 272.784 181.5 290.602C181.181 291.5 180.87 292.399 180.57 293.295C180.57 293.295 180 299.5 189 299.5C198 299.5 201.875 295.966 204 294.5C204.374 294.242 205.048 292.81 205.898 290.602C209.878 280.262 217.702 252.912 216.5 249.5C215.993 248.487 215.494 247.75 215.068 247.121C213.912 245.414 213.29 244.496 214.5 241C215.116 239.221 216.067 237.371 217.084 235.393C218.802 232.052 220.707 228.346 221.5 224C221.952 221.525 223.168 217.494 224.498 213.085C226.886 205.168 229.642 196.033 229 192.5Z" fill="#DEDEDE"/>
<g id="b_foot_R">
<path d="M180.57 293.295C180.57 293.295 180 299.5 189 299.5C198 299.5 201.875 295.966 204 294.5C204.374 294.242 205.048 292.81 205.898 290.602C192.309 295.159 185 294.5 181.5 290.602C181.181 291.5 180.87 292.399 180.57 293.295Z" fill="#7A6559"/>
</g>
</g>
<g id="f_leg_R">
<path id="f_leg_R_base" d="M124.507 237.5C124.507 237.5 143.226 229.572 149.404 224.273C155.582 218.974 158.047 215.242 155.145 204.216C152.283 193.343 140.158 190.103 137.202 189.313L137.083 189.281C134.351 188.549 130.752 188.317 124.507 192.5C118.262 196.683 115.589 201.303 114.95 202.596C114.598 203.308 114.417 205.73 114.219 208.377C113.967 211.736 113.689 215.457 113 216.5C112.353 217.48 111.214 218.286 109.421 219.555C107.8 220.702 105.643 222.228 102.83 224.605C100.018 226.981 93.5 230.271 92.5 231C91.5 231.729 89.5 234 91.5 238.5C92.9829 241.837 96.1151 244.623 98.8584 247.064C99.815 247.915 100.724 248.724 101.5 249.5C102.848 250.848 104.399 252.197 106.106 253.682C108.197 255.5 110.523 257.523 113 260C114.726 261.726 116.672 263.672 118.585 265.5C121.66 268.44 124.65 271.075 126.5 272C129.213 273.356 131.899 274.532 135 273.799C135.329 273.722 135.662 273.623 136 273.5C138.351 272.649 139.5 272.5 141 269.5C142.5 266.5 145.5 250.5 141 249.5C139.736 249.219 138.556 249.012 137.5 248.861C134.796 248.473 132.904 248.453 132.5 248.5C130.277 248.76 119.285 245.088 117 242.5L124.507 237.5Z" fill="#D7D7D7"/>
<path id="f_leg_R_highlight" d="M102.83 224.605C100.018 226.981 93.5 230.271 92.5 231C91.5 231.729 89.5 234 91.5 238.5C92.9829 241.836 96.115 244.623 98.8584 247.064C99.815 247.915 100.724 248.724 101.5 249.5C102.848 250.848 104.399 252.197 106.106 253.682C108.197 255.5 110.523 257.523 113 260L113.002 260.002C114.727 261.727 116.672 263.672 118.585 265.5C119.674 260.209 120.062 257.331 117 253.682C117 253.682 108.5 248.5 106.106 242.5C104.628 238.795 108.347 236.044 111.891 233.421C114.087 231.797 116.216 230.221 117 228.5C119.05 224 116 222.5 116 222.5L109.421 219.555C107.8 220.702 105.643 222.228 102.83 224.605Z" fill="#DEDEDE"/>
<g id="f_foot_R">
<path d="M136 273.5C138.351 272.649 139.5 272.5 141 269.5C142.5 266.5 145.5 250.5 141 249.5C139.736 249.219 138.556 249.012 137.5 248.861C140.001 255.131 139 264.5 135 273.799C135.328 273.722 135.662 273.622 136 273.5Z" fill="#7A6559"/>
</g>
</g>
<g id="body">
<path id="body_base" d="M129.5 235C140.426 237.437 145.249 235.778 153.5 232L182.5 221C182.5 221 186 219.104 199.5 220.5C213 221.897 237.5 211.5 241 206.5C242.023 205.039 242.661 202.51 243.015 199.5C243.873 192.211 243.062 182.1 242 177.5C240.5 171 231 160.747 229.5 160C229.291 159.896 228.97 159.709 228.557 159.47C226.005 157.986 219.963 154.474 215.5 156C210.316 157.773 182.5 163.637 179 163.5C175.5 163.364 172.3 161.557 168.273 158.5C168.273 158.5 167.766 157.973 167.026 157.128C160.472 150.271 151.235 146 141 146C128.094 146 116.774 152.791 110.419 162.995C110.281 163.226 110.141 163.456 110 163.686C108.208 166.713 106.846 170.025 106 173.539C105.932 173.847 105.866 174.135 105.801 174.411C105.769 174.55 105.737 174.686 105.706 174.819C105.035 177.678 104.579 179.618 104.266 191C104.777 200.299 108.992 208.313 117 220.5L126 230.94L129.5 235Z" fill="#FAFAFA"/>
<g id="body_shadow">
<path d="M129.5 235C140.426 237.437 145.249 235.778 153.5 232L182.5 221C182.5 221 186 219.104 199.5 220.5C213 221.897 237.5 211.5 241 206.5C242.023 205.039 242.661 202.51 243.015 199.5L237.5 204.5L202 215C202 215 191.5 216.5 186 217.5C180.5 218.5 163.273 219.5 157 223C150.727 226.5 126 230.94 126 230.94L129.5 235Z" fill="#ECECEC"/>
</g>
</g>
<g id="head_neck">
<g id="neck">
<path id="neck_base" d="M161.5 148.5C160.5 144.5 154.72 98.5001 154.72 85C154.72 70.3559 145.035 57.9739 131.72 53.9104C130.241 53.603 128.284 53.1881 126.287 52.7519C124.955 52.5856 123.597 52.5 122.22 52.5C104.271 52.5 89.7204 67.0507 89.7204 85C89.7204 97.6641 96.9637 108.636 107.534 114C111.085 115.802 115.013 116.971 119.167 117.358C119.504 117.279 119.769 117.292 119.941 117.421C120.304 117.849 120.579 119.89 120.595 123C120.639 131.858 118.575 149.386 110.419 162.995C110.281 163.226 110.141 163.457 110 163.686C108.208 166.713 106.846 170.025 106 173.539C105.932 173.847 105.866 174.135 105.801 174.411C105.276 176.858 105 179.397 105 182C105 201.882 121.118 218 141 218C160.882 218 177 201.882 177 182C177 173.019 173.711 164.806 168.273 158.5C168.273 158.5 167.766 157.973 167.026 157.128C165.271 155.12 162.204 151.315 161.5 148.5Z" fill="#FAFAFA"/>
<g id="neck_shadow">
<path d="M119.167 117.358C119.504 117.279 119.769 117.292 119.941 117.421C120.304 117.849 120.579 119.89 120.595 123C125.174 121.928 127.846 121.074 133.5 117.421C137.756 113.569 136.584 110.114 136 104.5L119.941 108.5L107.534 114C111.085 115.802 115.012 116.971 119.167 117.358Z" fill="#ECECEC"/>
</g>
</g>
<g id="head">
<path id="ear_R" d="M68.6762 58.5203C66.1761 60.0203 69.5066 63.1254 97.6762 78.5203C97.6762 78.5203 107.676 80.0202 107.676 73.5203C107.676 67.0204 104.176 58.5203 89.1762 57.5203C74.1762 56.5203 71.1763 57.0203 68.6762 58.5203Z" fill="#F3F3F3"/>
<path id="skull" d="M106 55.932C101 58.432 93 66.0001 90 71C87 75.9999 84 81.9999 84 87C84 92.0001 86 98.5 86 98.5C86 98.5 88 118 86 126.5C84 135 88.5 137 91.5 138.5C94.5 140 99.4335 139.28 103.5 137.5C107.566 135.72 112.511 128.693 111.5 126.5C111.5 126.5 117 120 125 118C133 116 136.877 113 136.877 113C148.003 107.84 155.72 96.5714 155.72 83.5C155.72 68.8559 146.035 56.4739 132.72 52.4104C131.241 52.103 129.284 51.6881 127.286 51.2519C125.954 51.0856 124.597 51 123.22 51C116.896 51 110.993 52.8066 106 55.932Z" fill="#FAFAFA"/>
<g id="eye">
<g id="eye_ball">
<ellipse id="eye_background" cx="107.018" cy="96.9095" rx="6" ry="3.85472" transform="rotate(-45.7828 107.018 96.9095)" fill="#535353"/>
<ellipse id="eye_inner" cx="107.003" cy="97.0152" rx="5.04878" ry="2.93911" transform="rotate(-45.7828 107.003 97.0152)" fill="#606060"/>
<path id="eye_color" d="M109.11 99.0649C111.054 97.0665 111.688 94.5288 110.524 93.3967C110.299 96.0767 109.03 97.7976 106.084 101C107.08 100.704 108.163 100.038 109.11 99.0649Z" fill="#B9D9E3"/>
<path id="eye_gross" d="M105 98C105 98.5523 104.552 99 104 99C103.448 99 103 98.5523 103 98C103 97.4477 103.448 97 104 97C104.552 97 105 97.4477 105 98Z" fill="white"/>
</g>
<path id="eyelid_upper" d="M92.3791 92.5001C93.5165 90.9784 94.9612 89.3815 96.6421 87.8404C98.7005 85.9531 100.812 84.4259 102.724 83.3681L109.325 85.8213C108.364 88.2749 105.99 91.48 102.724 94.4741C100.666 96.3614 98.5547 97.8887 96.6421 98.9464L92.3791 92.5001Z" fill="#FAFAFA"/>
</g>
<g id="horn">
<path id="horn_base" d="M46 65.7055C41.0527 64.9893 37.7722 64.5497 37.7722 64.5497C37.7722 64.5497 44.4993 68.5171 53 73.2826C54.0529 73.8728 55.133 74.4753 56.231 75.0841C60.4272 77.4106 64.8834 79.828 69.074 82C70.0666 82.5144 71.0442 83.0151 72 83.4975C78.3907 86.7234 83.8032 89.134 86.1501 89.394C86.427 89.4246 86.6612 89.4254 86.8493 89.394C87.2491 89.3272 87.633 89.2125 88 89.0556C92.6076 87.0866 94.5583 78.4873 91.8701 75.0841C91.0247 74.0138 86.0817 72.6732 79.5 71.3106C78.8486 71.1758 78.1811 71.0407 77.5 70.9056C72.7307 69.96 67.2912 69.0156 62 68.155C61.4984 68.0735 60.9982 67.9926 60.5 67.9126C55.9958 67.1894 51.6574 66.5335 48 65.997C47.3078 65.8954 46.6399 65.7982 46 65.7055Z" fill="#E8DFB2"/>
<g id="horn_base_2">
<path d="M46 65.7055C50.0703 68.9064 52.0322 70.6966 53 73.2825C54.0529 73.8728 55.133 74.4753 56.231 75.084C53.417 69.9273 51.5606 68.19 48 65.9969C47.3078 65.8954 46.6399 65.7981 46 65.7055Z" fill="#CFC79D"/>
<path d="M60.5 67.9126C66.1594 75.2959 68.5038 78.7615 69.0741 81.9999C70.0666 82.5144 71.0442 83.015 72 83.4975C70.4781 77.6041 68.3278 74.2614 62 68.155C61.4984 68.0734 60.9982 67.9926 60.5 67.9126Z" fill="#CFC79D"/>
<path d="M86.1501 89.3939C86.427 89.4246 86.6612 89.4253 86.8493 89.3939C87.2491 89.3272 87.633 89.2124 88 89.0556C87.1813 82.2187 85.7844 78.3525 79.5 71.3106C78.8486 71.1757 78.1811 71.0406 77.5 70.9056C83.2713 78.2432 84.9436 82.2804 86.1501 89.3939Z" fill="#CFC79D"/>
</g>
</g>
<g id="head_hair">
<path id="head_hair_base" fill-rule="evenodd" clip-rule="evenodd" d="M111.604 62.2133C116.926 61.1513 125 59.4991 128 60.4996C131 61.5 132.359 62.0722 133 61.8889C133.641 61.7056 140.434 68.6431 140.5 68.8454C146.385 69.0987 158.5 70 156.5 62.5C154.5 55 139.63 45.1718 138.079 46.3917C132.868 43.6561 129.957 42.7715 128 42.9997C127.039 43.1116 126.036 43.1894 125 43.2407C121.499 43.4142 117.633 43.286 113.826 43.1598C111.397 43.0793 108.993 42.9997 106.724 42.9997C97.673 42.9998 97.1554 45.6212 96.4199 49.3455C96.1396 50.7647 95.8278 52.3441 95 53.9997C92.1005 56.1461 78.883 70.4996 79.5 74.9996L79.5049 75.0353C80.1241 79.551 81.4555 89.2618 79.5 91.9995C80.5386 91.8647 81.4356 91.8301 82.2933 91.7969C84.827 91.6991 87.0175 91.6145 91.5 88.9996C94.6438 87.1658 97.0458 83.0476 99 78.4996C99.3212 77.7522 99.6585 76.9306 100.018 76.0564C101.643 72.0975 103.712 67.0592 106.724 62.9427C106.687 63.1944 108.734 62.7859 111.604 62.2133Z" fill="#FFF7CA"/>
<g id="head_hair_shadow">
<path d="M91.5 89C94.6438 87.1661 97.0458 83.0479 99 78.5C99.3212 77.7526 99.6585 76.931 100.018 76.0567C101.643 72.0978 103.712 67.0596 106.724 62.943L107.5 57.5C112.179 50.3612 115.952 47.208 125 43.241C121.499 43.4145 117.633 43.2863 113.826 43.1602C111.397 43.0797 108.993 43 106.724 43C103.576 51.0778 101.035 64.8154 100.018 66.4077C99 68 97.1692 68.8028 96.4199 71C95.1211 84.3516 94.0278 84.2337 91.5 89Z" fill="#ECE1A6"/>
</g>
<path id="neck_hair_highlight" d="M86.4548 68.6577C84.753 76.0839 83.5161 82.1474 87.7078 77.1736C88.7674 81.3622 90.5308 76.7591 95.1614 69.9513C91.6487 71.1723 90.9479 72.1076 91.9965 66.2273C89.2307 71.1504 87.8956 73.379 86.4548 68.6577Z" fill="white"/>
</g>
<g id="ear_L">
<path id="ear_L_base" d="M80.9999 48.5C78.4998 50 81.8303 53.1051 110 68.5C110 68.5 120 69.9999 120 63.5C120 57.0001 116.5 48.5 101.5 47.5C86.4999 46.5 83.5 47 80.9999 48.5Z" fill="white"/>
<path id="ear_L_inner" d="M109.5 65.5L89 53.5C92.0455 51.6267 103.5 54.0001 106.5 55.5C109.5 56.9999 112 61.5 112 63.5C112 65.5 110.927 66.1521 109.5 65.5Z" fill="#D9D9D9"/>
</g>
</g>
<g id="neck_hair">
<path id="neck_hair_base" d="M146.5 76C151.5 82.5001 153 89.9998 153 89.9998C153.528 91.4998 153.691 94.7319 153.748 96.2836C154.513 117.039 152.239 130.185 143 138.5C137.994 143.006 130.704 147.01 123.871 150.764C117.055 154.509 110.692 158.004 107.5 161.5C101.108 168.5 96 183.5 101 187C101 187 103.66 204.839 105.5 197C105.584 196.643 105.709 196.253 105.875 195.833C109.357 187.028 130.943 165.068 171 159.5C183.586 155.305 181.831 146.328 180.725 140.675C180.645 140.265 180.568 139.872 180.5 139.5C184 133 186.041 119.925 178.908 108.925C181.133 95.8295 177.035 88.5527 174 83.4999C174.8 78 173.664 77.2339 169.5 72.4999C168.832 71.9344 167.617 70.88 166.186 69.6388L166.183 69.6367C163.159 67.0133 159.174 63.5563 157.361 62.1149L157.359 62.1126L157.356 62.1098C156.673 61.3702 156.006 60.649 155.368 59.9557C153.528 54.9999 149.5 54 149.5 54L132 61L132.5 61.5002C136.85 64.9583 143.412 71.9854 146.5 76Z" fill="#FFF7CA"/>
<g id="neck_hair_shadow">
<path d="M161.625 140.325C171.132 131.49 177.5 114 178.908 108.925C177.526 125.811 172.719 131.803 161.625 140.325Z" fill="#ECE1A6"/>
<path d="M174 83.5C174.8 78.0002 173.664 77.234 169.5 72.5C173.17 82.4316 170.543 87.994 165 97C165 97 170.893 92.4704 174 83.5Z" fill="#ECE1A6"/>
<path d="M146.5 76.0001C151.5 82.5002 153 90 153 90C153.528 91.5 153.691 94.7321 153.748 96.2837C153.748 96.2837 153.5 82.5 148.5 72.5C143.5 62.5 133 61.8894 133 61.8894C137.35 65.3476 143.412 71.9855 146.5 76.0001Z" fill="#ECE1A6"/>
<path d="M107.5 161.5C101.108 168.5 96 183.5 101 187C101 187 103.66 204.839 105.5 197C105.584 196.643 105.709 196.253 105.875 195.833C109.357 187.029 130.943 165.068 171 159.5C172.287 159.071 173.423 158.592 174.426 158.072C157.73 160.797 148.178 161.335 132 167.259C119.019 172.93 117.637 174.98 111 180.5C107.5 182 106.5 176 112 167.259C105.212 173.037 103.432 167.736 107.5 161.5Z" fill="#ECE1A6"/>
</g>
<g id="neck_hair_highlight_2">
<path d="M126 153C122.5 155 118.341 157.11 112.5 162.5C112.5 162.5 121.5 157 125.5 155C129.5 153 143.5 146.5 147.5 144C151.5 141.5 155 137 155 137C155 137 148.5 142 145 144C141.5 146 129.5 151 126 153Z" fill="white"/>
<path d="M142.435 60.481C151.151 62.5921 155.482 64.1715 156.992 79.5002C153.555 63.8071 146.068 62.1352 142.435 60.481Z" fill="white"/>
<path d="M172.837 92.1116C173.718 101.036 173.656 105.645 159.682 112.126C173.364 103.706 172.474 96.0864 172.837 92.1116Z" fill="white"/>
</g>
</g>
</g>
<g id="b_leg_L">
<path id="b_leg_L_base" d="M198 221C202.511 233.535 209.689 244.998 213.5 248C217.311 251.002 216.5 255.5 216.5 255.5C216.785 255.81 214.934 267.438 212.771 281.027L212.341 283.725C210.955 292.424 209.588 301.008 208.503 308.5C208.378 309.36 208.113 311.194 208 312C208.357 314.5 209 316 214.5 316C220 316 231.421 312.149 234.5 309.5C235.029 309.045 235.669 306.226 236.121 303.5C238.299 290.36 239.328 257.141 238.5 253C238.014 250.571 237.764 249.322 237.292 248.164C236.792 246.938 236.043 245.814 234.5 243.5C231.5 239 232.763 232 232.763 232C233.778 229.399 234.923 226.905 236.082 224.381C239.006 218.013 242.019 211.451 243.263 202.5C244.347 194.697 244.56 188.647 243.715 183.5C243.207 180.402 242.315 177.63 241 175C237.5 168 234.5 166 234.5 166C234.5 166 227.857 161.594 223 160.5C214.481 158.581 207.632 158.82 201 164.5C197.711 167.317 196.536 169.763 194.712 173.559L194.5 174C192.383 178.399 191.58 181.153 191 186V198C191.095 202.141 191.431 204.498 192.5 208.5C193.259 211.344 194.348 213.79 195.452 216C195.834 216.764 196.217 217.5 196.589 218.215C196.95 218.907 197.3 219.578 197.627 220.236C197.755 220.492 197.88 220.747 198 221Z" fill="white"/>
<g id="b_foot_L">
<g id="b_foot_L_base">
<path d="M208 312C208.357 314.5 209 316 214.5 316C220 316 231.421 312.149 234.5 309.5C235.029 309.045 235.669 306.226 236.121 303.5C234.533 304.397 232.991 305.194 231.5 305.897C219.812 311.41 211.29 311.161 208.503 308.5C208.378 309.36 208.113 311.194 208 312Z" fill="#B69D8F"/>
</g>
<path id="b_foot_L_shadow" d="M234.5 309.5C235.029 309.045 235.669 306.226 236.121 303.5C234.533 304.397 232.991 305.194 231.5 305.897C230.807 309.274 230.365 310.604 229.5 312.225C231.703 311.304 233.522 310.341 234.5 309.5Z" fill="#9F887B"/>
</g>
<g id="b_leg_L_shadow">
<path d="M234.5 243.5C231.5 239 232.763 232 232.763 232C233.778 229.399 234.923 226.905 236.082 224.381C239.006 218.013 242.019 211.451 243.263 202.5C244.347 194.697 244.56 188.647 243.715 183.5C243.715 183.5 239.708 200.5 238.5 205C237.292 209.5 234.763 218.235 233.5 221C232.237 223.764 229 233 227.5 235.5C226 238 223.5 241.5 224.5 243.5C225.5 245.5 231.5 245 233.5 248C235.5 251 234.5 263.5 234.5 266.5C234.5 269.5 235 277.555 234.5 281.027C234 284.5 231.5 305.897 231.5 305.897C232.991 305.194 234.533 304.398 236.121 303.5C238.299 290.36 239.328 257.141 238.5 253C238.014 250.571 237.764 249.322 237.292 248.164C236.792 246.938 236.043 245.814 234.5 243.5Z" fill="#ECECEC"/>
</g>
</g>
<g id="f_leg_L">
<path id="f_leg_L_base" d="M132.5 245.5C133.872 253.132 128.794 283.463 120.5 305C120.324 305.882 119.925 306.823 119.5 307.784C118.318 310.457 116.926 313.294 119.5 315.5C123 318.5 123.5 318 129 318.5C134.5 319 148.5 317.5 151.5 306.5C151.737 305.63 151.937 304.445 152.103 303C154.044 286.161 151.5 234 151.5 234C151.5 234 157 213 155.5 205C154 197 152 193 141 190C130 187 119 195 117 197C115 199 113 202 113.5 209.5C113.95 216.25 117.802 221.622 119.151 223.505C119.301 223.714 119.42 223.88 119.5 224C119.904 224.606 121.533 226.355 123.397 228.357C126.145 231.308 129.404 234.808 130 236C130.072 236.145 130.14 236.279 130.204 236.405C131.025 238.022 131.227 238.421 132.5 245.5Z" fill="white"/>
<g id="f_foot_L">
<path d="M119.5 315.5C123 318.5 123.5 318 129 318.5C134.5 319 148.5 317.5 151.5 306.5C151.737 305.63 151.937 304.445 152.103 303C133.137 314.468 122.5 312.5 119.5 307.784C118.318 310.457 116.926 313.294 119.5 315.5Z" fill="#B69D8F"/>
</g>
<path id="f_leg_L_shadow" d="M151.5 306.5C151.737 305.63 151.937 304.445 152.103 303C154.044 286.161 151.5 234 151.5 234C151.5 234 151.65 233.427 151.894 232.434C152.311 230.735 153.004 227.804 153.688 224.412C151.458 225.181 150.205 225.434 148 228.357C144.5 232.031 146 266.5 146.5 275C146.932 282.352 146.243 290.827 145.725 297.188C145.644 298.181 145.568 299.122 145.5 300C145 306.5 143 316.054 143 316.054C146.84 314.244 150.201 311.263 151.5 306.5Z" fill="#F4F4F4"/>
<path id="f_foot_L_2" d="M143 316.054C146.84 314.244 150.201 311.262 151.5 306.5C151.737 305.63 151.937 304.445 152.103 303C149.45 304.605 146.959 305.946 144.629 307.054C143.889 311.804 143.002 316.044 143 316.054Z" fill="#9F887B"/>
</g>
</g>
</svg>
